<svg width="1437" height="396" viewBox="0 0 1437 396" fill="none" xmlns="http://www.w3.org/2000/svg">
<g clip-path="url(#clip0_61_3739)">
<path d="M0 244.624L226.831 161.599C226.831 161.599 327.145 107.848 338.417 109.047C349.688 110.244 355.072 116.778 366.344 113.354C377.615 109.93 378.538 99.5343 443.167 131.645C497.573 158.677 713.255 271.59 713.255 271.59V453.408H0L0 244.624Z" fill="black" fill-opacity="0.16"/>
<path d="M387.104 287.624L1093.94 52.5991C1093.94 52.5991 1194.25 -1.15164 1205.52 0.046814C1216.79 1.24432 1222.18 7.77826 1233.45 4.35422C1244.72 0.930176 1245.64 -9.46567 1310.27 22.6452C1364.68 49.6767 1963 227.5 1963 227.5V366L387.104 399V287.624Z" fill="#035A28"/>
<path d="M294.273 178H172.393L166.388 165.579H300.278L294.273 178Z" fill="#012912"/>
<path d="M294.273 196.972H172.393L166.388 190.761H300.278L294.273 196.972Z" fill="#012912"/>
<path d="M315.965 165.579H150.702L142.559 146.684C203.075 159.281 263.591 159.281 324.107 146.684L315.965 165.579Z" fill="#012912"/>
<path d="M233.333 157.795C201.181 157.795 169.031 154.653 137.104 148.367L137.616 145C201.129 157.505 265.537 157.505 329.051 145L329.562 148.367C297.636 154.653 265.484 157.795 233.333 157.795Z" fill="#012912"/>
<path d="M247.78 190.761H218.887V178H247.78V190.761Z" fill="#012912"/>
<path d="M187.158 298.087H183.052V178H187.158V298.087Z" fill="#012912"/>
<path d="M283.615 298.087H279.509V178H283.615V298.087Z" fill="#012912"/>
<path d="M305.082 192.47H161.584V189.053H305.082V192.47Z" fill="#012912"/>
<path d="M180.162 298.087H169.278V209.953H180.162V298.087Z" fill="#012912"/>
<path d="M182.304 209.952H167.136L166.388 206.847H183.052L182.304 209.952Z" fill="#012912"/>
<path d="M297.583 298.087H286.699V209.953H297.583V298.087Z" fill="#012912"/>
<path d="M299.725 209.952H284.556L283.809 206.847H300.472L299.725 209.952Z" fill="#012912"/>
<path d="M190.765 184.381H179.55V178H190.765V184.381Z" fill="#012912"/>
<path d="M287.168 184.381H275.954V178H287.168V184.381Z" fill="#012912"/>
<path d="M-43.1933 272.908L-42.264 270.599L-40.4267 271.6L-38.5947 272.5L-36.752 273.516L-35.2093 270.36L-33.2813 272.611L-31.532 272.357L-29.8813 270.669L-27.9707 272.641L-26.3067 271.168L-24.5627 270.811L-22.6973 272.137L-21.0067 271.017L-19.1333 272.449L-17.612 268.932L-15.6067 272.228L-13.9267 270.992L-12.2027 270.364L-10.5933 268.069L-8.68533 269.991L-6.81466 271.359L-5.16533 269.608L-3.42133 269.191L-1.688 268.6L0.104 268.759L1.88267 269.216L3.688 269.137L5.21733 270.551L7.39867 268.819L9.02 269.797L10.8667 269.679L12.1653 272.221L13.868 272.805L15.6507 273.009L17.7267 271.771L19.5387 271.819L20.8253 274.425L22.8133 273.628L24.5827 273.904L26.3507 274.195L27.8613 275.713L30.0213 274.119L31.3107 276.74L33.4253 273.504L35.0827 274.992L36.9667 275.552L38.868 276.199L40.1 273.215L41.6827 272.14L43.8507 274.228L45.1333 271.551L47.4533 274.463L48.868 272.489L50.796 273.264L52.432 272.457L54.2547 272.668L55.82 271.501L57.728 272.18L59.1333 270.127L60.96 270.349L62.8107 270.713L64.324 269.243L65.9693 268.484L67.8347 268.911L69.4507 267.993L71.504 269.428L72.7773 266.659L74.6013 266.881L76.84 269.339L78.4453 268.345L79.6307 265.116L81.9467 267.959L83.5493 266.943L85.0787 265.552L87.1027 266.8L88.52 264.769L90.3813 264.111L92.0867 265.167L94.232 264L95.18 267.051L96.8613 267.52L98.4173 268.424L100.885 266.119L101.588 270.017L103.992 267.94L105.085 270.469L106.601 271.525L109.181 268.827L110.977 268.883L112.071 271.401L113.563 272.512L115.364 272.535L116.72 274.124L118.419 274.503L120.423 273.819L121.831 275.239L124.035 273.864L125.935 273.572L126.947 276.391L128.956 275.701L130.168 277.807L132.137 277.253L134.417 275.609L135.375 278.627L136.883 279.719L138.495 280.432L140.244 280.657L142.528 279.007L144.521 278.387L146.131 279.119L146.939 282.663L148.747 282.696L150.844 281.713L152.808 281.199L154.335 282.223L155.7 283.791L157.395 284.231L158.601 286.373L160.889 284.708L162.14 286.72L163.821 287.197L165.5 287.699L167.96 285.457L169.673 285.832L171.428 286.077L172.911 287.291L174.363 287.869L176.224 289.665L177.92 289.212L179.452 287.768L181.441 289.071L183.151 288.687L184.636 286.943L186.232 285.88L188.153 286.785L189.719 285.539L191.752 287.129L193.372 286.216L194.985 285.269L196.723 285.072L198.139 282.929L200.215 284.768L201.748 283.327L203.856 285.345L205.667 285.569L207.068 283.317L208.909 283.725L210.763 284.217L212.493 283.971L214.005 282.409L215.455 280.456L217.72 283.431L219.344 282.541L220.635 279.617L222.789 281.913L224.196 279.693L226.167 280.879L228.029 281.427L229.589 280.147L230.959 277.711L232.804 278.139L234.843 279.728L236.572 279.456L238.283 279.083L239.587 276.276L241.343 276.197L243.524 278.689L245.196 278.115L246.961 278.104L248.705 277.948L250.341 277.137L252.201 277.649L253.392 274.109L255.595 276.697L256.809 273.329L258.539 273.075L260.331 273.197L262.065 272.964L264.241 275.38L265.611 272.911L267.332 272.587L269.445 274.632L270.844 272.369L272.641 272.491L274.564 273.361L276.153 272.235L277.94 272.289L279.812 272.859L281.52 272.439L282.937 270.253L284.549 269.249L286.337 269.308L288.283 270.332L290.036 270.209L291.625 269.047L293.575 270.083L295.159 268.895L296.971 269.075L298.483 267.459L300.629 269.652L301.953 266.855L303.823 267.468L305.56 267.417L307.048 269.693L308.963 268.273L310.952 266.205L312.509 267.885L314.223 268.157L315.831 269.343L317.769 267.645L319.445 268.239L320.949 270.325L322.829 269.139L324.493 269.833L326.087 271.143L328.037 269.359L329.612 270.841L331.207 272.137L333.135 270.551L334.655 272.505L336.735 269.612L338.359 270.68L339.923 272.256L341.603 272.851L343.476 271.767L345.219 271.819L346.844 272.895L348.435 274.293L350.555 271.095L352.163 272.344L353.749 273.789L355.505 273.772L357.279 273.604L359.173 272.38L360.871 272.851L362.533 273.628L364.333 273.204L366.033 273.645L367.608 275.168L369.285 275.792L371.289 273.571L373.059 273.385L374.339 277.457L376.363 275.075L378.161 274.629L379.953 274.251L381.625 274.904L383.391 274.764L385.095 275.153L386.671 276.645L388.336 277.381L389.991 278.212L391.825 277.475L393.533 277.845L395.464 276.301L396.831 279.651L398.741 278.288L400.279 280.18L402.035 280.179L403.877 279.415L405.66 279.167L407.217 280.868L408.987 280.724L410.905 279.276L412.463 280.955L414.139 281.613L416.137 279.463L417.931 279.091L419.607 279.749L421.029 282.6L423.036 280.376L424.588 282.109L426.553 280.271L427.985 283.059L429.72 283.225L431.56 282.485L433.513 280.775L435.256 280.895L436.839 282.389L438.633 282.048L440.5 281.064L442.188 281.621L443.895 282.024L445.64 282.088L447.212 283.66L448.783 285.244L450.599 284.705L452.288 285.275L454.185 284.041L455.809 285.192L457.677 284.225L459.316 285.251L461.261 283.589L463.007 283.673L464.349 287.243L466.135 286.969L468.069 285.405L469.749 286.061L471.376 287.191L473.08 287.655L474.94 286.756L476.712 286.624L478.463 286.66L479.921 289.229L481.831 287.9L483.613 287.659L485.368 287.685L487.088 288.015L488.916 287.383L490.496 288.877L492.059 290.505L494.017 288.7L495.907 287.493L497.475 289.072L498.913 291.795L501.061 288.369L502.411 291.909L504.552 288.596L506.019 291.113L507.955 289.539L509.497 291.384L511.303 290.941L512.869 292.575L514.705 291.907L516.563 291.055L518.215 291.979L520.12 290.685L521.492 294.028L523.512 291.773L525.372 290.903L526.676 294.847L528.499 294.3L530.189 294.923L531.877 295.533L533.808 294.061L535.501 294.661L537.248 294.781L539.273 292.452L540.643 295.825L542.336 296.425L544.133 296.115L546.173 293.704L547.555 297.035L549.487 295.56L551.061 297.217L553.037 295.433L554.681 297.028L556.4 294.457L558.179 295.401L559.916 295.148L561.724 296.973L563.377 294.315L565.216 297.052L566.859 294.12L568.724 297.68L570.36 294.56L572.14 295.619L573.849 294.655L575.573 294.104L577.3 293.633L579.165 297.165L580.863 295.821L582.612 295.996L584.32 294.952L586.039 294.199L587.801 294.723L589.533 294.331L591.264 293.829L592.997 293.407L594.805 295.133L596.493 293.373L598.316 295.445L600.077 295.813L601.839 296.175L603.489 293.339L605.305 295.319L606.977 293.149L608.8 295.399L610.515 294.464L612.299 295.575L614.001 294.327L615.756 294.617L617.529 295.38L619.175 292.459L620.972 293.947L622.752 294.901L624.424 292.676L626.164 292.401L627.921 292.633L629.689 293.104L631.488 294.507L633.153 292.081L634.939 293.132L636.725 294.269L638.504 295.141L640.137 291.796L641.961 294.024L643.649 292.323L645.363 291.307L647.189 293.551L648.917 292.925L650.684 293.408L652.36 291.211L654.181 293.248L655.924 293.052L657.716 294.252L659.427 293.131L661.216 294.309L662.921 293.047L664.7 293.92L666.399 292.427L668.141 292.161L669.953 293.887L671.617 291.349L673.453 293.841L675.172 292.917L676.849 290.828L678.607 291.029L680.392 292.021L682.131 291.648L683.901 292.173L685.688 293.207L687.429 293.037L689.195 293.607L690.913 292.817L692.595 290.995L694.371 291.891L696.115 291.819L697.883 292.388L699.577 290.737L701.335 290.784L703.139 292.327L704.805 289.891L706.557 290.043L708.275 289.088L710.145 292.592L711.901 292.708L713.557 289.831L715.311 289.857L717.145 292.288L718.883 291.859L720.601 290.779L722.321 289.791L724.081 289.987L725.813 289.36L727.611 290.543L729.328 289.473L731.069 289.012L732.844 289.583L734.549 288.121L736.393 290.811L738.115 289.912L739.824 288.487L741.692 291.753L743.407 290.523L745.109 288.875L746.856 288.576L748.621 288.711L750.38 288.556L752.464 287.496L753.78 290.115L755.447 290.589L757.401 290.221L758.744 291.644L760.051 293.171L762.407 291.631L764.125 291.955L765.667 292.804L767.228 293.593L768.872 294.148L770.204 295.608L772.207 295.112L773.739 295.988L775.356 296.608L776.836 297.633L778.493 298.14L779.561 300.365L781.22 300.872L783.333 300.053L784.575 301.784L786.669 301.021L788.869 299.943L790.219 301.356L792.107 301.189L792.593 305.119L795.436 302.169L796.165 305.393L798.031 305.3L799.417 306.601L801.075 307.099L803.397 305.652L804.275 308.423L806.264 307.945L807.724 309.015L809.219 309.991L811.447 308.828L812.78 310.288L814.185 311.547L816.468 310.236L817.917 311.349L819.739 311.38L821.38 311.931L822.269 314.683L824.563 313.344L825.772 315.176L827.965 314.129L828.58 317.687L830.624 317.072L832.507 316.936L833.973 318.016L836.225 316.8L837.463 318.547L838.643 320.472L840.283 321.041L842.585 319.687L844.415 319.692L845.736 321.2L847.532 321.312L848.889 322.707L851.136 321.521L852.451 323.047L853.835 324.384L855.653 324.449L856.911 326.152L858.609 326.569L860.111 327.583L862.407 325.765L863.821 327.757L865.456 329.123L867.279 328.347L868.963 329.139L870.775 328.468L872.721 326.276L874.289 328.397L875.903 330.011L877.828 328.073L879.607 327.829L881.149 330.272L882.899 330.377L884.721 329.619L886.556 328.728L888.255 329.357L890.073 328.647L891.871 328.159L893.332 331.516L895.157 330.728L896.819 331.821L898.763 329.711L900.413 330.933L902.236 330.176L904.105 328.895L905.824 329.323L907.596 329.137L909.279 329.999L910.867 331.931L912.505 333.3L914.408 331.619L916.289 330.163L918.033 330.259L919.513 333.339L921.413 331.645L923.041 333.059L924.883 332.047L926.507 333.539L928.317 332.94L929.955 334.341L931.683 334.68L933.496 334.033L935.189 334.737L937.003 334.068L938.729 334.411L940.665 332.401L942.384 332.883L944.159 332.704L945.597 336.335L947.539 334.252L949.417 332.911L951.064 334.212L952.697 335.643L954.559 334.495L956.096 337.056L957.885 336.737L959.819 334.793L961.435 336.449L963.148 337.008L964.895 337.137L966.779 335.709L968.308 338.391L970.091 338.148L971.889 337.756L973.829 335.765L975.331 338.752L977.385 335.471L978.94 337.933L980.088 338.116L980.984 339.236L979.868 340.971L980.251 342.704L979.485 344.436L982.529 346.169L980.391 347.904L981.848 349.639L980.116 351.373L981.736 353.109L982.336 354.845L981.803 356.58L980.196 358.315L979.04 360.048L980.685 361.783L982.155 363.519L979.189 365.255L981.855 366.992L981.699 368.724L981.807 370.456L980.392 372.185L980.204 373.916L980.761 375.645L979.286 377.375L979.833 379.104L980.035 380.837L981.611 382.573L982.257 384.312L980.359 386.047L978.816 387.781L981.068 389.515L981.359 391.248L980.044 392.983L982.043 394.719L981.411 396.459L980.036 398.196L982.051 399.931L981.288 401.667L982.492 403.407L981.974 405.145L979.053 406.881L980.419 408.62L979.755 410.361L979.745 412.1L979.359 413.84L982.595 415.58L980.247 417.32L982.313 419.056L979.849 420.792L980.685 422.535L978.765 424.273L981.026 426.016L980.87 427.76L979.728 429.5L982.268 431.245L979.695 432.993L980.352 434.347L979.004 436.039L977.261 434.656L975.519 434.395L973.775 435.135L972.032 433.647L970.288 434.093L968.545 436.66L966.803 434.107L965.059 434.58L963.316 434.903L961.573 433.581L959.831 434.448L958.087 435.751L956.344 434.277L954.601 434.572L952.859 435.963L951.116 432.979L949.372 435.848L947.629 434.331L945.887 435.088L944.144 432.8L942.401 434.255L940.657 433.657L938.915 432.908L937.172 436.704L935.428 432.864L933.685 435.751L931.943 434.096L930.199 434.391L928.456 434.737L926.713 435.605L924.969 433.937L923.225 436.716L921.483 432.985L919.74 434.135L917.996 436.547L916.252 432.904L914.509 436.619L912.765 434.647L911.021 433.393L909.279 434.68L907.533 434.053L905.791 433.292L904.047 433.301L902.303 435.956L900.557 434.351L898.813 433.124L897.069 432.981L895.325 434.656L893.581 436.356L891.836 433.373L890.091 435.287L888.347 433.353L886.601 433.839L884.857 435.579L883.112 436.283L881.367 433.307L879.621 434.767L877.876 434.199L876.131 436.253L874.385 434.547L872.648 434.835L870.913 433.319L869.177 435.781L867.441 436.608L865.705 435.384L863.969 433.087L862.233 436.039L860.497 436.58L858.76 433.824L857.024 435.504L855.288 436.367L853.552 435.041L851.815 436.679L850.079 433.184L848.341 436.337L846.605 434.551L844.868 435.415L843.132 434.724L841.395 435.353L839.659 433.303L837.921 435.125L836.184 434.293L834.447 432.968L832.709 434.556L830.972 436.237L829.235 435.076L827.497 435.001L825.759 434.504L824.021 435.351L822.283 434.196L820.545 436.633L818.807 433.152L817.068 433.325L815.329 434.736L813.591 435.528L811.852 434.88L810.112 432.768L808.373 436.488L806.635 434.191L804.895 435.296L803.156 433.009L801.416 435.048L799.676 436.62L797.936 432.985L796.196 436.724L794.455 432.903L792.715 434.417L790.973 434.816L789.232 436.308L787.491 436.096L785.749 435.457L784.008 433.399L782.267 434.133L780.524 436.141L778.781 434.269L777.039 433.347L775.296 432.82L773.553 434.779L771.811 433.221L770.067 432.933L768.323 433.624L766.58 435.203L764.835 433.659L763.091 433.8L761.347 435.109L759.601 433.397L757.856 434.115L756.111 433.328L754.365 434.176L752.619 433.204L750.873 434.711L749.127 436.3L747.38 433.608L745.633 434.724L743.887 432.876L742.14 436.464L740.395 434.261L738.649 435.717L736.904 433.527L735.159 436.652L733.415 435.992L731.669 435.587L729.925 434.793L728.18 434.052L726.436 433.483L724.693 433.597L722.949 436.461L721.205 435.283L719.463 435.076L717.719 434.943L715.976 436.223L714.233 435.855L712.491 434.723L710.748 436.3L709.005 432.88L707.264 436.707L705.521 433.213L703.78 436.461L702.037 433.605L700.296 436.372L698.555 434.773L696.813 435.721L695.072 436.423L693.331 435.463L691.589 435.176L689.849 433.597L688.108 432.977L686.367 436.051L684.627 435.485L682.887 436.525L681.145 434.775L679.405 436.588L677.665 433.551L675.924 433.171L674.184 435.987L672.444 432.995L670.704 435.401L668.964 432.959L667.224 435.935L665.484 434.548L663.744 434.625L662.004 433.448L660.264 434.416L658.524 433.159L656.784 433.904L655.044 436.196L653.304 434.967L651.564 434.711L649.824 432.784L648.084 436.715L646.344 433.189L644.604 435.052L642.864 435.851L641.124 436.159L639.384 433.283H637.644L635.903 433.395L634.163 436.36L632.423 433.892L630.683 432.948L628.941 436.717L627.2 433.844L625.46 434.399L623.72 435.777L621.977 436.201L620.237 434.447L618.496 434.788L616.755 434.583L615.013 436.241L613.272 436.156L611.529 436.203L609.788 433.953L608.045 435.213L606.304 433.799L604.561 435.329L602.819 433.356L601.076 436.551L599.333 433.225L597.589 435.717L595.847 433.279L594.104 435.097L592.36 436.571L590.616 433.177L588.872 435.041L587.127 432.823L585.383 434.253L583.639 434.372L581.892 434.881L580.147 436.068L578.401 433.331L576.656 433.717L574.909 434.981L573.163 436.407L571.417 433.824L569.669 435.76L567.921 435.999L566.175 435.276L564.427 434.64L562.679 436.075L560.931 433.796L559.184 434.48L557.436 436.737L555.689 435.911L553.943 432.933L552.196 436.705L550.451 433.125L548.704 435.623L546.959 435.585L545.213 434.173L543.468 433.345L541.723 434.056L539.977 434.504L538.233 433.551L536.489 436.061L534.744 435.012L533 436.631L531.256 435.228L529.512 433.369L527.768 435.891L526.025 434.007L524.281 435.127L522.537 436.451L520.795 435.675L519.052 436.599L517.308 435.123L515.565 434.229L513.823 433.339L512.08 435.656L510.336 434.24L508.593 434.597L506.851 433.845L505.108 436.243L503.365 434.719L501.623 435.883L499.88 432.825L498.137 435.547L496.393 435.095L494.651 434.181L492.908 433.077L491.165 433.609L489.423 436.407L487.68 434.139L485.937 436.031L484.193 433.101L482.451 433.671L480.707 432.852L478.964 433.253L477.22 434.741L475.476 434.735L473.732 436.493L471.988 433.171L470.244 433.029L468.5 434.627L466.756 435.289L465.011 436.104L463.267 434.876L461.521 435.56L459.776 436.461L458.029 432.751L456.284 433.776L454.539 436.679L452.792 432.791L451.045 435.229L449.299 434.153L447.552 435.688L445.805 434.393L444.056 435.835L442.308 434.477L440.56 434.5L438.812 433.349L437.063 434.601L435.313 435.816L433.565 435.005L431.817 432.813L430.069 434.813L428.323 436.409L426.575 433.107L424.828 434.225L423.081 435.591L421.335 434.916L419.588 433.129L417.843 434.245L416.096 436.665L414.351 434.947L412.605 434.749L410.86 433.037L409.115 436.48L407.369 433.513L405.624 434.544L403.879 433.539L402.135 434.728L400.389 434.013L398.644 434.305L396.9 433.323L395.155 436.476L393.411 434.383L391.665 434.239L389.921 436.695L388.176 432.959L386.432 435.036L384.687 435.165L382.941 436.631L381.196 436.225L379.452 433.216L377.707 435.857L375.961 434.203L374.216 434.703L372.471 436.395L370.724 433.632L368.979 433.096L367.232 434.839L365.485 433.324L363.74 434.329L361.993 432.86L360.245 435.955L358.499 435.38L356.751 435.8L355.003 434.511L353.255 435.393L351.505 434.836L349.756 435.016L348.007 434.104L346.257 435.133L344.508 436.647L342.76 434.955L341.011 433.913L339.263 434.959L337.515 434.416L335.767 433.348L334.02 434.839L332.272 435.337L330.525 435.159L328.779 433.459L327.031 435.659L325.285 435.108L323.539 435.449L321.792 434.969L320.047 434.765L318.3 435.119L316.553 433.651L314.807 433.147L313.061 435.996L311.315 432.936L309.569 432.759L307.823 436.375L306.077 434.204L304.331 435.741L302.584 434.58L300.837 434.209L299.091 434.156L297.343 436.567L295.596 435.796L293.849 434.051L292.101 434.432L290.353 432.949L288.605 434.577L286.856 434.591L285.108 433.915L283.359 433.183L281.609 434.357L279.859 434.12L278.109 436.503L276.36 433.239L274.611 433.4L272.861 433.873L271.112 435.685L269.364 433.532L267.616 434.779L265.869 434.476L264.121 434.581L262.373 434.613L260.627 433.388L258.879 433.673L257.132 435.091L255.385 432.943L253.637 434.639L251.891 435.429L250.143 435.765L248.396 435.855L246.648 433.415L244.901 434.532L243.153 436.036L241.405 432.843L239.657 435.967L237.908 434.844L236.16 434.416L234.411 434.289L232.661 433.335L230.912 433.297L229.161 434.297L227.411 434.772L225.661 432.939L223.912 435.78L222.163 432.989L220.413 436.053L218.665 432.951L216.916 433.025L215.168 435.593L213.42 434.903L211.672 434.091L209.924 434.636L208.176 433.363L206.428 434.857L204.68 433.453L202.932 433.365L201.184 436.161L199.435 435.051L197.687 435.009L195.945 433.784L194.203 434.657L192.463 435.249L190.721 433.381L188.979 433.449L187.239 433.845L185.496 434.192L183.755 433.547L182.012 434.716L180.269 433.576L178.527 436.387L176.784 435.073L175.04 435.289L173.296 433.661L171.551 436.479L169.805 435.517L168.059 435.683L166.312 435.223L164.564 436.299L162.816 433.617L161.067 435.66L159.316 435.884L157.564 435.755L155.812 434.897L154.063 433.832L152.312 434.439L150.564 436.648L148.816 436.311L147.068 434.493L145.321 434.624L143.575 436.573L141.828 436.54L140.083 435.853L138.336 435.621L136.591 436.004L134.845 436.604L133.1 435.769L131.355 434.903L129.609 435.709L127.863 433.365L126.117 433.113L124.371 435.059L122.624 435.603L120.876 434.569L119.128 432.904L117.379 436.231L115.628 436.176L113.877 434.072L112.125 433.304L110.372 433.759L108.62 433.613L106.868 435.833L105.117 434.645L103.368 434.692L101.619 433.743L99.8707 433.337L98.1227 436.575L96.3733 432.769L94.6253 435.909L92.8773 433.047L91.1293 435.459L89.3813 435.512L87.632 435.947L85.8813 436.523L84.132 436.177L82.38 435.02L80.628 435.324L78.8733 433.829L77.12 434.419L75.368 436.148L73.616 433.613L71.8653 434.869L70.116 435.608L68.3653 433.635L66.616 435.421L64.8653 435.228L63.1147 434.603L61.364 435.853L59.612 432.867L57.86 435.212L56.1053 434.248L54.3507 434.769H52.5987L50.8467 436.66L49.0947 434.975L47.3427 435.768L45.592 435.651L43.84 436.175L42.088 433.495L40.3347 434.939L38.5787 435.689L36.8253 435.383L35.072 434.784L33.32 433.488L31.5667 436.737L29.8147 434.877L28.0613 435.421L26.3067 432.844L24.552 433.536L22.7987 436.431L21.048 434.455L19.3 436.149L17.5533 433.251L15.8053 436.136L14.0573 433.896L12.308 435.7L10.5573 434.455L8.804 433.076L7.04667 432.969L5.29334 436.003L3.54133 434.677L1.78933 436.167L0.0386696 434.24L-1.71467 436.06L-3.47066 433.653L-5.22667 433.783L-6.98266 433.764L-8.736 436.492L-10.4907 433.384L-12.248 432.795L-14.004 433.356L-15.76 435.155L-17.5173 434.159L-19.276 435.659L-21.032 435.121L-22.7907 432.836L-24.5493 435.631L-26.3067 434.148L-28.0613 436.376L-29.816 436.708L-31.5773 434.096L-33.3347 436.401L-35.0947 433.059L-36.8573 435.1L-38.616 433.089L-40.38 433.864L-42.1453 433.8L-44.2853 435.119L-43.608 432.997L-41.9387 431.255L-45.8893 429.508L-42.948 427.763L-44.028 426.015L-41.9653 424.269L-44.304 422.523L-44.2253 420.779L-44.4533 419.035L-42.68 417.291L-45.4293 415.548L-45.0427 413.805L-45.148 412.063L-44.3827 410.321L-44.208 408.579L-44.4173 406.836L-45.7893 405.093L-44.0067 403.349L-44.4147 401.605L-44.64 399.861L-43.6133 398.115L-44.6733 396.369L-45.1253 394.62L-43.0187 392.873L-44.752 391.127L-43.5373 389.38L-44.7067 387.636L-43.9867 385.891L-45.896 384.148L-44.5493 382.403L-44.4333 380.659L-43.1707 378.913L-45.4 377.168L-44.752 375.423L-43.8587 373.675L-45.0733 371.928L-44.956 370.179L-44.7467 368.432L-42.0787 366.685L-41.9787 364.939L-44.972 363.195L-43.9453 361.448L-44.9973 359.703L-43.7067 357.956L-42.756 356.208L-43.2333 354.459L-44.7213 352.711L-45.848 350.963L-44.66 349.216L-43.6813 347.469L-43.2213 345.723L-42.0933 343.976L-45.2813 342.227L-43.9067 340.477L-42.3693 338.729L-44.3027 336.987L-44.8693 335.243L-44.7427 333.501L-44.488 331.76L-43.912 330.017L-42.0493 328.275L-43.8013 326.529L-45.528 324.781L-42.3227 323.031L-44.9867 321.281L-44.5907 319.536L-45.008 317.791L-43.896 316.045L-42.1307 314.297L-42.788 312.547L-42.8347 310.796L-43.1653 309.047L-43.6453 307.3L-42.3093 305.551L-43.1307 303.799L-43.9107 302.047L-42.664 300.299L-43.7813 298.547L-43.1973 296.795L-45.696 295.044L-43.4907 293.291L-42.0653 291.539L-43.736 289.785L-43.528 288.037L-45.868 286.288L-43.4387 284.533L-42.444 282.781L-44.2187 281.028L-44.4453 279.271L-43.0613 277.517L-43.1293 275.76L-45.076 273.707L-43.1933 272.908Z" fill="#012912"/>
<path d="M1850.89 260.908L1849.96 258.599L1848.13 259.6L1846.29 260.5L1844.45 261.516L1842.91 258.36L1840.98 260.611L1839.23 260.357L1837.58 258.669L1835.67 260.641L1834.01 259.168L1832.26 258.811L1830.4 260.137L1828.71 259.017L1826.83 260.449L1825.31 256.932L1823.31 260.228L1821.63 258.992L1819.9 258.364L1818.29 256.069L1816.38 257.991L1814.51 259.359L1812.86 257.608L1811.12 257.191L1809.39 256.6L1807.59 256.759L1805.82 257.216L1804.01 257.137L1802.48 258.551L1800.3 256.819L1798.68 257.797L1796.83 257.679L1795.53 260.221L1793.83 260.805L1792.05 261.009L1789.97 259.771L1788.16 259.819L1786.87 262.425L1784.89 261.628L1783.12 261.904L1781.35 262.195L1779.84 263.713L1777.68 262.119L1776.39 264.74L1774.27 261.504L1772.62 262.992L1770.73 263.552L1768.83 264.199L1767.6 261.215L1766.02 260.14L1763.85 262.228L1762.57 259.551L1760.25 262.463L1758.83 260.489L1756.9 261.264L1755.27 260.457L1753.44 260.668L1751.88 259.501L1749.97 260.18L1748.57 258.127L1746.74 258.349L1744.89 258.713L1743.37 257.243L1741.73 256.484L1739.86 256.911L1738.25 255.993L1736.19 257.428L1734.92 254.659L1733.1 254.881L1730.86 257.339L1729.25 256.345L1728.07 253.116L1725.75 255.959L1724.15 254.943L1722.62 253.552L1720.6 254.8L1719.18 252.769L1717.32 252.111L1715.61 253.167L1713.47 252L1712.52 255.051L1710.84 255.52L1709.28 256.424L1706.81 254.119L1706.11 258.017L1703.71 255.94L1702.61 258.469L1701.1 259.525L1698.52 256.827L1696.72 256.883L1695.63 259.401L1694.14 260.512L1692.33 260.535L1690.98 262.124L1689.28 262.503L1687.28 261.819L1685.87 263.239L1683.66 261.864L1681.76 261.572L1680.75 264.391L1678.74 263.701L1677.53 265.807L1675.56 265.253L1673.28 263.609L1672.32 266.627L1670.82 267.719L1669.2 268.432L1667.45 268.657L1665.17 267.007L1663.18 266.387L1661.57 267.119L1660.76 270.663L1658.95 270.696L1656.85 269.713L1654.89 269.199L1653.36 270.223L1652 271.791L1650.3 272.231L1649.1 274.373L1646.81 272.708L1645.56 274.72L1643.88 275.197L1642.2 275.699L1639.74 273.457L1638.03 273.832L1636.27 274.077L1634.79 275.291L1633.34 275.869L1631.47 277.665L1629.78 277.212L1628.25 275.768L1626.26 277.071L1624.55 276.687L1623.06 274.943L1621.47 273.88L1619.55 274.785L1617.98 273.539L1615.95 275.129L1614.33 274.216L1612.71 273.269L1610.98 273.072L1609.56 270.929L1607.48 272.768L1605.95 271.327L1603.84 273.345L1602.03 273.569L1600.63 271.317L1598.79 271.725L1596.94 272.217L1595.21 271.971L1593.69 270.409L1592.24 268.456L1589.98 271.431L1588.35 270.541L1587.06 267.617L1584.91 269.913L1583.5 267.693L1581.53 268.879L1579.67 269.427L1578.11 268.147L1576.74 265.711L1574.89 266.139L1572.86 267.728L1571.13 267.456L1569.42 267.083L1568.11 264.276L1566.36 264.197L1564.17 266.689L1562.5 266.115L1560.74 266.104L1558.99 265.948L1557.36 265.137L1555.5 265.649L1554.31 262.109L1552.1 264.697L1550.89 261.329L1549.16 261.075L1547.37 261.197L1545.63 260.964L1543.46 263.38L1542.09 260.911L1540.37 260.587L1538.25 262.632L1536.85 260.369L1535.06 260.491L1533.13 261.361L1531.55 260.235L1529.76 260.289L1527.89 260.859L1526.18 260.439L1524.76 258.253L1523.15 257.249L1521.36 257.308L1519.42 258.332L1517.66 258.209L1516.07 257.047L1514.12 258.083L1512.54 256.895L1510.73 257.075L1509.22 255.459L1507.07 257.652L1505.75 254.855L1503.88 255.468L1502.14 255.417L1500.65 257.693L1498.74 256.273L1496.75 254.205L1495.19 255.885L1493.48 256.157L1491.87 257.343L1489.93 255.645L1488.25 256.239L1486.75 258.325L1484.87 257.139L1483.21 257.833L1481.61 259.143L1479.66 257.359L1478.09 258.841L1476.49 260.137L1474.56 258.551L1473.04 260.505L1470.96 257.612L1469.34 258.68L1467.78 260.256L1466.1 260.851L1464.22 259.767L1462.48 259.819L1460.85 260.895L1459.26 262.293L1457.14 259.095L1455.54 260.344L1453.95 261.789L1452.19 261.772L1450.42 261.604L1448.53 260.38L1446.83 260.851L1445.17 261.628L1443.37 261.204L1441.67 261.645L1440.09 263.168L1438.41 263.792L1436.41 261.571L1434.64 261.385L1433.36 265.457L1431.34 263.075L1429.54 262.629L1427.75 262.251L1426.07 262.904L1424.31 262.764L1422.6 263.153L1421.03 264.645L1419.36 265.381L1417.71 266.212L1415.87 265.475L1414.17 265.845L1412.23 264.301L1410.87 267.651L1408.96 266.288L1407.42 268.18L1405.66 268.179L1403.82 267.415L1402.04 267.167L1400.48 268.868L1398.71 268.724L1396.79 267.276L1395.24 268.955L1393.56 269.613L1391.56 267.463L1389.77 267.091L1388.09 267.749L1386.67 270.6L1384.66 268.376L1383.11 270.109L1381.15 268.271L1379.71 271.059L1377.98 271.225L1376.14 270.485L1374.19 268.775L1372.44 268.895L1370.86 270.389L1369.07 270.048L1367.2 269.064L1365.51 269.621L1363.8 270.024L1362.06 270.088L1360.49 271.66L1358.92 273.244L1357.1 272.705L1355.41 273.275L1353.51 272.041L1351.89 273.192L1350.02 272.225L1348.38 273.251L1346.44 271.589L1344.69 271.673L1343.35 275.243L1341.56 274.969L1339.63 273.405L1337.95 274.061L1336.32 275.191L1334.62 275.655L1332.76 274.756L1330.99 274.624L1329.24 274.66L1327.78 277.229L1325.87 275.9L1324.09 275.659L1322.33 275.685L1320.61 276.015L1318.78 275.383L1317.2 276.877L1315.64 278.505L1313.68 276.7L1311.79 275.493L1310.22 277.072L1308.79 279.795L1306.64 276.369L1305.29 279.909L1303.15 276.596L1301.68 279.113L1299.74 277.539L1298.2 279.384L1296.4 278.941L1294.83 280.575L1292.99 279.907L1291.14 279.055L1289.48 279.979L1287.58 278.685L1286.21 282.028L1284.19 279.773L1282.33 278.903L1281.02 282.847L1279.2 282.3L1277.51 282.923L1275.82 283.533L1273.89 282.061L1272.2 282.661L1270.45 282.781L1268.43 280.452L1267.06 283.825L1265.36 284.425L1263.57 284.115L1261.53 281.704L1260.14 285.035L1258.21 283.56L1256.64 285.217L1254.66 283.433L1253.02 285.028L1251.3 282.457L1249.52 283.401L1247.78 283.148L1245.97 284.973L1244.32 282.315L1242.48 285.052L1240.84 282.12L1238.97 285.68L1237.34 282.56L1235.56 283.619L1233.85 282.655L1232.13 282.104L1230.4 281.633L1228.53 285.165L1226.84 283.821L1225.09 283.996L1223.38 282.952L1221.66 282.199L1219.9 282.723L1218.17 282.331L1216.43 281.829L1214.7 281.407L1212.89 283.133L1211.21 281.373L1209.38 283.445L1207.62 283.813L1205.86 284.175L1204.21 281.339L1202.39 283.319L1200.72 281.149L1198.9 283.399L1197.18 282.464L1195.4 283.575L1193.7 282.327L1191.94 282.617L1190.17 283.38L1188.52 280.459L1186.73 281.947L1184.95 282.901L1183.27 280.676L1181.53 280.401L1179.78 280.633L1178.01 281.104L1176.21 282.507L1174.55 280.081L1172.76 281.132L1170.97 282.269L1169.19 283.141L1167.56 279.796L1165.74 282.024L1164.05 280.323L1162.34 279.307L1160.51 281.551L1158.78 280.925L1157.01 281.408L1155.34 279.211L1153.52 281.248L1151.77 281.052L1149.98 282.252L1148.27 281.131L1146.48 282.309L1144.78 281.047L1143 281.92L1141.3 280.427L1139.56 280.161L1137.75 281.887L1136.08 279.349L1134.25 281.841L1132.53 280.917L1130.85 278.828L1129.09 279.029L1127.31 280.021L1125.57 279.648L1123.8 280.173L1122.01 281.207L1120.27 281.037L1118.5 281.607L1116.79 280.817L1115.1 278.995L1113.33 279.891L1111.58 279.819L1109.82 280.388L1108.12 278.737L1106.36 278.784L1104.56 280.327L1102.89 277.891L1101.14 278.043L1099.42 277.088L1097.55 280.592L1095.8 280.708L1094.14 277.831L1092.39 277.857L1090.55 280.288L1088.82 279.859L1087.1 278.779L1085.38 277.791L1083.62 277.987L1081.89 277.36L1080.09 278.543L1078.37 277.473L1076.63 277.012L1074.85 277.583L1073.15 276.121L1071.31 278.811L1069.58 277.912L1067.87 276.487L1066.01 279.753L1064.29 278.523L1062.59 276.875L1060.84 276.576L1059.08 276.711L1057.32 276.556L1055.23 275.496L1053.92 278.115L1052.25 278.589L1050.3 278.221L1048.95 279.644L1047.65 281.171L1045.29 279.631L1043.57 279.955L1042.03 280.804L1040.47 281.593L1038.83 282.148L1037.49 283.608L1035.49 283.112L1033.96 283.988L1032.34 284.608L1030.86 285.633L1029.21 286.14L1028.14 288.365L1026.48 288.872L1024.37 288.053L1023.12 289.784L1021.03 289.021L1018.83 287.943L1017.48 289.356L1015.59 289.189L1015.11 293.119L1012.26 290.169L1011.53 293.393L1009.67 293.3L1008.28 294.601L1006.62 295.099L1004.3 293.652L1003.42 296.423L1001.43 295.945L999.975 297.015L998.48 297.991L996.252 296.828L994.919 298.288L993.513 299.547L991.231 298.236L989.781 299.349L987.96 299.38L986.319 299.931L985.43 302.683L983.136 301.344L981.927 303.176L979.733 302.129L979.119 305.687L977.075 305.072L975.192 304.936L973.725 306.016L971.473 304.8L970.236 306.547L969.056 308.472L967.416 309.041L965.114 307.687L963.284 307.692L961.963 309.2L960.167 309.312L958.809 310.707L956.563 309.521L955.248 311.047L953.864 312.384L952.045 312.449L950.788 314.152L949.089 314.569L947.588 315.583L945.292 313.765L943.878 315.757L942.243 317.123L940.42 316.347L938.736 317.139L936.924 316.468L934.978 314.276L933.409 316.397L931.796 318.011L929.871 316.073L928.092 315.829L926.549 318.272L924.8 318.377L922.978 317.619L921.143 316.728L919.444 317.357L917.625 316.647L915.828 316.159L914.367 319.516L912.542 318.728L910.88 319.821L908.936 317.711L907.285 318.933L905.463 318.176L903.594 316.895L901.875 317.323L900.103 317.137L898.42 317.999L896.832 319.931L895.193 321.3L893.291 319.619L891.409 318.163L889.666 318.259L888.185 321.339L886.285 319.645L884.657 321.059L882.816 320.047L881.192 321.539L879.381 320.94L877.744 322.341L876.016 322.68L874.203 322.033L872.51 322.737L870.696 322.068L868.969 322.411L867.034 320.401L865.315 320.883L863.54 320.704L862.101 324.335L860.16 322.252L858.281 320.911L856.635 322.212L855.001 323.643L853.14 322.495L851.603 325.056L849.813 324.737L847.88 322.793L846.264 324.449L844.551 325.008L842.804 325.137L840.92 323.709L839.391 326.391L837.608 326.148L835.809 325.756L833.869 323.765L832.368 326.752L830.313 323.471L828.759 325.933L827.611 326.116L826.715 327.236L827.831 328.971L827.448 330.704L828.214 332.436L825.17 334.169L827.308 335.904L825.851 337.639L827.583 339.373L825.963 341.109L825.363 342.845L825.896 344.58L827.503 346.315L828.659 348.048L827.014 349.783L825.544 351.519L828.51 353.255L825.844 354.992L826 356.724L825.892 358.456L827.307 360.185L827.495 361.916L826.938 363.645L828.412 365.375L827.865 367.104L827.664 368.837L826.088 370.573L825.442 372.312L827.34 374.047L828.883 375.781L826.631 377.515L826.34 379.248L827.655 380.983L825.656 382.719L826.288 384.459L827.663 386.196L825.648 387.931L826.411 389.667L825.207 391.407L825.724 393.145L828.646 394.881L827.28 396.62L827.944 398.361L827.953 400.1L828.34 401.84L825.104 403.58L827.452 405.32L825.385 407.056L827.849 408.792L827.014 410.535L828.933 412.273L826.672 414.016L826.828 415.76L827.971 417.5L825.431 419.245L828.004 420.993L827.347 422.347L828.695 424.039L830.438 422.656L832.18 422.395L833.924 423.135L835.667 421.647L837.411 422.093L839.153 424.66L840.896 422.107L842.64 422.58L844.383 422.903L846.125 421.581L847.868 422.448L849.612 423.751L851.355 422.277L853.097 422.572L854.84 423.963L856.583 420.979L858.327 423.848L860.069 422.331L861.812 423.088L863.555 420.8L865.297 422.255L867.042 421.657L868.784 420.908L870.527 424.704L872.271 420.864L874.013 423.751L875.756 422.096L877.5 422.391L879.243 422.737L880.985 423.605L882.729 421.937L884.473 424.716L886.216 420.985L887.959 422.135L889.703 424.547L891.447 420.904L893.19 424.619L894.933 422.647L896.677 421.393L898.42 422.68L900.166 422.053L901.908 421.292L903.652 421.301L905.396 423.956L907.141 422.351L908.885 421.124L910.629 420.981L912.374 422.656L914.117 424.356L915.863 421.373L917.608 423.287L919.352 421.353L921.097 421.839L922.841 423.579L924.587 424.283L926.332 421.307L928.077 422.767L929.823 422.199L931.568 424.253L933.313 422.547L935.051 422.835L936.785 421.319L938.521 423.781L940.257 424.608L941.993 423.384L943.729 421.087L945.465 424.039L947.201 424.58L948.939 421.824L950.675 423.504L952.411 424.367L954.147 423.041L955.884 424.679L957.62 421.184L959.357 424.337L961.094 422.551L962.831 423.415L964.567 422.724L966.304 423.353L968.04 421.303L969.777 423.125L971.515 422.293L973.252 420.968L974.99 422.556L976.727 424.237L978.464 423.076L980.201 423.001L981.94 422.504L983.677 423.351L985.416 422.196L987.153 424.633L988.892 421.152L990.631 421.325L992.369 422.736L994.108 423.528L995.847 422.88L997.587 420.768L999.326 424.488L1001.06 422.191L1002.8 423.296L1004.54 421.009L1006.28 423.048L1008.02 424.62L1009.76 420.985L1011.5 424.724L1013.24 420.903L1014.98 422.417L1016.73 422.816L1018.47 424.308L1020.21 424.096L1021.95 423.457L1023.69 421.399L1025.43 422.133L1027.17 424.141L1028.92 422.269L1030.66 421.347L1032.4 420.82L1034.15 422.779L1035.89 421.221L1037.63 420.933L1039.38 421.624L1041.12 423.203L1042.86 421.659L1044.61 421.8L1046.35 423.109L1048.1 421.397L1049.84 422.115L1051.59 421.328L1053.33 422.176L1055.08 421.204L1056.83 422.711L1058.57 424.3L1060.32 421.608L1062.07 422.724L1063.81 420.876L1065.56 424.464L1067.3 422.261L1069.05 423.717L1070.79 421.527L1072.54 424.652L1074.28 423.992L1076.03 423.587L1077.77 422.793L1079.52 422.052L1081.26 421.483L1083.01 421.597L1084.75 424.461L1086.49 423.283L1088.24 423.076L1089.98 422.943L1091.72 424.223L1093.47 423.855L1095.21 422.723L1096.95 424.3L1098.69 420.88L1100.43 424.707L1102.18 421.213L1103.92 424.461L1105.66 421.605L1107.4 424.372L1109.14 422.773L1110.89 423.721L1112.63 424.423L1114.37 423.463L1116.11 423.176L1117.85 421.597L1119.59 420.977L1121.33 424.051L1123.07 423.485L1124.81 424.525L1126.55 422.775L1128.29 424.588L1130.03 421.551L1131.77 421.171L1133.51 423.987L1135.25 420.995L1136.99 423.401L1138.73 420.959L1140.47 423.935L1142.21 422.548L1143.95 422.625L1145.69 421.448L1147.43 422.416L1149.17 421.159L1150.91 421.904L1152.65 424.196L1154.39 422.967L1156.13 422.711L1157.87 420.784L1159.61 424.715L1161.35 421.189L1163.09 423.052L1164.83 423.851L1166.57 424.159L1168.31 421.283H1170.05L1171.8 421.395L1173.54 424.36L1175.28 421.892L1177.02 420.948L1178.76 424.717L1180.5 421.844L1182.24 422.399L1183.98 423.777L1185.72 424.201L1187.46 422.447L1189.2 422.788L1190.94 422.583L1192.69 424.241L1194.43 424.156L1196.17 424.203L1197.91 421.953L1199.65 423.213L1201.39 421.799L1203.14 423.329L1204.88 421.356L1206.62 424.551L1208.37 421.225L1210.11 423.717L1211.85 421.279L1213.59 423.097L1215.34 424.571L1217.08 421.177L1218.83 423.041L1220.57 420.823L1222.32 422.253L1224.06 422.372L1225.81 422.881L1227.55 424.068L1229.3 421.331L1231.04 421.717L1232.79 422.981L1234.54 424.407L1236.28 421.824L1238.03 423.76L1239.78 423.999L1241.52 423.276L1243.27 422.64L1245.02 424.075L1246.77 421.796L1248.51 422.48L1250.26 424.737L1252.01 423.911L1253.76 420.933L1255.5 424.705L1257.25 421.125L1258.99 423.623L1260.74 423.585L1262.49 422.173L1264.23 421.345L1265.98 422.056L1267.72 422.504L1269.47 421.551L1271.21 424.061L1272.95 423.012L1274.7 424.631L1276.44 423.228L1278.19 421.369L1279.93 423.891L1281.67 422.007L1283.42 423.127L1285.16 424.451L1286.9 423.675L1288.65 424.599L1290.39 423.123L1292.13 422.229L1293.88 421.339L1295.62 423.656L1297.36 422.24L1299.11 422.597L1300.85 421.845L1302.59 424.243L1304.33 422.719L1306.08 423.883L1307.82 420.825L1309.56 423.547L1311.31 423.095L1313.05 422.181L1314.79 421.077L1316.53 421.609L1318.28 424.407L1320.02 422.139L1321.76 424.031L1323.51 421.101L1325.25 421.671L1326.99 420.852L1328.73 421.253L1330.48 422.741L1332.22 422.735L1333.97 424.493L1335.71 421.171L1337.45 421.029L1339.2 422.627L1340.94 423.289L1342.69 424.104L1344.43 422.876L1346.18 423.56L1347.92 424.461L1349.67 420.751L1351.41 421.776L1353.16 424.679L1354.91 420.791L1356.65 423.229L1358.4 422.153L1360.15 423.688L1361.89 422.393L1363.64 423.835L1365.39 422.477L1367.14 422.5L1368.89 421.349L1370.64 422.601L1372.39 423.816L1374.13 423.005L1375.88 420.813L1377.63 422.813L1379.38 424.409L1381.12 421.107L1382.87 422.225L1384.62 423.591L1386.36 422.916L1388.11 421.129L1389.86 422.245L1391.6 424.665L1393.35 422.947L1395.09 422.749L1396.84 421.037L1398.58 424.48L1400.33 421.513L1402.07 422.544L1403.82 421.539L1405.56 422.728L1407.31 422.013L1409.05 422.305L1410.8 421.323L1412.54 424.476L1414.29 422.383L1416.03 422.239L1417.78 424.695L1419.52 420.959L1421.27 423.036L1423.01 423.165L1424.76 424.631L1426.5 424.225L1428.25 421.216L1429.99 423.857L1431.74 422.203L1433.48 422.703L1435.23 424.395L1436.97 421.632L1438.72 421.096L1440.47 422.839L1442.21 421.324L1443.96 422.329L1445.71 420.86L1447.45 423.955L1449.2 423.38L1450.95 423.8L1452.7 422.511L1454.44 423.393L1456.19 422.836L1457.94 423.016L1459.69 422.104L1461.44 423.133L1463.19 424.647L1464.94 422.955L1466.69 421.913L1468.44 422.959L1470.18 422.416L1471.93 421.348L1473.68 422.839L1475.43 423.337L1477.17 423.159L1478.92 421.459L1480.67 423.659L1482.41 423.108L1484.16 423.449L1485.91 422.969L1487.65 422.765L1489.4 423.119L1491.15 421.651L1492.89 421.147L1494.64 423.996L1496.38 420.936L1498.13 420.759L1499.88 424.375L1501.62 422.204L1503.37 423.741L1505.11 422.58L1506.86 422.209L1508.61 422.156L1510.36 424.567L1512.1 423.796L1513.85 422.051L1515.6 422.432L1517.35 420.949L1519.09 422.577L1520.84 422.591L1522.59 421.915L1524.34 421.183L1526.09 422.357L1527.84 422.12L1529.59 424.503L1531.34 421.239L1533.09 421.4L1534.84 421.873L1536.59 423.685L1538.33 421.532L1540.08 422.779L1541.83 422.476L1543.58 422.581L1545.33 422.613L1547.07 421.388L1548.82 421.673L1550.57 423.091L1552.31 420.943L1554.06 422.639L1555.81 423.429L1557.56 423.765L1559.3 423.855L1561.05 421.415L1562.8 422.532L1564.55 424.036L1566.29 420.843L1568.04 423.967L1569.79 422.844L1571.54 422.416L1573.29 422.289L1575.04 421.335L1576.79 421.297L1578.54 422.297L1580.29 422.772L1582.04 420.939L1583.79 423.78L1585.54 420.989L1587.29 424.053L1589.03 420.951L1590.78 421.025L1592.53 423.593L1594.28 422.903L1596.03 422.091L1597.77 422.636L1599.52 421.363L1601.27 422.857L1603.02 421.453L1604.77 421.365L1606.51 424.161L1608.26 423.051L1610.01 423.009L1611.75 421.784L1613.5 422.657L1615.24 423.249L1616.98 421.381L1618.72 421.449L1620.46 421.845L1622.2 422.192L1623.94 421.547L1625.69 422.716L1627.43 421.576L1629.17 424.387L1630.91 423.073L1632.66 423.289L1634.4 421.661L1636.15 424.479L1637.89 423.517L1639.64 423.683L1641.39 423.223L1643.13 424.299L1644.88 421.617L1646.63 423.66L1648.38 423.884L1650.13 423.755L1651.89 422.897L1653.64 421.832L1655.39 422.439L1657.13 424.648L1658.88 424.311L1660.63 422.493L1662.38 422.624L1664.12 424.573L1665.87 424.54L1667.62 423.853L1669.36 423.621L1671.11 424.004L1672.85 424.604L1674.6 423.769L1676.34 422.903L1678.09 423.709L1679.84 421.365L1681.58 421.113L1683.33 423.059L1685.07 423.603L1686.82 422.569L1688.57 420.904L1690.32 424.231L1692.07 424.176L1693.82 422.072L1695.57 421.304L1697.33 421.759L1699.08 421.613L1700.83 423.833L1702.58 422.645L1704.33 422.692L1706.08 421.743L1707.83 421.337L1709.58 424.575L1711.33 420.769L1713.07 423.909L1714.82 421.047L1716.57 423.459L1718.32 423.512L1720.07 423.947L1721.82 424.523L1723.57 424.177L1725.32 423.02L1727.07 423.324L1728.83 421.829L1730.58 422.419L1732.33 424.148L1734.08 421.613L1735.83 422.869L1737.58 423.608L1739.33 421.635L1741.08 423.421L1742.83 423.228L1744.58 422.603L1746.33 423.853L1748.09 420.867L1749.84 423.212L1751.59 422.248L1753.35 422.769H1755.1L1756.85 424.66L1758.6 422.975L1760.36 423.768L1762.11 423.651L1763.86 424.175L1765.61 421.495L1767.36 422.939L1769.12 423.689L1770.87 423.383L1772.63 422.784L1774.38 421.488L1776.13 424.737L1777.88 422.877L1779.64 423.421L1781.39 420.844L1783.15 421.536L1784.9 424.431L1786.65 422.455L1788.4 424.149L1790.15 421.251L1791.89 424.136L1793.64 421.896L1795.39 423.7L1797.14 422.455L1798.89 421.076L1800.65 420.969L1802.41 424.003L1804.16 422.677L1805.91 424.167L1807.66 422.24L1809.41 424.06L1811.17 421.653L1812.93 421.783L1814.68 421.764L1816.43 424.492L1818.19 421.384L1819.95 420.795L1821.7 421.356L1823.46 423.155L1825.22 422.159L1826.97 423.659L1828.73 423.121L1830.49 420.836L1832.25 423.631L1834.01 422.148L1835.76 424.376L1837.51 424.708L1839.28 422.096L1841.03 424.401L1842.79 421.059L1844.56 423.1L1846.31 421.089L1848.08 421.864L1849.84 421.8L1851.98 423.119L1851.31 420.997L1849.64 419.255L1853.59 417.508L1850.65 415.763L1851.73 414.015L1849.66 412.269L1852 410.523L1851.92 408.779L1852.15 407.035L1850.38 405.291L1853.13 403.548L1852.74 401.805L1852.85 400.063L1852.08 398.321L1851.91 396.579L1852.12 394.836L1853.49 393.093L1851.71 391.349L1852.11 389.605L1852.34 387.861L1851.31 386.115L1852.37 384.369L1852.82 382.62L1850.72 380.873L1852.45 379.127L1851.24 377.38L1852.41 375.636L1851.69 373.891L1853.59 372.148L1852.25 370.403L1852.13 368.659L1850.87 366.913L1853.1 365.168L1852.45 363.423L1851.56 361.675L1852.77 359.928L1852.65 358.179L1852.45 356.432L1849.78 354.685L1849.68 352.939L1852.67 351.195L1851.64 349.448L1852.7 347.703L1851.41 345.956L1850.45 344.208L1850.93 342.459L1852.42 340.711L1853.55 338.963L1852.36 337.216L1851.38 335.469L1850.92 333.723L1849.79 331.976L1852.98 330.227L1851.61 328.477L1850.07 326.729L1852 324.987L1852.57 323.243L1852.44 321.501L1852.19 319.76L1851.61 318.017L1849.75 316.275L1851.5 314.529L1853.23 312.781L1850.02 311.031L1852.69 309.281L1852.29 307.536L1852.71 305.791L1851.59 304.045L1849.83 302.297L1850.49 300.547L1850.53 298.796L1850.86 297.047L1851.34 295.3L1850.01 293.551L1850.83 291.799L1851.61 290.047L1850.36 288.299L1851.48 286.547L1850.9 284.795L1853.39 283.044L1851.19 281.291L1849.76 279.539L1851.43 277.785L1851.23 276.037L1853.57 274.288L1851.14 272.533L1850.14 270.781L1851.92 269.028L1852.14 267.271L1850.76 265.517L1850.83 263.76L1852.77 261.707L1850.89 260.908Z" fill="#012912"/>
<path d="M427.236 202.693C427.236 202.693 450.796 252.064 433.13 296.437" stroke="#011D0D" stroke-miterlimit="10" stroke-linecap="round" stroke-linejoin="round"/>
<path d="M429.38 208.112C429.38 208.112 428.457 197.306 424.382 193.923C420.307 190.539 418.743 190.437 418.743 190.437L420.64 194.134L419.511 194.029C419.511 194.029 419.896 197.434 422.408 199.1L420.639 199.275C420.639 199.275 421.051 205.821 429.38 208.112Z" fill="#012912"/>
<path d="M406.748 209.632C406.748 209.632 445.003 248.736 442.631 296.437" stroke="#011D0D" stroke-miterlimit="10" stroke-linecap="round" stroke-linejoin="round"/>
<path d="M410.529 214.067C410.529 214.067 406.162 204.14 401.212 202.256C396.262 200.372 394.749 200.78 394.749 200.78L397.74 203.664L396.637 203.931C396.637 203.931 398.103 207.029 401.018 207.793L399.401 208.529C399.401 208.529 401.906 214.592 410.529 214.067Z" fill="#012912"/>
<path d="M396.936 218.678C396.936 218.678 419.804 265.099 415.101 310.728" stroke="#011D0D" stroke-miterlimit="10" stroke-linecap="round" stroke-linejoin="round"/>
<path d="M399.159 223.818C399.159 223.818 396.906 213.232 393.739 210.298C390.572 207.365 389.539 207.422 389.539 207.422L391.338 210.884L390.588 210.894C390.588 210.894 391.359 214.219 393.247 215.613L392.124 215.963C392.124 215.963 393.392 222.392 399.159 223.818Z" fill="#012912"/>
<path d="M393.533 228.762C393.533 228.762 431.189 264.257 442.737 308.65" stroke="#011D0D" stroke-miterlimit="10" stroke-linecap="round" stroke-linejoin="round"/>
<path d="M397.413 232.8C397.413 232.8 391.601 223.67 387.608 222.029C383.615 220.388 382.668 220.802 382.668 220.802L385.564 223.417L384.864 223.688C384.864 223.688 386.75 226.535 389.006 227.181L388.076 227.902C388.076 227.902 391.512 233.481 397.413 232.8Z" fill="#012912"/>
<path d="M376.484 246.956C376.484 246.956 422.13 271.335 444.915 311.146" stroke="#011D0D" stroke-miterlimit="10" stroke-linecap="round" stroke-linejoin="round"/>
<path d="M381.287 249.837C381.287 249.837 373.284 242.55 369.001 242.013C364.718 241.476 363.911 242.124 363.911 242.124L367.392 243.888L366.788 244.334C366.788 244.334 369.354 246.587 371.7 246.618L370.993 247.558C370.993 247.558 375.77 252.04 381.287 249.837Z" fill="#012912"/>
<path d="M381.914 257.478C381.914 257.478 427.474 278.726 423.882 309.472" stroke="#011D0D" stroke-miterlimit="10" stroke-linecap="round" stroke-linejoin="round"/>
<path d="M386.91 260.008C386.91 260.008 378.408 253.31 374.097 253.081C369.786 252.85 369.028 253.554 369.028 253.554L372.626 255.065L372.055 255.553C372.055 255.553 374.775 257.617 377.118 257.481L376.479 258.468C376.479 258.468 381.565 262.6 386.91 260.008Z" fill="#012912"/>
<path d="M426.476 255.846C426.476 255.846 455.864 296.633 437.719 321.711" stroke="#011D0D" stroke-miterlimit="10" stroke-linecap="round" stroke-linejoin="round"/>
<path d="M429.601 260.493C429.601 260.493 425.452 250.497 421.801 248.192C418.151 245.887 417.146 246.131 417.146 246.131L419.549 249.207L418.813 249.353C418.813 249.353 420.179 252.482 422.29 253.507L421.249 254.057C421.249 254.057 423.671 260.145 429.601 260.493Z" fill="#012912"/>
<path d="M444.368 237.098C444.368 237.098 454.159 286.406 427.236 301.683" stroke="#011D0D" stroke-miterlimit="10" stroke-linecap="round" stroke-linejoin="round"/>
<path d="M445.28 242.624C445.28 242.624 445.658 231.807 443.295 228.194C440.932 224.581 439.916 224.386 439.916 224.386L440.824 228.18L440.093 228.008C440.093 228.008 440.036 231.422 441.531 233.231L440.356 233.3C440.356 233.3 440.031 239.843 445.28 242.624Z" fill="#012912"/>
<path d="M400.853 250.59C400.853 250.59 435.69 288.855 443.816 334" stroke="#011D0D" stroke-miterlimit="10" stroke-linecap="round" stroke-linejoin="round"/>
<path d="M404.413 254.913C404.413 254.913 399.315 245.365 395.459 243.425C391.603 241.484 390.627 241.823 390.627 241.823L393.315 244.652L392.596 244.869C392.596 244.869 394.26 247.852 396.46 248.667L395.478 249.315C395.478 249.315 398.477 255.141 404.413 254.913Z" fill="#012912"/>
<path d="M426.319 223.97C426.319 223.97 443.948 272.622 434.259 317.459" stroke="#011D0D" stroke-miterlimit="10" stroke-linecap="round" stroke-linejoin="round"/>
<path d="M427.964 229.323C427.964 229.323 426.888 218.554 424.062 215.29C421.236 212.026 420.204 211.969 420.204 211.969L421.612 215.608L420.865 215.535C420.865 215.535 421.266 218.926 422.989 220.519L421.835 220.743C421.835 220.743 422.388 227.273 427.964 229.323Z" fill="#012912"/>
<path d="M414.544 226.101C414.544 226.101 432.173 274.753 422.485 319.589" stroke="#011D0D" stroke-miterlimit="10" stroke-linecap="round" stroke-linejoin="round"/>
<path d="M416.188 231.454C416.188 231.454 415.113 220.684 412.287 217.421C409.462 214.157 408.429 214.1 408.429 214.1L409.837 217.739L409.09 217.666C409.09 217.666 409.491 221.057 411.215 222.649L410.059 222.874C410.059 222.874 410.614 229.403 416.188 231.454Z" fill="#012912"/>
<path d="M378.953 235.436C378.953 235.436 410.512 270.335 426.179 305.021" stroke="#011D0D" stroke-miterlimit="10" stroke-linecap="round" stroke-linejoin="round"/>
<path d="M382.446 239.712C382.446 239.712 374.425 232.456 373.106 228.75C371.787 225.044 372.2 224.386 372.2 224.386L374.446 227.467L374.721 226.972C374.721 226.972 377.219 229.294 377.709 231.31L378.401 230.752C378.401 230.752 383.307 235.091 382.446 239.712Z" fill="#012912"/>
</g>
<defs>
<clipPath id="clip0_61_3739">
<rect width="1437" height="425" fill="white"/>
</clipPath>
</defs>
</svg>
