<svg width="1440" height="810" viewBox="0 0 1440 810" fill="none" xmlns="http://www.w3.org/2000/svg">
<g clip-path="url(#clip0_56_726)">
<circle cx="719" cy="415" r="933" fill="url(#paint0_radial_56_726)"/>
<path fill-rule="evenodd" clip-rule="evenodd" d="M897.108 509C863.632 572.619 796.882 616 720 616C609.543 616 520 526.457 520 416C520 397.414 522.535 379.419 527.279 362.344L766 351L532.036 347.508L532.059 347.445L708.5 330H542H539.383C571.54 262.584 640.33 216 720 216C830.457 216 920 305.543 920 416C920 440.163 915.715 463.325 907.864 484.767L738 492.846L903.654 495.321C903.403 495.901 903.149 496.479 902.893 497.057L782.194 509H897.108Z" fill="#09E765" fill-opacity="0.8"/>
<path d="M591.862 210.216C591.94 210.275 592.008 210.347 592.065 210.431L605.575 232.028C605.81 232.389 605.694 232.892 605.332 233.126L594.432 240.11L577.584 253.455C577.248 253.709 576.768 253.671 576.481 253.351L566.27 241.713L561.516 246.313L572.167 257.613C572.464 257.92 572.461 258.407 572.158 258.726C570.686 260.237 569.136 261.688 567.629 263.111C565.026 265.575 562.328 268.11 560.05 270.924L548.907 284.158C548.629 284.498 548.172 284.537 547.8 284.275L527.617 268.735C527.436 268.598 527.34 268.403 527.312 268.198C527.293 267.98 527.356 267.763 527.497 267.605L536.876 256.454C539.852 252.826 543.08 249.003 546.788 245.646C547.108 245.359 547.572 245.364 547.891 245.668L560.39 257.943C560.551 258.106 560.637 258.314 560.633 258.535C560.628 258.755 560.53 258.966 560.354 259.117C557.194 261.913 554.44 265.22 551.787 268.421C551.032 269.335 550.274 270.226 549.506 271.13C549.216 271.46 548.8 271.551 548.383 271.215L541.701 265.554C541.372 265.263 541.326 264.76 541.604 264.421L547.458 257.458C547.608 257.286 547.813 257.177 548.034 257.182C548.265 257.173 548.498 257.269 548.633 257.412L554.244 263.035C555.639 261.466 557.095 259.923 558.657 258.481L547.311 247.346C543.912 250.51 540.903 254.072 538.106 257.489L529.266 268.011L548.179 282.567L558.803 269.937C561.153 267.055 563.88 264.481 566.526 261.988C567.827 260.756 569.171 259.495 570.454 258.207L559.8 246.884C559.49 246.568 559.503 246.068 559.819 245.758L565.748 240.012C565.901 239.864 566.109 239.778 566.343 239.792C566.563 239.796 566.764 239.908 566.912 240.061L577.178 251.762L593.495 238.849L603.799 232.248L591.135 212.006L579.548 219.466L568.808 227.955L578.829 240.327C580.159 239.299 581.463 238.252 582.764 237.182C583.096 236.904 583.442 236.637 583.774 236.36L578.724 230.267C578.585 230.1 578.522 229.889 578.549 229.665C578.566 229.455 578.678 229.254 578.857 229.125C579.486 228.645 580.112 228.143 580.738 227.64C582.469 226.245 584.265 224.817 586.247 223.654C586.599 223.432 587.075 223.529 587.31 223.89L592.303 231.08C592.431 231.259 592.472 231.474 592.432 231.687C592.392 231.901 592.268 232.092 592.076 232.211C589.167 234.057 586.426 236.274 583.792 238.43C582.27 239.658 580.76 240.896 579.186 242.084C578.85 242.338 578.358 242.29 578.08 241.958L567.066 228.345C566.928 228.178 566.864 227.967 566.891 227.743C566.908 227.533 567.02 227.332 567.199 227.203L578.64 218.166L590.97 210.211C591.152 210.105 591.367 210.064 591.581 210.104C591.649 210.095 591.772 210.147 591.862 210.216ZM590.488 231.271L586.39 225.371C584.749 226.407 583.204 227.638 581.701 228.839C581.284 229.175 580.876 229.497 580.459 229.832L584.997 235.312C586.773 233.911 588.598 232.526 590.488 231.271ZM553.19 264.21L548.127 259.126L543.348 264.807L548.799 269.432C549.387 268.738 549.975 268.044 550.55 267.34C551.425 266.293 552.301 265.247 553.19 264.21Z" fill="black" fill-opacity="0.08"/>
<path d="M604.451 231.765L605.297 233.12C583.107 247.035 564.141 264.191 548.924 284.11L547.644 283.139C562.992 263.075 582.102 245.783 604.451 231.765Z" fill="black" fill-opacity="0.08"/>
<path d="M590.867 210.051L591.713 211.406C566.941 226.926 545.721 246.139 528.624 268.481L527.344 267.51C544.559 245.013 565.923 225.664 590.867 210.051Z" fill="black" fill-opacity="0.08"/>
<path d="M674.397 177.837C674.552 177.955 674.668 178.124 674.696 178.329L679.494 203.354C679.535 203.569 679.494 203.783 679.367 203.951C679.252 204.129 679.06 204.248 678.846 204.289L670.352 205.847C668.649 206.266 666.936 206.778 665.21 207.281C664.186 207.584 663.162 207.886 662.113 208.169C660.227 208.775 658.229 209.315 656.318 209.82C652.779 210.78 649.139 211.766 645.768 213.282C645.56 213.368 645.33 213.376 645.132 213.288C644.922 213.189 644.761 213.026 644.687 212.828L639.389 198.257L633.227 200.689L639.032 215.074C639.105 215.272 639.101 215.493 639.035 215.687C638.946 215.884 638.792 216.033 638.584 216.119L630.552 219.27L622.946 223.173C621.319 224.056 619.627 224.89 617.948 225.734C614.554 227.415 611.03 229.161 607.921 231.405C607.742 231.534 607.518 231.587 607.291 231.537C607.077 231.497 606.886 231.373 606.764 231.158L593.564 209.369C593.352 209.004 593.439 208.54 593.787 208.296C597.361 205.814 601.279 203.818 605.07 201.909L619.597 194.521C619.792 194.425 620.01 194.407 620.217 194.482C620.424 194.558 620.595 194.708 620.682 194.916L627.873 210.883C628.043 211.277 627.885 211.727 627.507 211.929L612.983 219.34C612.593 219.532 612.123 219.4 611.908 219.012L607.749 211.315C607.643 211.132 607.635 210.902 607.688 210.698C607.754 210.503 607.891 210.322 608.086 210.226L616.18 206.083C616.375 205.986 616.615 205.965 616.823 206.041C617.03 206.117 617.201 206.267 617.287 206.475L620.472 213.739L626.121 210.857L619.593 196.351L605.802 203.36C602.284 205.151 598.655 206.98 595.327 209.22L607.688 229.619C610.727 227.546 614.023 225.913 617.222 224.328C618.892 223.497 620.551 222.679 622.178 221.796L629.881 217.845L637.231 214.95L631.426 200.565C631.353 200.367 631.357 200.146 631.423 199.952C631.512 199.754 631.665 199.606 631.874 199.519L639.552 196.487C639.75 196.413 639.971 196.418 640.168 196.506C640.366 196.595 640.527 196.758 640.591 196.969L645.873 211.507C649.122 210.124 652.551 209.202 655.865 208.296C657.763 207.781 659.73 207.257 661.615 206.651C662.675 206.355 663.698 206.053 664.712 205.763C666.461 205.257 668.207 204.728 669.977 204.3L677.725 202.868L673.233 179.398C665.76 180.55 658.379 182.708 651.231 184.799C649.694 185.242 648.17 185.694 646.632 186.136L651.476 201.279L657.57 199.528L655.068 192.009C655.005 191.797 655.009 191.577 655.121 191.376C655.222 191.189 655.398 191.037 655.61 190.973L664.356 188.466C664.567 188.402 664.791 188.429 664.982 188.554C665.156 188.645 665.311 188.844 665.352 189.059L667.41 197.565C667.502 197.981 667.269 198.395 666.846 198.523L651.171 203.023C650.758 203.137 650.321 202.907 650.184 202.498L644.853 185.825C644.789 185.613 644.816 185.389 644.918 185.202C645.02 185.014 645.196 184.863 645.397 184.812C647.191 184.3 648.985 183.787 650.776 183.252C658.213 181.075 665.906 178.827 673.752 177.694C674.025 177.656 674.229 177.709 674.397 177.837ZM665.715 197.196L664.044 190.245L656.913 192.288L659.175 199.076L665.715 197.196ZM619.066 214.464L616.196 207.887L609.583 211.26L612.993 217.555L619.066 214.464Z" fill="black" fill-opacity="0.08"/>
<path d="M678.559 202.707L678.856 204.276C653.661 209.108 629.798 218.25 607.882 231.457L607.056 230.076C629.134 216.79 653.196 207.574 678.559 202.707Z" fill="black" fill-opacity="0.08"/>
<path d="M673.743 177.545L674.04 179.114C645.843 184.519 619.132 194.759 594.617 209.537L593.791 208.156C618.455 193.288 645.355 182.988 673.743 177.545Z" fill="black" fill-opacity="0.08"/>
<path d="M763.061 177.319C763.293 177.495 763.415 177.791 763.365 178.099L758.823 203.167C758.783 203.381 758.658 203.571 758.479 203.7C758.287 203.819 758.073 203.86 757.846 203.81C753.624 202.745 749.2 202.32 744.916 201.9C743.567 201.773 742.218 201.645 740.865 201.495L732.278 200.599C730.513 200.482 728.661 200.481 726.866 200.484C725.812 200.478 724.76 200.495 723.702 200.466C723.261 200.457 722.91 200.089 722.919 199.647L723.224 184.135L716.604 184.082L716.841 199.577C716.837 199.798 716.751 200.018 716.598 200.167C716.444 200.315 716.223 200.392 716.003 200.387C712 200.16 707.922 200.569 703.98 200.959C702.279 201.134 700.588 201.296 698.89 201.413L690.296 202.163L681.883 203.722C681.669 203.763 681.455 203.722 681.287 203.595C681.129 203.455 680.99 203.288 680.949 203.074L676.502 177.988C676.433 177.569 676.702 177.162 677.118 177.07C684.236 175.446 691.599 174.842 698.709 174.249C701.183 174.049 703.666 173.836 706.134 173.59C706.351 173.572 706.536 173.651 706.727 173.775C706.885 173.916 706.994 174.121 707.012 174.338L707.974 191.83C707.998 192.256 707.668 192.637 707.256 192.67L691.01 194.11C690.575 194.146 690.197 193.839 690.151 193.417L689.042 184.734C689.014 184.529 689.086 184.299 689.214 184.131C689.341 183.963 689.546 183.854 689.764 183.836L698.825 183.034C699.042 183.015 699.272 183.088 699.431 183.229C699.602 183.379 699.698 183.574 699.706 183.805L700.051 191.724L706.366 191.159L705.485 175.277C703.28 175.498 701.07 175.674 698.872 175.86C692.058 176.412 685.029 177.005 678.249 178.478L682.402 202.018L690.104 200.591L698.788 199.829C700.486 199.712 702.165 199.54 703.856 199.378C707.58 199.006 711.421 198.642 715.272 198.774L715.028 183.313C715.023 183.106 715.109 182.886 715.262 182.737C715.415 182.589 715.623 182.502 715.831 182.497L724.083 182.547C724.303 182.551 724.511 182.627 724.649 182.793C724.798 182.947 724.884 183.155 724.88 183.376L724.574 198.888C725.35 198.886 726.116 198.896 726.891 198.894C728.709 198.888 730.584 198.886 732.443 199.013L741.053 199.906C742.405 200.056 743.744 200.197 745.081 200.315C749.141 200.707 753.331 201.117 757.411 202.075L761.665 178.622C761.094 178.515 760.533 178.395 759.973 178.275C758.424 177.955 756.874 177.634 755.315 177.408L734.43 175.246L733.503 191.121L739.811 191.773L740.186 183.871C740.191 183.65 740.302 183.45 740.456 183.301C740.622 183.163 740.843 183.086 741.067 183.113L750.111 184.05C750.335 184.078 750.513 184.192 750.661 184.345C750.8 184.512 750.854 184.736 750.823 184.937L749.674 193.617C749.617 194.042 749.232 194.361 748.798 194.316L732.576 192.638C732.154 192.603 731.848 192.228 731.857 191.787L732.877 174.312C732.882 174.092 732.993 173.891 733.16 173.753C733.326 173.614 733.537 173.55 733.771 173.565L755.525 175.816C757.146 176.069 758.718 176.386 760.303 176.713C761.113 176.88 761.936 177.056 762.756 177.21C762.86 177.207 762.97 177.25 763.061 177.319ZM748.171 192.619L749.11 185.531L741.732 184.759L741.393 191.915L748.171 192.619ZM698.434 191.841L698.115 184.694L690.725 185.36L691.639 192.449L698.434 191.841Z" fill="black" fill-opacity="0.08"/>
<path d="M758.176 202.248L757.895 203.827C732.704 199.314 707.131 199.276 681.883 203.722L681.61 202.15C707.036 197.656 732.794 197.692 758.176 202.248Z" fill="black" fill-opacity="0.08"/>
<path d="M762.754 177.025L762.473 178.604C734.277 173.542 705.671 173.503 677.428 178.487L677.154 176.915C705.576 171.884 734.381 171.93 762.754 177.025Z" fill="black" fill-opacity="0.08"/>
<path d="M846.02 208.848C846.162 208.956 846.265 209.115 846.313 209.294C846.364 209.495 846.336 209.719 846.212 209.91L832.883 231.608C832.667 231.973 832.186 232.097 831.81 231.894C830.135 230.989 828.465 230.048 826.8 229.13C818.554 224.563 810.043 219.836 801.077 216.515C800.883 216.449 800.712 216.298 800.625 216.09C800.539 215.882 800.543 215.661 800.609 215.467L806.515 201.109L800.41 198.553L795.035 213.07C794.893 213.472 794.448 213.683 794.036 213.554L791.102 212.59C781.32 209.404 771.221 206.098 760.918 204.431C760.704 204.391 760.514 204.266 760.398 204.097C760.269 203.918 760.228 203.703 760.268 203.489L765.166 178.489C765.207 178.275 765.331 178.084 765.513 177.978C765.692 177.85 765.907 177.809 766.111 177.862C767.757 178.215 769.388 178.536 771.031 178.866C774.114 179.474 777.303 180.102 780.401 180.905L794.375 185.196C794.579 185.249 794.75 185.399 794.846 185.594C794.943 185.79 794.961 186.007 794.895 186.201L789.466 202.856C789.337 203.267 788.895 203.502 788.483 203.373C786.601 202.82 784.726 202.232 782.863 201.654C779.608 200.63 776.242 199.562 772.888 198.748C772.684 198.695 772.503 198.558 772.387 198.389C772.281 198.206 772.24 197.992 772.294 197.788L774.383 189.292C774.489 188.883 774.893 188.619 775.32 188.7C777.294 189.078 779.209 189.695 781.061 190.286C782.078 190.61 783.096 190.934 784.119 191.222C784.336 191.285 784.517 191.422 784.614 191.618C784.71 191.813 784.741 192.04 784.665 192.247L782.127 199.751C782.539 199.88 782.937 199.999 783.349 200.128C784.958 200.637 786.568 201.146 788.198 201.629L793.128 186.49L779.963 182.447C776.94 181.68 773.774 181.049 770.714 180.438C769.333 180.164 767.952 179.89 766.559 179.607L761.971 202.99C772.108 204.715 782 207.944 791.578 211.078L793.783 211.794L799.184 197.216C799.26 197.009 799.423 196.848 799.608 196.764C799.817 196.678 800.037 196.682 800.244 196.758L807.862 199.952C808.279 200.126 808.458 200.588 808.294 200.993L802.395 215.315C811.202 218.658 819.512 223.274 827.557 227.729C829 228.539 830.439 229.326 831.892 230.123L844.386 209.766C841.795 208.269 839.12 206.829 836.519 205.426C835.118 204.668 833.73 203.921 832.339 203.15C831.006 202.464 829.69 201.73 828.351 200.999C825.705 199.521 822.974 198.019 820.122 196.893L813.489 211.351C815.363 212.101 817.247 213.001 819.204 214.099L822.408 206.897C822.497 206.7 822.67 206.525 822.881 206.462C823.093 206.398 823.326 206.412 823.514 206.514L831.507 210.849C831.695 210.951 831.834 211.117 831.897 211.328C831.961 211.539 831.944 211.75 831.819 211.941L827.603 219.617C827.39 220.005 826.912 220.152 826.524 219.939L819.355 216.047C816.839 214.585 814.483 213.449 812.126 212.557C811.909 212.494 811.757 212.318 811.671 212.109C811.584 211.901 811.598 211.668 811.687 211.47L818.987 195.543C819.155 195.161 819.604 194.972 819.996 195.127C823.205 196.32 826.223 197.979 829.131 199.595C830.447 200.329 831.751 201.054 833.084 201.74C834.488 202.52 835.876 203.268 837.276 204.025C840.117 205.569 843.054 207.147 845.887 208.808C845.968 208.808 845.994 208.828 846.02 208.848ZM826.648 218.139L830.097 211.876L823.578 208.335L820.666 214.883L826.648 218.139ZM780.637 199.272L782.931 192.52C782.17 192.288 781.395 192.047 780.631 191.793C779.057 191.291 777.434 190.772 775.82 190.403L774.1 197.366C776.287 197.947 778.483 198.595 780.637 199.272Z" fill="black" fill-opacity="0.08"/>
<path d="M832.616 230.509L831.784 231.874C809.762 218.543 785.915 209.306 760.908 204.444L761.212 202.862C786.401 207.781 810.429 217.074 832.616 230.509Z" fill="black" fill-opacity="0.08"/>
<path d="M846.018 208.663L845.186 210.027C820.557 195.085 793.848 184.735 765.83 179.278L766.134 177.696C794.357 183.207 821.237 193.625 846.018 208.663Z" fill="black" fill-opacity="0.08"/>
<path d="M866.496 222.981C868.551 224.541 870.56 226.187 872.481 227.951C872.788 228.244 872.83 228.725 872.563 229.051L861.489 242.624C861.348 242.782 861.156 242.901 860.939 242.919C860.721 242.937 860.501 242.852 860.346 242.734L854.094 237.5L847.415 232.962C847.257 232.821 847.118 232.655 847.077 232.441C847.036 232.226 847.09 232.022 847.214 231.831L852.242 224.669C852.494 224.31 852.991 224.219 853.349 224.471L860.832 229.64C860.997 229.745 861.132 229.97 861.173 230.184C861.204 230.411 861.141 230.628 860.991 230.8L855.878 236.92L860.745 241L870.829 228.652C865.98 224.28 860.461 220.601 855.108 217.027C852.916 215.568 850.734 214.095 848.595 212.594L835.829 232.744L849.47 242.036C852.361 244.292 855.152 246.654 857.851 248.947C859.295 250.185 860.748 251.41 862.211 252.622L872.495 240.976C872.636 240.817 872.831 240.721 873.048 240.703C873.256 240.698 873.486 240.77 873.631 240.901C874.345 241.544 875.088 242.149 875.831 242.753C877.213 243.884 878.634 245.044 879.876 246.414C880.15 246.723 880.157 247.197 879.863 247.504L869.172 258.801L880.661 270.635C883.238 273.304 885.519 276.257 887.742 279.125C888.866 280.568 889.98 282.025 891.134 283.43L910.118 268.935L901.563 258.146C899.546 255.76 897.287 253.476 895.106 251.25C894.122 250.239 893.115 249.23 892.141 248.206L880.754 259.32C881.841 260.491 882.98 261.621 884.106 262.74C884.48 263.106 884.832 263.474 885.206 263.84L890.806 258.232C890.959 258.083 891.168 257.997 891.375 257.992C891.583 257.986 891.803 258.072 891.942 258.238L895.11 261.498L897.99 265.109C898.258 265.455 898.21 265.948 897.877 266.225L891.183 271.879C891.017 272.017 890.783 272.084 890.559 272.057C890.335 272.03 890.145 271.905 890.016 271.726C887.978 268.856 885.429 266.31 882.974 263.856C881.644 262.522 880.315 261.187 879.038 259.81C878.751 259.491 878.753 259.004 879.07 258.694L891.59 246.464C891.743 246.315 891.951 246.229 892.172 246.233C892.392 246.238 892.59 246.326 892.738 246.48C893.89 247.7 895.061 248.894 896.245 250.098C898.452 252.343 900.726 254.66 902.786 257.099L911.872 268.556C912.011 268.722 912.065 268.946 912.034 269.147C912.017 269.358 911.892 269.549 911.726 269.688L891.485 285.142C891.149 285.397 890.669 285.358 890.379 285.016C889.035 283.405 887.753 281.74 886.458 280.065C884.264 277.239 882.009 274.306 879.499 271.709L867.482 259.31C867.185 259.004 867.188 258.517 867.482 258.21L878.173 246.913C877.124 245.853 875.952 244.902 874.815 243.958C874.266 243.5 873.707 243.056 873.168 242.586L862.893 254.219C862.603 254.548 862.06 254.646 861.783 254.313C860.113 252.944 858.46 251.527 856.81 250.132C854.123 247.848 851.332 245.487 848.518 243.29L834.289 233.592C833.934 233.282 833.829 232.856 834.058 232.5L847.692 210.992C847.806 210.814 847.995 210.673 848.21 210.632C848.424 210.591 848.651 210.641 848.829 210.755C851.188 212.423 853.6 214.05 856.008 215.653C859.525 217.997 863.084 220.392 866.496 222.981ZM854.638 235.897L859.225 230.416L853.112 226.206L849.004 232.049L854.638 235.897ZM896.252 265.521L893.903 262.578L891.354 259.951L886.313 264.985C887.877 266.6 889.429 268.286 890.791 270.114L896.252 265.521Z" fill="black" fill-opacity="0.08"/>
<path d="M850.74 242.939C865.758 254.336 879.468 268.101 891.634 284.034L890.366 285.006C874.235 263.885 855.376 246.6 834.328 233.622L835.16 232.257C840.509 235.542 845.687 239.105 850.74 242.939Z" fill="black" fill-opacity="0.08"/>
<path d="M866.237 222.519C883.09 235.309 898.436 250.702 912.013 268.479L910.745 269.452C892.765 245.909 871.668 226.58 848.047 211.975L848.892 210.62C854.825 214.288 860.628 218.263 866.237 222.519Z" fill="black" fill-opacity="0.08"/>
<path d="M913.88 271.118C913.919 271.148 913.97 271.187 913.999 271.229C916.243 273.828 918.076 276.727 919.855 279.563C920.665 280.83 921.453 282.1 922.283 283.341C923.174 284.77 924.081 286.151 924.979 287.545C926.697 290.193 928.475 292.948 930.076 295.751C930.182 295.933 930.2 296.151 930.147 296.355C930.094 296.559 929.956 296.74 929.761 296.836L914.526 305.479C914.152 305.704 913.646 305.565 913.444 305.187C911.715 302.205 909.795 299.261 907.932 296.401C906.861 294.754 905.789 293.106 904.738 291.432C904.503 291.07 904.609 290.581 904.971 290.346L912.248 285.481C912.427 285.352 912.654 285.321 912.855 285.351C913.069 285.391 913.247 285.506 913.366 285.698L918.284 293.361C918.403 293.553 918.444 293.768 918.394 293.994C918.331 294.211 918.194 294.392 918.012 294.498L911.091 298.331C912.227 300.109 913.352 301.9 914.436 303.72L928.274 295.871C926.805 293.351 925.19 290.863 923.62 288.449C922.723 287.055 921.813 285.652 920.925 284.245C920.085 283.017 919.284 281.737 918.471 280.447C916.856 277.878 915.187 275.247 913.24 272.873L894.057 287.095C895.781 289.197 897.235 291.441 898.547 293.577L903.202 300.836C903.752 301.722 904.308 302.572 904.878 303.432C905.875 304.963 906.914 306.546 907.823 308.193L911.389 315.196L925.165 308.073C925.36 307.977 925.577 307.959 925.772 308.025C925.979 308.101 926.147 308.228 926.243 308.423L929.995 315.772C930.091 315.967 930.109 316.184 930.034 316.392C929.958 316.599 929.808 316.77 929.622 316.853L915.625 323.462C917.214 326.521 918.445 329.757 919.631 332.918C920.344 334.823 921.102 336.804 921.906 338.697C922.286 339.698 922.67 340.641 923.057 341.607C923.752 343.295 924.469 345.061 924.994 346.865L927.139 354.399L950.049 347.773C949.629 346.394 949.254 345.01 948.866 343.616C948.042 340.648 947.216 337.577 945.979 334.725L940.922 321.905L926.281 328.127L928.607 334.026L935.871 330.842C936.079 330.755 936.299 330.76 936.507 330.836C936.704 330.924 936.865 331.087 936.939 331.286L940.276 339.745C940.362 339.953 940.348 340.186 940.259 340.384C940.17 340.581 939.994 340.733 939.796 340.806L931.499 343.634C931.089 343.772 930.656 343.565 930.486 343.171L924.504 328C924.344 327.593 924.547 327.137 924.941 326.967L941.058 320.114C941.266 320.028 941.487 320.032 941.671 320.111C941.882 320.21 942.03 320.363 942.104 320.561L947.449 334.129C948.721 337.07 949.576 340.183 950.396 343.209C950.841 344.85 951.283 346.469 951.793 348.078C951.857 348.289 951.84 348.5 951.728 348.7C951.627 348.888 951.45 349.04 951.249 349.09L926.778 356.162C926.567 356.226 926.356 356.209 926.178 356.094C925.978 355.983 925.862 355.813 925.788 355.615L923.411 347.314C922.908 345.588 922.211 343.877 921.532 342.222C921.132 341.246 920.745 340.28 920.38 339.311C919.567 337.431 918.819 335.438 918.09 333.499C916.83 330.14 915.51 326.674 913.779 323.507C913.669 323.302 913.651 323.084 913.714 322.867C913.79 322.66 913.94 322.489 914.135 322.393L928.142 315.771L925.122 309.874L911.346 316.997C911.151 317.093 910.933 317.111 910.739 317.045C910.532 316.969 910.373 316.829 910.267 316.647L906.352 308.95C905.501 307.388 904.478 305.838 903.484 304.33C902.914 303.47 902.342 302.587 901.805 301.711L897.15 294.452C895.732 292.134 894.15 289.71 892.248 287.493C892.109 287.327 892.032 287.106 892.06 286.882C892.087 286.658 892.198 286.458 892.378 286.329L912.844 271.168C913.203 270.91 913.608 270.912 913.88 271.118ZM916.495 293.491L912.478 287.244L906.527 291.221C907.431 292.661 908.367 294.084 909.293 295.52C909.602 295.999 909.911 296.478 910.22 296.956L916.495 293.491ZM938.528 339.498L935.809 332.587L929.254 335.454L931.756 341.793L938.528 339.498Z" fill="black" fill-opacity="0.08"/>
<path d="M893.564 286.456C908.86 307.228 920.236 330.322 927.4 355.127L925.863 355.57C918.759 330.953 907.464 308.022 892.284 287.419L893.564 286.456Z" fill="black" fill-opacity="0.08"/>
<path d="M914.168 271.194C931.271 294.417 944.02 320.264 952.028 348.011L950.49 348.453C942.53 320.885 929.874 295.211 912.875 272.148L914.168 271.194Z" fill="black" fill-opacity="0.08"/>
<path d="M952.546 350.95C952.675 351.048 952.762 351.175 952.82 351.341C954.989 357.876 956.193 364.716 957.366 371.329C957.876 374.201 958.372 377.062 958.96 379.911C959.001 380.126 958.951 380.353 958.836 380.53C958.699 380.711 958.507 380.83 958.302 380.858L940.983 383.418C940.551 383.477 940.153 383.196 940.084 382.777L937.099 366.743C937.017 366.315 937.285 365.907 937.714 365.825L946.265 363.923C946.467 363.873 946.703 363.91 946.871 364.037C947.075 364.171 947.168 364.344 947.209 364.558L948.875 373.501C948.916 373.715 948.866 373.942 948.739 374.11C948.601 374.291 948.409 374.41 948.205 374.438L940.349 375.504L941.505 381.737L957.223 379.408C956.706 376.816 956.247 374.227 955.784 371.616C954.675 365.295 953.514 358.772 951.528 352.56L928.469 358.871C928.686 359.606 928.902 360.34 929.119 361.075C929.638 362.833 930.173 364.624 930.575 366.457L932.149 374.983C932.373 376.192 932.596 377.4 932.82 378.609C933.617 382.737 934.421 386.993 934.688 391.31L950.069 389.641C950.286 389.623 950.458 389.692 950.671 389.813C950.83 389.954 950.949 390.146 950.967 390.364L951.699 398.577C951.718 398.795 951.642 399.002 951.514 399.17C951.374 399.328 951.169 399.437 950.961 399.443L935.528 400.563C936.128 405.784 936.053 411.063 935.982 416.202L935.974 418.253C935.968 423.279 935.961 428.468 935.306 433.572L959.06 435.63L959.713 429.16L959.897 408.199L943.99 408.736L943.945 415.076L951.851 414.722C952.059 414.716 952.279 414.802 952.438 414.942C952.586 415.096 952.695 415.301 952.691 415.521L952.617 424.61C952.612 424.83 952.523 425.028 952.37 425.176C952.217 425.325 952.008 425.411 951.788 425.407L943.045 425.065C942.613 425.043 942.275 424.684 942.274 424.256L942.389 407.948C942.388 407.52 942.734 407.171 943.159 407.147L960.656 406.555C960.863 406.55 961.093 406.623 961.242 406.776C961.39 406.929 961.477 407.137 961.495 407.355L961.297 429.221L960.554 436.56C960.51 436.995 960.125 437.314 959.69 437.269L934.318 435.062C934.094 435.035 933.907 434.933 933.755 434.757C933.616 434.591 933.562 434.367 933.59 434.143C934.363 428.884 934.348 423.455 934.358 418.208L934.373 416.122C934.452 410.784 934.528 405.262 933.825 399.881C933.794 399.654 933.857 399.437 933.998 399.279C934.138 399.121 934.343 399.011 934.561 398.993L950.016 397.87L949.424 391.27L934.02 392.942C933.803 392.96 933.583 392.874 933.415 392.747C933.244 392.596 933.147 392.401 933.139 392.171C932.931 387.695 932.083 383.202 931.244 378.859C931.021 377.651 930.784 376.433 930.561 375.224L928.993 366.743C928.604 365.002 928.081 363.22 927.569 361.507C927.269 360.506 926.97 359.505 926.693 358.501C926.576 358.065 926.828 357.626 927.254 357.521L951.83 350.793C952.09 350.746 952.352 350.803 952.546 350.95ZM947.132 372.952L945.772 365.647L938.793 367.194L940.037 373.902L947.132 372.952ZM951.021 423.786L951.08 416.356L943.933 416.676L943.884 423.503L951.021 423.786Z" fill="black" fill-opacity="0.08"/>
<path d="M928.26 358.101C935.056 383.015 937.381 408.669 935.172 434.366L933.579 434.237C935.768 408.728 933.455 383.246 926.709 358.534L928.26 358.101Z" fill="black" fill-opacity="0.08"/>
<path d="M952.982 351.342C960.573 379.181 963.173 407.855 960.697 436.587L959.104 436.458C961.56 407.914 958.975 379.435 951.431 351.775L952.982 351.342Z" fill="black" fill-opacity="0.08"/>
<path d="M959.877 439.305C959.929 439.344 959.97 439.396 960.012 439.448C960.151 439.615 960.205 439.839 960.174 440.04C959.964 441.713 959.812 443.39 959.659 445.067C959.369 448.187 959.059 451.414 958.425 454.558L955.534 468.861C955.494 469.075 955.356 469.256 955.187 469.372C954.995 469.491 954.78 469.532 954.576 469.479L937.501 465.625C937.082 465.531 936.806 465.118 936.886 464.69L940.079 448.701C940.159 448.273 940.55 447.999 940.987 448.067L949.654 449.368C949.868 449.408 950.055 449.51 950.184 449.689C950.313 449.868 950.354 450.083 950.323 450.284C950.004 452.261 949.6 454.216 949.187 456.183C948.98 457.207 948.77 458.209 948.563 459.233C948.523 459.447 948.398 459.638 948.206 459.757C948.014 459.876 947.8 459.917 947.583 459.854L939.851 458.019L938.608 464.245L954.132 467.756L956.856 454.263C957.467 451.203 957.77 448.012 958.067 444.938C958.208 443.517 958.336 442.087 958.49 440.676L934.757 438.267C934.675 439.02 934.616 439.769 934.534 440.521C934.073 445.182 933.598 449.994 932.432 454.67C931.98 456.689 931.588 458.735 931.197 460.78C930.572 464.073 929.913 467.464 928.976 470.765L943.942 474.769C944.146 474.822 944.34 474.97 944.436 475.165C944.542 475.347 944.564 475.587 944.498 475.782L942.071 483.676C941.933 484.1 941.49 484.334 941.079 484.206L926.236 479.663L925.687 481.487C924.302 486.077 922.87 490.836 920.758 495.282C919.926 497.157 919.137 499.083 918.347 501.009C917.084 504.124 915.774 507.325 914.225 510.386L935.65 520.962C936.991 518.416 938.09 515.706 939.166 513.081C939.818 511.498 940.447 509.918 941.15 508.374C941.749 506.833 942.426 505.269 943.104 503.706C944.228 501.097 945.398 498.4 946.284 495.651L931.25 490.393C930.587 492.395 929.794 494.379 928.981 496.309L936.46 498.827C936.667 498.903 936.838 499.053 936.934 499.248C937.021 499.456 937.029 499.687 936.94 499.884L933.424 508.275C933.335 508.473 933.182 508.621 932.987 508.717C932.788 508.791 932.568 508.786 932.361 508.71L924.333 505.226C923.925 505.038 923.749 504.599 923.914 504.195C924.628 502.394 925.401 500.598 926.176 498.824C927.541 495.684 928.948 492.434 929.989 489.13C930.065 488.923 930.192 488.755 930.387 488.659C930.583 488.563 930.8 488.544 931.007 488.62L947.537 494.402C947.951 494.553 948.16 494.976 948.031 495.388C947.098 498.469 945.806 501.46 944.57 504.35C943.912 505.888 943.232 507.429 942.613 508.996C941.913 510.562 941.271 512.132 940.639 513.69C939.452 516.597 938.231 519.601 936.683 522.419C936.48 522.794 936.002 522.941 935.63 522.76L912.778 511.488C912.578 511.376 912.429 511.223 912.365 511.012C912.302 510.801 912.319 510.59 912.421 510.402C914.097 507.173 915.502 503.738 916.855 500.426C917.641 498.477 918.431 496.551 919.279 494.628C921.344 490.269 922.773 485.569 924.142 481.027L924.932 478.429C925.071 478.005 925.513 477.771 925.925 477.899L940.767 482.442L942.714 476.119L927.749 472.114C927.545 472.061 927.364 471.924 927.254 471.719C927.148 471.537 927.117 471.309 927.193 471.102C928.235 467.636 928.93 464.009 929.606 460.489C929.994 458.421 930.395 456.362 930.854 454.308C931.999 449.739 932.471 444.984 932.915 440.373C933.018 439.351 933.112 438.343 933.225 437.308C933.269 436.873 933.654 436.554 934.102 436.609L959.443 439.179C959.625 439.154 959.761 439.217 959.877 439.305ZM947.158 458.105C947.311 457.366 947.461 456.605 947.625 455.853C947.975 454.184 948.312 452.505 948.614 450.819L941.52 449.754L940.178 456.434L947.158 458.105ZM932.283 506.88L935.155 500.036L928.379 497.746C928.143 498.3 927.906 498.853 927.669 499.407C926.998 500.935 926.341 502.472 925.719 504.017L932.283 506.88Z" fill="black" fill-opacity="0.08"/>
<path d="M934.853 437.444C932.274 463.064 925.213 487.828 913.89 511.069L912.45 510.363C923.704 487.294 930.709 462.711 933.267 437.279L934.853 437.444Z" fill="black" fill-opacity="0.08"/>
<path d="M960.346 440.028C957.459 468.713 949.563 496.428 936.865 522.394L935.425 521.688C948.041 495.884 955.88 468.35 958.748 439.853L960.346 440.028Z" fill="black" fill-opacity="0.08"/>
<path d="M934.845 524.385C934.974 524.483 935.074 524.62 935.132 524.785C935.195 524.997 935.178 525.207 935.067 525.408L933.407 528.507C929.413 535.945 925.278 543.622 920.147 550.543C919.892 550.879 919.418 550.967 919.049 550.728L904.519 540.944C904.39 540.846 904.222 540.637 904.181 540.423C904.14 540.209 904.18 539.995 904.308 539.827L905.708 537.793C908.267 534.073 910.913 530.236 912.922 526.14C913.011 525.942 913.187 525.791 913.398 525.727C913.61 525.663 913.834 525.69 914.034 525.802L921.625 530.157C921.981 530.386 922.14 530.874 921.924 531.24C921.485 532.006 921.062 532.805 920.649 533.591C919.645 535.478 918.615 537.425 917.281 539.183C917.026 539.519 916.539 539.597 916.183 539.368L909.648 534.856C908.774 536.169 907.897 537.459 907.007 538.739L906.071 540.106L919.289 549.016C924.152 542.34 928.117 534.941 931.964 527.779L933.246 525.391L911.979 514.527C911.061 516.193 910.166 517.856 909.261 519.532C907.581 522.657 905.847 525.882 904.025 528.981L894.69 542.651L907.238 551.827L907.251 551.836C907.587 552.091 907.666 552.579 907.423 552.924L905.1 556.335L902.392 559.555C902.124 559.881 901.634 559.936 901.298 559.681L901.285 559.672L889.07 550.056L878.446 562.687C875.914 565.327 873.274 567.866 870.716 570.324C869.346 571.647 867.985 572.956 866.628 574.289L882.815 591.848L884.769 589.97C890.632 584.338 896.678 578.518 901.799 572.038L889.66 561.705L888.595 562.975C887.611 564.163 886.596 565.368 885.567 566.563L891.671 571.643C892.01 571.921 892.053 572.401 891.788 572.75C890.451 574.485 888.865 576.011 887.329 577.472C886.673 578.095 886.027 578.704 885.397 579.347C885.093 579.666 884.581 579.644 884.274 579.35L878.037 573.211C877.888 573.058 877.789 572.84 877.793 572.619C877.798 572.399 877.896 572.188 878.063 572.05C881.467 569.012 884.463 565.44 887.345 561.965L888.926 560.069C889.067 559.911 889.262 559.815 889.466 559.787C889.684 559.768 889.927 559.851 890.059 559.972L903.393 571.333C903.71 571.614 903.765 572.104 903.51 572.44C898.225 579.244 891.944 585.293 885.856 591.141L883.308 593.586C883.155 593.735 882.947 593.821 882.726 593.817C882.505 593.812 882.308 593.724 882.169 593.557L864.895 574.827C864.608 574.508 864.611 574.021 864.928 573.711C866.468 572.192 868.034 570.692 869.587 569.182C872.135 566.737 874.765 564.211 877.236 561.626L888.317 548.446C888.585 548.119 889.075 548.064 889.411 548.319L889.424 548.329L901.639 557.944L903.788 555.38L905.64 552.671L893.092 543.495L893.079 543.485C892.743 543.23 892.665 542.743 892.907 542.397L902.657 528.126C904.453 525.089 906.178 521.877 907.837 518.777C908.86 516.865 909.896 514.963 910.945 513.071C911.149 512.696 911.627 512.549 912.012 512.74L934.699 524.335C934.781 524.336 934.819 524.365 934.845 524.385ZM916.482 537.579C917.526 536.069 918.402 534.432 919.258 532.821C919.563 532.258 919.855 531.685 920.173 531.132L914.001 527.59C912.971 529.618 911.792 531.575 910.571 533.479L916.482 537.579ZM890.1 572.345L884.57 567.741C883.065 569.43 881.498 571.092 879.821 572.631L884.894 577.621C885.364 577.163 885.824 576.717 886.284 576.272C887.596 575.027 888.936 573.743 890.1 572.345Z" fill="black" fill-opacity="0.08"/>
<path d="M912.382 513.835C911.222 515.847 910.126 517.907 909.044 519.978C907.168 523.524 905.239 527.193 902.938 530.6L892.121 546.465L879.704 561.217C877.042 564.35 874.027 567.195 871.117 569.956C869.427 571.566 867.747 573.162 866.099 574.824L864.96 573.695C866.608 572.033 868.308 570.411 870.008 568.788C872.888 566.066 875.87 563.237 878.473 560.182L890.832 545.507L901.6 529.706C903.842 526.377 905.754 522.757 907.61 519.237C908.703 517.153 909.808 515.079 910.978 513.055L912.382 513.835Z" fill="black" fill-opacity="0.08"/>
<path d="M935.206 525.493C933.993 527.628 932.842 529.789 931.691 531.95C929.519 536.046 927.263 540.281 924.642 544.218L912.539 561.938L898.69 578.416C895.594 582.013 892.123 585.326 888.762 588.519C886.991 590.21 885.219 591.9 883.499 593.63L882.36 592.5C884.09 590.758 885.884 589.065 887.666 587.361C891.006 584.194 894.458 580.907 897.483 577.377L911.282 560.964L923.326 543.322C925.911 539.459 928.138 535.263 930.29 531.193C931.451 529.019 932.599 526.835 933.821 524.687L935.206 525.493Z" fill="black" fill-opacity="0.08"/>
<path d="M863.829 575.749C863.868 575.779 863.907 575.808 863.935 575.85L880.942 594.825C881.229 595.145 881.213 595.622 880.897 595.932C878.6 598.18 876.035 600.165 873.554 602.091C872.215 603.132 870.885 604.159 869.575 605.242C868.212 606.286 866.908 607.333 865.595 608.393C863.156 610.372 860.624 612.421 857.895 614.139C857.533 614.374 857.057 614.277 856.812 613.928L846.795 599.565C846.666 599.386 846.625 599.171 846.665 598.957C846.706 598.743 846.83 598.553 847.012 598.447C849.901 596.545 852.652 594.315 855.322 592.166C856.835 590.951 858.344 589.714 859.886 588.541C860.234 588.296 860.714 588.335 860.991 588.667L866.508 595.461C866.647 595.627 866.711 595.839 866.683 596.062C866.666 596.273 866.554 596.474 866.375 596.602L859.24 602.247C859.074 602.386 858.85 602.44 858.626 602.413C858.412 602.372 858.212 602.261 858.093 602.069L853.655 595.544C852.015 596.846 850.327 598.131 848.568 599.322L857.677 612.385C860.088 610.793 862.36 608.953 864.58 607.154C865.903 606.081 867.217 605.021 868.559 604.003C869.837 602.937 871.2 601.893 872.549 600.84C874.788 599.097 877.102 597.309 879.193 595.331L863.241 577.544C860.71 579.859 857.966 581.972 855.319 584.037C853.677 585.316 852.021 586.585 850.42 587.917C846.716 591.134 842.528 593.781 838.47 596.364L836.862 597.383L845.231 610.456C845.479 610.827 845.362 611.329 844.988 611.554L838.038 616.016C837.846 616.135 837.632 616.176 837.427 616.123C837.214 616.082 837.033 615.945 836.914 615.753L829.029 602.417C826.102 604.208 823.014 605.755 820.01 607.243C818.146 608.171 816.281 609.098 814.449 610.09C810.292 612.455 805.762 614.211 801.397 615.909C800.695 616.191 800.002 616.46 799.309 616.728L808.017 638.937C809.344 638.396 810.664 637.891 811.994 637.373C814.888 636.269 817.88 635.118 820.672 633.693L832.934 627.438L825.375 613.433L819.713 616.305L823.561 623.258C823.667 623.44 823.688 623.68 823.635 623.884C823.559 624.092 823.422 624.272 823.227 624.369C822.283 624.834 821.365 625.319 820.425 625.807C818.661 626.708 816.9 627.633 815.081 628.473C814.886 628.569 814.666 628.565 814.471 628.499C814.264 628.423 814.116 628.27 814.019 628.074L810.433 620.078C810.264 619.684 810.422 619.234 810.8 619.032L825.34 611.654C825.73 611.462 826.203 611.617 826.405 611.994L834.713 627.403C834.809 627.598 834.827 627.815 834.774 628.02C834.698 628.227 834.571 628.395 834.376 628.491L821.378 635.125C818.508 636.572 815.483 637.739 812.547 638.872C810.973 639.469 809.399 640.067 807.844 640.721C807.636 640.807 807.415 640.802 807.231 640.724C807.033 640.635 806.872 640.472 806.799 640.273L797.503 616.559C797.343 616.152 797.534 615.686 797.94 615.526C798.896 615.152 799.83 614.781 800.786 614.407C805.095 612.727 809.57 610.991 813.652 608.671C815.517 607.663 817.404 606.732 819.279 605.792C822.487 604.194 825.793 602.548 828.851 600.612C829.043 600.493 829.258 600.452 829.462 600.505C829.679 600.568 829.857 600.683 829.976 600.875L837.86 614.21L843.426 610.634L835.056 597.561C834.809 597.19 834.925 596.688 835.3 596.463L837.589 595.002C841.595 592.462 845.727 589.834 849.36 586.684C850.993 585.337 852.659 584.055 854.311 582.763C857.137 580.569 860.08 578.301 862.716 575.821C862.869 575.672 863.09 575.596 863.288 575.603C863.541 575.592 863.7 575.651 863.829 575.749ZM864.777 595.837L860.252 590.286C858.932 591.3 857.641 592.357 856.337 593.405C855.868 593.782 855.399 594.159 854.919 594.549L858.949 600.458L864.777 595.837ZM821.805 623.29L818.326 617.004L812.241 620.085L815.176 626.63C816.709 625.899 818.212 625.126 819.716 624.352C820.419 623.989 821.112 623.64 821.805 623.29Z" fill="black" fill-opacity="0.08"/>
<path d="M862.803 575.786L863.871 576.983C844.548 594.153 822.585 607.608 798.604 616.987L798.028 615.491C821.824 606.196 843.614 592.833 862.803 575.786Z" fill="black" fill-opacity="0.08"/>
<path d="M879.907 594.875L880.974 596.072C859.371 615.28 834.816 630.353 807.967 640.854L807.391 639.358C834.042 628.931 858.451 613.97 879.907 594.875Z" fill="black" fill-opacity="0.08"/>
<path d="M795.918 616.741C796.035 616.83 796.122 616.957 796.176 617.1L805.13 640.942C805.29 641.348 805.077 641.818 804.68 641.965L797.889 644.633L790.833 646.712L776.805 650.731C776.594 650.795 776.37 650.767 776.179 650.643C775.989 650.519 775.85 650.352 775.809 650.138L771.671 633.127C771.579 632.712 771.821 632.285 772.234 632.17L787.91 627.67C788.323 627.556 788.759 627.785 788.897 628.195L791.578 636.524C791.642 636.735 791.625 636.946 791.513 637.146C791.412 637.334 791.236 637.486 791.034 637.536L782.288 640.044C782.077 640.108 781.853 640.08 781.662 639.956C781.474 639.854 781.343 639.652 781.292 639.451L779.515 631.728L773.421 633.478L777.185 648.942L797.379 643.105L803.366 640.744L794.991 618.42C790.264 620.435 785.279 621.824 780.439 623.183L778.411 623.762C773.503 625.21 768.439 626.704 763.259 627.518L766.334 642.683C766.375 642.897 766.335 643.111 766.22 643.289C766.106 643.467 765.914 643.586 765.699 643.627L757.591 645.132C757.377 645.173 757.163 645.133 756.982 644.995C756.769 644.874 756.685 644.689 756.644 644.474L754.112 629.212C749.882 630.116 745.554 630.478 741.353 630.834C740.139 630.931 738.938 631.038 737.714 631.148L729.101 631.923C727.205 632.033 725.327 632.012 723.503 631.973C722.738 631.962 721.972 631.951 721.206 631.94L721.334 655.846C727.852 656.087 734.446 655.45 740.832 654.817C743.459 654.55 746.088 654.305 748.711 654.096L746.724 638.331L740.409 638.895L741.497 646.748C741.525 646.952 741.466 647.192 741.325 647.35C741.188 647.531 740.993 647.628 740.775 647.646L731.714 648.448C731.496 648.466 731.273 648.439 731.121 648.263C730.963 648.123 730.854 647.918 730.848 647.71L730.379 638.962C730.355 638.537 730.685 638.156 731.097 638.123L747.343 636.683C747.778 636.646 748.156 636.953 748.202 637.375L750.398 654.745C750.416 654.962 750.354 655.179 750.226 655.347C750.086 655.506 749.881 655.615 749.663 655.633C746.761 655.834 743.871 656.126 740.969 656.408C734.274 657.071 727.349 657.743 720.481 657.399C720.05 657.377 719.724 657.028 719.723 656.6L719.578 631.133C719.575 630.682 719.93 630.32 720.372 630.329C721.413 630.325 722.468 630.331 723.513 630.35C725.3 630.383 727.156 630.407 728.961 630.31L737.529 629.54C738.74 629.421 739.954 629.324 741.178 629.214C745.596 628.84 750.164 628.457 754.54 627.44C754.755 627.399 754.979 627.426 755.169 627.55C755.344 627.642 755.479 627.867 755.52 628.081L758.056 643.366L764.572 642.16L761.494 626.973C761.453 626.758 761.503 626.531 761.617 626.354C761.745 626.186 761.947 626.054 762.151 626.026C767.5 625.258 772.798 623.698 777.917 622.185L779.968 621.603C785.009 620.194 790.228 618.737 795.085 616.578C795.293 616.491 795.514 616.496 795.721 616.571C795.815 616.663 795.867 616.702 795.918 616.741ZM789.802 636.235L787.618 629.424L781.065 631.295L782.671 638.278L789.802 636.235ZM739.787 646.183L738.815 639.091L732.02 639.698L732.408 646.836L739.787 646.183Z" fill="black" fill-opacity="0.08"/>
<path d="M795.163 616.636L795.716 618.136C771.562 627.179 746.228 631.845 720.404 632.004L720.394 630.407C746.03 630.228 771.184 625.609 795.163 616.636Z" fill="black" fill-opacity="0.08"/>
<path d="M804.172 640.622L804.725 642.121C777.728 652.226 749.403 657.452 720.549 657.633L720.538 656.037C749.218 655.845 777.351 650.656 804.172 640.622Z" fill="black" fill-opacity="0.08"/>
<path d="M717.807 630.542C717.833 630.562 717.872 630.591 717.888 630.624C718.036 630.777 718.123 630.985 718.115 631.183L717.89 656.654C717.886 656.875 717.797 657.072 717.643 657.221C717.49 657.369 717.282 657.456 717.061 657.451C715.374 657.393 713.684 657.393 711.996 657.416C708.862 657.441 705.61 657.458 702.423 657.015L687.94 655.515C687.729 655.497 687.541 655.396 687.39 655.22C687.251 655.054 687.197 654.829 687.227 654.628L689.49 637.261C689.547 636.837 689.932 636.518 690.367 636.562L706.588 638.241C707.013 638.298 707.339 638.647 707.307 639.092L706.816 647.844C706.812 648.064 706.7 648.265 706.534 648.403C706.368 648.542 706.156 648.606 705.923 648.591L696.878 647.654C696.667 647.637 696.467 647.525 696.328 647.359C696.19 647.193 696.136 646.969 696.163 646.745L697.275 638.892L690.967 638.24L688.915 654.015L702.61 655.426C705.726 655.856 708.897 655.838 711.986 655.82C713.42 655.808 714.867 655.807 716.295 655.831L716.511 631.982L708.678 631.944C706.776 631.927 704.883 631.712 703.057 631.487C702.045 631.371 701.033 631.255 700.025 631.162C697.95 630.891 695.851 630.704 693.834 630.517C690.471 630.225 687 629.914 683.613 629.197L681.016 644.456C680.976 644.67 680.851 644.861 680.682 644.977C680.503 645.105 680.288 645.146 680.074 645.106L671.987 643.471C671.783 643.418 671.606 643.303 671.477 643.124C671.361 642.954 671.307 642.73 671.36 642.526L674.512 627.341L666.844 625.799C665.013 625.367 663.208 624.792 661.479 624.253C660.497 623.936 659.506 623.632 658.505 623.341L650.248 620.802C647.851 620.123 645.298 619.327 642.809 618.232L634.285 640.522C637.085 641.771 640.078 642.658 642.987 643.521C644.448 643.957 645.897 644.384 647.328 644.86C648.896 645.316 650.493 645.815 652.067 646.317C654.814 647.18 657.645 648.065 660.467 648.802L664.302 633.361C662.258 632.808 660.23 632.206 658.212 631.591L656.393 639.274C656.343 639.501 656.206 639.682 656.011 639.778C655.819 639.897 655.588 639.906 655.371 639.843L646.68 637.179C646.476 637.125 646.305 636.975 646.209 636.78C646.113 636.585 646.094 636.367 646.16 636.173L648.888 627.855C649.016 627.444 649.459 627.21 649.87 627.339C651.753 627.891 653.641 628.489 655.516 629.077C658.759 630.092 662.134 631.146 665.462 632.021C665.893 632.124 666.15 632.564 666.034 632.985L661.81 649.984C661.757 650.188 661.62 650.369 661.451 650.485C661.268 650.591 661.054 650.632 660.85 650.579C657.72 649.792 654.587 648.82 651.575 647.879C649.991 647.389 648.417 646.887 646.836 646.421C645.391 645.936 643.956 645.519 642.518 645.079C639.33 644.127 636.023 643.144 632.916 641.683C632.518 641.482 632.368 641.063 632.5 640.674L641.593 616.882C641.669 616.675 641.832 616.514 642.04 616.427C642.249 616.341 642.482 616.355 642.68 616.444C645.304 617.682 648.074 618.541 650.675 619.273L658.932 621.812C659.933 622.103 660.937 622.417 661.932 622.744C663.639 623.286 665.394 623.844 667.154 624.263L675.597 625.965C675.811 626.005 675.979 626.133 676.108 626.312C676.224 626.481 676.278 626.706 676.225 626.91L673.073 642.094L679.565 643.416L682.159 628.134C682.199 627.92 682.324 627.73 682.503 627.601C682.695 627.482 682.91 627.441 683.136 627.491C686.665 628.315 690.369 628.641 693.956 628.96C695.996 629.144 698.105 629.318 700.183 629.612C701.166 629.686 702.19 629.811 703.225 629.924C705.015 630.142 706.873 630.351 708.67 630.37L717.305 630.426C717.506 630.375 717.665 630.434 717.807 630.542ZM705.261 646.887L705.671 639.744L698.893 639.041L697.896 646.125L705.261 646.887ZM655.021 638.05L656.67 631.073C656.126 630.904 655.569 630.726 655.038 630.567C653.415 630.049 651.795 629.553 650.153 629.06L647.924 635.862L655.021 638.05Z" fill="black" fill-opacity="0.08"/>
<path d="M717.321 630.377L717.309 631.977C691.491 631.753 666.188 627.012 642.065 617.871L642.635 616.369C666.586 625.441 691.701 630.161 717.321 630.377Z" fill="black" fill-opacity="0.08"/>
<path d="M717.106 655.998L717.093 657.598C688.215 657.353 659.904 652.04 632.922 641.809L633.492 640.307C660.292 650.482 688.412 655.751 717.106 655.998Z" fill="black" fill-opacity="0.08"/>
<path d="M639.996 615.283C640.28 615.499 640.402 615.876 640.263 616.219L630.827 639.873C630.738 640.071 630.597 640.229 630.389 640.315C630.181 640.402 629.96 640.397 629.776 640.318L616.332 634.658C613.39 633.301 610.546 631.734 607.79 630.213C606.325 629.406 604.86 628.6 603.387 627.829C603.177 627.73 603.061 627.561 602.998 627.35C602.934 627.138 602.951 626.927 603.063 626.727L611.482 611.364C611.686 610.989 612.164 610.843 612.549 611.033C614.228 611.88 615.871 612.801 617.505 613.735C620.529 615.439 623.667 617.209 626.979 618.399C627.187 618.475 627.371 618.635 627.444 618.833C627.531 619.042 627.526 619.262 627.44 619.482L623.807 627.438C623.629 627.833 623.167 628.012 622.763 627.847L618.584 626.081L614.507 623.884C614.307 623.773 614.168 623.606 614.117 623.405C614.054 623.194 614.081 622.97 614.196 622.792L618.089 615.889C617.637 615.627 617.187 615.388 616.747 615.136C615.343 614.355 613.949 613.562 612.529 612.831L604.889 626.789C606.138 627.452 607.367 628.14 608.606 628.815C611.336 630.317 614.157 631.887 617.034 633.195L629.715 638.52L638.566 616.336C636.902 615.603 635.199 614.922 633.506 614.228C630.145 612.859 626.675 611.447 623.41 609.683L608.921 601.803L600.918 615.14C600.702 615.506 600.244 615.626 599.872 615.446C598.218 614.619 596.719 613.562 595.258 612.535C594.476 611.982 593.694 611.429 592.882 610.915C592.707 610.824 592.575 610.622 592.534 610.407C592.484 610.206 592.534 609.979 592.648 609.801L601.097 596.762C599.523 595.669 597.929 594.603 596.345 593.523C593.423 591.55 590.397 589.498 587.512 587.369L574.852 576.703L558.881 594.421C560.916 596.087 562.911 597.805 564.93 599.52C569.799 603.705 574.837 608.016 580.331 611.513L589.509 598.478L584.27 594.889L579.761 601.447C579.637 601.638 579.432 601.747 579.217 601.788C578.99 601.819 578.776 601.698 578.602 601.606L571.609 595.791C571.27 595.513 571.224 595.01 571.502 594.671L577.047 587.901C577.187 587.742 577.38 587.623 577.597 587.605C577.802 587.577 577.996 587.643 578.19 587.79L584.423 593.05L591.091 597.601C591.308 597.745 591.388 597.908 591.429 598.122C591.47 598.337 591.417 598.541 591.293 598.732L581.201 613.049C580.959 613.395 580.485 613.483 580.119 613.267C574.273 609.645 568.984 605.102 563.881 600.741C561.676 598.843 559.473 596.968 557.219 595.135C557.038 594.998 556.941 594.803 556.933 594.572C556.915 594.355 557 594.134 557.141 593.976L574.186 575.057C574.477 574.728 574.974 574.637 575.3 574.986L588.521 586.119C591.342 588.199 594.355 590.241 597.264 592.204C599.075 593.415 600.888 594.648 602.669 595.898C603.002 596.13 603.116 596.624 602.877 596.993L594.438 610.019C595.036 610.412 595.615 610.83 596.203 611.236C597.408 612.09 598.663 612.96 599.953 613.675L607.956 600.338C608.172 599.972 608.64 599.839 609.015 600.042L624.191 608.279C627.367 609.997 630.812 611.389 634.124 612.742C636.073 613.528 638.012 614.328 639.935 615.176C639.906 615.214 639.944 615.244 639.996 615.283ZM622.627 626.094L625.584 619.621C623.466 618.788 621.415 617.761 619.438 616.689L615.947 622.899L619.237 624.683L622.627 626.094ZM582.905 593.976L577.683 589.585L573.161 595.115L578.861 599.868L582.905 593.976Z" fill="black" fill-opacity="0.08"/>
<path d="M639.808 615.181L639.213 616.664C614.354 606.721 592.457 593.118 574.147 576.209L575.238 575.041C593.402 591.819 615.135 605.317 639.808 615.181Z" fill="black" fill-opacity="0.08"/>
<path d="M630.323 638.981L629.727 640.464C602.039 629.392 577.571 614.184 557.014 595.244L558.092 594.066C578.503 612.875 602.796 627.991 630.323 638.981Z" fill="black" fill-opacity="0.08"/>
<path d="M527.142 511.902C527.245 511.981 527.329 512.085 527.38 512.205C531.769 521.666 537.66 530.516 543.349 539.069L545.067 541.636C545.302 541.997 545.218 542.484 544.87 542.728L532.335 551.811L536.44 557.004L548.678 547.452C548.845 547.313 549.069 547.259 549.283 547.299C549.507 547.326 549.697 547.451 549.813 547.62C555.425 555.362 562.256 562.276 568.86 568.979C570.206 570.346 571.551 571.713 572.896 573.08C573.193 573.387 573.2 573.861 572.91 574.19L555.59 592.88C555.449 593.039 555.241 593.125 555.024 593.143C554.803 593.139 554.596 593.063 554.447 592.91C552.098 590.638 549.788 588.233 547.562 585.933C546.456 584.788 545.336 583.633 544.23 582.488C543.198 581.379 542.136 580.308 541.087 579.248C538.748 576.882 536.328 574.435 534.326 571.652C534.081 571.304 534.132 570.833 534.455 570.569L547.82 559.265C547.986 559.126 548.207 559.049 548.431 559.077C548.655 559.104 548.855 559.215 548.984 559.395C550.478 561.425 552.219 563.398 554.278 565.408L559.969 571.275C560.279 571.591 560.279 572.101 559.95 572.4L553.691 578.527C553.538 578.676 553.33 578.762 553.122 578.767C552.915 578.773 552.704 578.674 552.556 578.521L546.229 571.989C546.068 571.826 545.991 571.604 546.009 571.394C546.013 571.173 546.125 570.973 546.301 570.821L552.375 565.796C550.803 564.217 549.43 562.645 548.19 561.032L536.051 571.311C537.903 573.756 540.094 575.968 542.22 578.131C543.294 579.212 544.346 580.295 545.378 581.404C546.481 582.526 547.601 583.681 548.707 584.827C550.746 586.944 552.85 589.111 554.976 591.193L571.219 573.681C570.06 572.497 568.889 571.302 567.721 570.131C561.265 563.582 554.596 556.83 549.019 549.258L536.813 558.794C536.467 559.061 535.974 559.013 535.694 558.658L530.568 552.181C530.429 552.015 530.375 551.79 530.403 551.567C530.43 551.343 530.554 551.152 530.724 551.036L543.31 541.911L542.026 539.98C536.454 531.596 530.681 522.939 526.282 513.653L504.996 524.364C505.628 525.597 506.261 526.831 506.883 528.077C508.298 530.882 509.762 533.785 511.355 536.542L518.766 548.113L532.02 539.291C531.119 537.874 530.209 536.47 529.298 535.067C529.051 534.695 528.816 534.334 528.578 533.95L522.034 538.413C521.854 538.542 521.627 538.573 521.413 538.533C521.199 538.493 521.018 538.356 520.899 538.164C520.346 537.255 519.774 536.372 519.191 535.503C518.11 533.868 517.01 532.177 516.102 530.368C515.909 529.978 516.055 529.518 516.419 529.306L524.05 524.994C524.232 524.888 524.46 524.857 524.654 524.923C524.858 524.976 525.026 525.103 525.135 525.308C526.835 528.329 528.771 531.306 530.647 534.175C531.715 535.801 532.76 537.429 533.796 539.07C534.031 539.432 533.924 539.921 533.563 540.156L518.984 549.867C518.804 549.996 518.59 550.037 518.386 549.984C518.172 549.943 517.991 549.806 517.875 549.637L510.008 537.352C508.382 534.53 506.892 531.608 505.474 528.78C504.726 527.296 503.982 525.835 503.202 524.367C503.105 524.172 503.087 523.954 503.14 523.75C503.216 523.543 503.356 523.384 503.539 523.278L526.298 511.832C526.494 511.736 526.711 511.718 526.918 511.794C527.003 511.817 527.077 511.853 527.142 511.902ZM527.706 532.575C526.484 530.67 525.259 528.742 524.131 526.766L517.877 530.31C518.67 531.788 519.607 533.211 520.514 534.592C520.951 535.25 521.379 535.921 521.807 536.592L527.706 532.575ZM558.269 571.797L553.511 566.903L547.988 571.47L553.153 576.795L558.269 571.797Z" fill="black" fill-opacity="0.08"/>
<path d="M527.377 512.183C538.8 534.945 554.114 555.426 572.88 573.048L571.79 574.216C552.878 556.464 537.462 535.823 525.945 512.888L527.377 512.183Z" fill="black" fill-opacity="0.08"/>
<path d="M504.487 523.693C517.284 549.208 534.44 572.146 555.459 591.845L554.369 593.013C533.214 573.171 515.958 550.096 503.068 524.408L504.487 523.693Z" fill="black" fill-opacity="0.08"/>
<path d="M505.104 435.707C505.117 435.717 505.117 435.717 505.13 435.727C505.288 435.867 505.394 436.049 505.412 436.267L506.175 444.87L507.757 453.28C508.088 454.937 508.387 456.61 508.686 458.282C509.384 462.193 510.098 466.218 511.384 470.025C511.448 470.236 511.433 470.47 511.332 470.657C511.22 470.858 511.041 470.987 510.83 471.05L495.829 474.983L497.662 481.343L512.52 476.875C512.942 476.747 513.392 476.987 513.519 477.409C513.819 478.41 514.095 479.415 514.372 480.419C514.852 482.148 515.342 483.945 515.946 485.646L519.116 493.652C519.625 494.914 520.124 496.189 520.623 497.464C522.177 501.454 523.776 505.601 525.926 509.37C526.045 509.562 526.053 509.793 525.99 510.01C525.928 510.227 525.777 510.398 525.569 510.485L502.649 521.605C502.259 521.798 501.786 521.642 501.58 521.242C501.199 520.484 500.804 519.716 500.422 518.958C499.697 517.552 498.958 516.136 498.321 514.695L490.268 494.307C490.182 494.099 490.196 493.866 490.285 493.668C490.374 493.471 490.55 493.319 490.748 493.246L507.303 487.56C507.713 487.423 508.147 487.63 508.316 488.023L514.299 503.194C514.459 503.601 514.265 504.044 513.861 504.227L505.811 507.67C505.602 507.756 505.382 507.752 505.197 507.673C505 507.584 504.851 507.431 504.765 507.223L501.428 498.764C501.342 498.556 501.356 498.322 501.445 498.125C501.534 497.927 501.71 497.776 501.921 497.712L509.431 495.223L507.105 489.324L492.065 494.489L499.784 514.054C500.403 515.44 501.125 516.823 501.835 518.197C502.104 518.727 502.387 519.267 502.656 519.798L524.099 509.389C522.092 505.727 520.582 501.812 519.101 498.02C518.615 496.755 518.116 495.48 517.607 494.218L514.434 486.189C513.795 484.4 513.302 482.58 512.806 480.819C512.599 480.071 512.396 479.347 512.179 478.612L497.321 483.081C497.11 483.144 496.899 483.127 496.699 483.016C496.511 482.914 496.372 482.748 496.309 482.536L494.04 474.603C493.976 474.391 494.003 474.168 494.118 473.99C494.22 473.802 494.409 473.661 494.61 473.61L509.565 469.684C508.402 466.01 507.732 462.223 507.075 458.526C506.776 456.854 506.49 455.191 506.149 453.547L504.555 445.046L503.847 437.176L480.068 439.498C480.473 446.425 481.803 453.341 483.083 460.056C483.509 462.232 483.925 464.421 484.305 466.604L499.838 463.178L498.67 456.934L490.95 458.734C490.735 458.775 490.511 458.748 490.321 458.623C490.133 458.522 490.011 458.307 489.97 458.092L488.304 449.15C488.263 448.935 488.313 448.708 488.44 448.54C488.568 448.372 488.76 448.253 488.974 448.212L497.636 446.944C498.068 446.885 498.465 447.166 498.534 447.585L501.52 463.619C501.602 464.048 501.333 464.455 500.905 464.537L483.799 468.318C483.584 468.359 483.37 468.319 483.18 468.194C483.021 468.054 482.87 467.878 482.842 467.673C482.411 465.208 481.938 462.772 481.475 460.322C480.132 453.315 478.746 446.071 478.384 438.791C478.361 438.366 478.681 437.998 479.103 437.952L504.46 435.483C504.755 435.523 504.949 435.589 505.104 435.707ZM498.435 455.392L497.191 448.684L490.118 449.712L491.466 457.007L498.435 455.392ZM512.57 503.084L510.068 496.746L503.267 498.998L505.986 505.909L512.57 503.084Z" fill="black" fill-opacity="0.08"/>
<path d="M505.422 436.254C507.913 461.77 514.832 486.389 525.981 509.433L524.536 510.129C513.317 486.91 506.35 462.112 503.835 436.414L505.422 436.254Z" fill="black" fill-opacity="0.08"/>
<path d="M479.919 438.754C482.72 467.296 490.46 494.86 502.92 520.63L501.476 521.326C488.932 495.371 481.135 467.641 478.318 438.904L479.919 438.754Z" fill="black" fill-opacity="0.08"/>
<path d="M511.94 356.677C512.03 356.746 512.114 356.85 512.162 356.948C512.258 357.143 512.28 357.383 512.204 357.591C510.892 361.198 510.16 365.062 509.454 368.783C509.093 370.627 508.755 372.469 508.333 374.287L506.607 382.733L505.748 391.246C505.731 391.457 505.619 391.657 505.453 391.796C505.287 391.935 505.075 391.998 504.861 391.958L489.445 390.239L488.762 396.829L504.207 398C504.428 398.004 504.629 398.116 504.77 398.305C504.909 398.471 504.963 398.695 504.936 398.919C504.37 402.563 504.4 406.334 504.428 410.001C504.446 411.99 504.474 414.047 504.381 416.075C504.385 417.116 504.359 418.197 504.357 419.274C504.337 421.072 504.317 422.869 504.365 424.658L505.144 433.212C505.162 433.43 505.087 433.637 504.959 433.805C504.819 433.963 504.623 434.059 504.419 434.087L479.025 436.202C478.59 436.239 478.212 435.932 478.166 435.51C477.159 427.658 477.253 419.643 477.336 411.885C477.369 410.016 477.38 408.151 477.39 406.285C477.395 406.064 477.47 405.857 477.637 405.718C477.79 405.57 477.998 405.484 478.219 405.488L495.712 406.135C496.143 406.157 496.482 406.516 496.483 406.944L496.368 423.253C496.369 423.681 496.023 424.03 495.598 424.053L486.851 424.361C486.643 424.366 486.423 424.28 486.265 424.14C486.116 423.987 486.03 423.778 486.012 423.561L486.073 414.462C486.077 414.242 486.166 414.044 486.329 413.883C486.482 413.735 486.704 413.658 486.924 413.663L494.84 414.048L494.885 407.708L478.988 407.131C478.986 408.718 478.951 410.321 478.939 411.92C478.848 419.367 478.766 427.044 479.658 434.564L503.47 432.573L502.771 424.772C502.714 422.915 502.74 421.082 502.757 419.262C502.773 418.194 502.788 417.127 502.781 416.062C502.851 414.038 502.84 412.013 502.822 410.024C502.79 406.578 502.767 403.037 503.215 399.548L487.793 398.374C487.582 398.357 487.394 398.255 487.233 398.092C487.094 397.926 487.031 397.714 487.058 397.491L487.912 389.279C487.93 389.069 488.041 388.868 488.207 388.729C488.374 388.591 488.585 388.527 488.799 388.567L504.215 390.287L505.012 382.5L506.748 373.96C507.17 372.142 507.521 370.31 507.862 368.492C508.528 364.984 509.223 361.357 510.401 357.872L487.428 351.457C486.177 355.253 485.369 359.243 484.614 363.11L481.575 378.279L497.303 380.662L498.558 374.445L490.705 373.334C490.481 373.306 490.291 373.182 490.162 373.003C490.033 372.824 489.979 372.599 490.029 372.372L491.842 363.462C491.882 363.249 492.019 363.068 492.188 362.952C492.38 362.833 492.595 362.792 492.799 362.845L501.332 364.778C501.773 364.868 502.027 365.285 501.937 365.726L498.708 381.708C498.615 382.126 498.224 382.4 497.8 382.342L480.487 379.714C480.273 379.674 480.072 379.562 479.943 379.383C479.815 379.204 479.761 378.979 479.814 378.775L483.029 362.783C483.86 358.628 484.715 354.307 486.157 350.207C486.298 349.806 486.709 349.587 487.13 349.703L511.668 356.552C511.752 356.576 511.862 356.618 511.94 356.677ZM498.862 372.864L500.204 366.183L493.224 364.593L491.755 371.869L498.862 372.864ZM494.776 422.452L494.824 415.625L487.678 415.273L487.619 422.704L494.776 422.452Z" fill="black" fill-opacity="0.08"/>
<path d="M512.23 357.529C505.409 382.191 503.027 407.633 505.154 433.199L503.563 433.336C501.411 407.589 503.824 381.945 510.691 357.115L512.23 357.529Z" fill="black" fill-opacity="0.08"/>
<path d="M487.536 350.643C479.888 378.221 477.219 406.725 479.611 435.323L478.02 435.46C475.613 406.667 478.316 377.985 486.007 350.216L487.536 350.643Z" fill="black" fill-opacity="0.08"/>
<path d="M546.907 285.451C547.243 285.706 547.321 286.193 547.079 286.539L537.342 300.82C535.235 303.784 533.52 307.064 531.847 310.235C530.892 312.056 529.902 313.952 528.843 315.776C528.627 316.142 528.159 316.276 527.774 316.085L514.024 308.869L510.873 314.685L524.83 321.387C525.192 321.58 525.381 322.029 525.227 322.421L516.885 342.324L513.116 354.617C512.988 355.028 512.548 355.285 512.124 355.147L487.688 347.948C487.484 347.895 487.313 347.744 487.207 347.562C487.111 347.367 487.092 347.149 487.145 346.945L491.452 333.003L497.1 319.468C497.189 319.271 497.342 319.123 497.538 319.026C497.736 318.953 497.957 318.957 498.164 319.033L514.229 325.99C514.627 326.19 514.813 326.616 514.648 327.021C513.937 328.844 513.151 330.631 512.369 332.44C511.014 335.567 509.604 338.794 508.609 342.092C508.546 342.309 508.396 342.48 508.2 342.576C508.005 342.673 507.788 342.691 507.58 342.615L499.312 339.742C498.911 339.6 498.692 339.19 498.799 338.782C499.385 336.559 500.277 334.445 501.145 332.416C501.461 331.678 501.776 330.94 502.069 330.205C502.158 330.007 502.308 329.836 502.507 329.763C502.715 329.676 502.935 329.681 503.133 329.769L510.36 332.993C510.538 332.599 510.702 332.194 510.88 331.799C511.547 330.248 512.218 328.721 512.837 327.154L498.225 320.831L492.916 333.544L488.886 346.637L511.79 353.386L515.35 341.77L523.432 322.505L509.4 315.767C509.202 315.679 509.051 315.502 508.987 315.291C508.923 315.08 508.938 314.846 509.04 314.659L512.978 307.403C513.191 307.014 513.669 306.868 514.057 307.081L527.82 314.307C528.715 312.726 529.567 311.092 530.404 309.506C532.093 306.287 533.848 302.955 535.991 299.917L545.286 286.299L526.177 272.001L518.422 283.346C515.897 286.97 513.263 290.816 511.13 294.942L524.909 302.872C525.867 300.992 526.961 299.175 528.107 297.396L521.181 293.506C521.004 293.391 520.852 293.215 520.798 292.991C520.744 292.767 520.794 292.54 520.909 292.362L526.039 284.85C526.291 284.491 526.775 284.39 527.157 284.639L534.407 289.55C534.831 289.851 534.867 290.286 534.628 290.655C533.964 291.637 533.296 292.597 532.632 293.58C530.277 297.006 527.833 300.549 525.978 304.335C525.879 304.545 525.713 304.684 525.492 304.761C525.281 304.824 525.057 304.797 524.856 304.686L509.671 295.952C509.318 295.746 509.162 295.281 509.352 294.896C511.587 290.421 514.401 286.283 517.103 282.427L525.319 270.393C525.434 270.215 525.636 270.083 525.841 270.055C526.055 270.014 526.272 270.077 526.44 270.204L546.907 285.451ZM529.033 296.042C529.802 294.894 530.574 293.77 531.336 292.658C531.847 291.904 532.37 291.161 532.881 290.408L526.958 286.403L522.774 292.535L529.033 296.042ZM507.357 340.816C508.057 338.659 508.9 336.529 509.784 334.45L503.285 331.555C503.074 332.047 502.864 332.539 502.654 333.031C501.9 334.802 501.118 336.611 500.585 338.467L507.357 340.816Z" fill="black" fill-opacity="0.08"/>
<path d="M547.06 286.565C531.971 306.582 520.566 329.475 513.123 354.581L511.591 354.131C519.077 328.834 530.587 305.776 545.78 285.594L547.06 286.565Z" fill="black" fill-opacity="0.08"/>
<path d="M526.545 271.221C509.606 293.703 496.835 319.308 488.555 347.343L487.022 346.893C495.359 318.677 508.231 292.884 525.278 270.26L526.545 271.221Z" fill="black" fill-opacity="0.08"/>
</g>
<defs>
<radialGradient id="paint0_radial_56_726" cx="0" cy="0" r="1" gradientUnits="userSpaceOnUse" gradientTransform="translate(719 415) rotate(90) scale(933)">
<stop stop-color="#07DF61"/>
<stop offset="1"/>
</radialGradient>
<clipPath id="clip0_56_726">
<rect width="1440" height="831" fill="white"/>
</clipPath>
</defs>
</svg>
