<svg width="105" height="234" viewBox="0 0 105 234" fill="none" xmlns="http://www.w3.org/2000/svg">
<path d="M0.983398 211.707V0.464355H104.006V211.707L55.7269 233.756L0.983398 211.707Z" fill="url(#paint0_linear_124_1565)"/>
<path d="M5.12402 130.159V39.719H100.528L99.515 130.489L96.2741 130.159V153.429L100.528 156.73V211.027L65.8907 223.57C58.7608 217.365 45.8377 220.984 43.2045 223.57L5.12402 211.027V156.73L9.58025 153.429V130.159H5.12402Z" fill="url(#paint1_linear_124_1565)" stroke="url(#paint2_linear_124_1565)" stroke-width="0.993789"/>
<path d="M71.2212 127.147C76.406 121.963 77.7042 114.169 74.0007 110.47C70.2989 106.766 62.5077 108.064 57.3237 113.248C53.0706 117.503 52.1133 122.996 54.6941 126.997L53.3261 128.365C53.0839 128.609 52.91 128.912 52.822 129.244C52.734 129.576 52.7348 129.925 52.8245 130.257L43.4953 139.583L39.5007 142.191C39.5007 142.191 36.0248 145.665 31.8563 149.835C31.479 150.211 29.9666 150.809 29.9666 150.809C29.4767 151.038 29.3889 151.538 29.7709 151.919L32.5504 154.699C32.9324 155.081 33.4317 154.995 33.6607 154.505C33.6607 154.505 34.2585 152.991 34.6343 152.615L42.2803 144.97L44.8851 140.975L54.2143 131.646C54.5458 131.736 54.8951 131.737 55.2271 131.649C55.5591 131.561 55.8621 131.387 56.1056 131.144L57.4736 129.777C61.4759 132.359 66.9681 131.402 71.2212 127.147ZM59.0753 114.304L60.1048 115.332L58.7143 116.723L57.7329 115.741C58.0365 115.366 58.3563 114.995 58.7143 114.637C58.8307 114.522 58.9557 114.416 59.0753 114.304ZM67.6195 110.339L68.4425 111.162L67.0528 112.553L65.6622 111.162L66.3245 110.502C66.7526 110.422 67.185 110.367 67.6195 110.339ZM64.2748 119.502L62.8843 120.891L61.4938 119.501L62.8827 118.113L64.2748 119.502ZM63.5792 117.418L64.9697 116.027L66.3571 117.418L64.9697 118.808L63.5792 117.418ZM62.1902 121.586L60.7997 122.977L59.4091 121.588L60.7997 120.197L62.1902 121.586ZM62.1902 125.756L60.7997 127.145L59.4091 125.758L60.7997 124.366L62.1902 125.756ZM61.4938 123.671L62.8843 122.282L64.2748 123.671L62.8843 125.06L61.4938 123.671ZM64.9697 124.366L66.3571 125.758L64.9681 127.147L63.5776 125.758L64.9697 124.366ZM64.9681 122.977L63.5792 121.586L64.9697 120.197L66.3571 121.588L64.9681 122.977ZM65.6622 119.502L67.0528 118.113L68.4417 119.502L67.0528 120.891L65.6622 119.502ZM67.7476 117.418L69.1382 116.027L70.5271 117.418L69.1382 118.808L67.7476 117.418ZM71.2228 118.112L72.6118 119.502L71.2228 120.891L69.8338 119.501L71.2228 118.112ZM71.9177 117.418L73.3082 116.027L74.132 116.851C74.1039 117.286 74.0494 117.719 73.9689 118.147L73.3082 118.808L71.9177 117.418ZM71.2228 116.723L69.8338 115.331L71.2228 113.942L72.6118 115.331L71.2228 116.723ZM69.1382 114.638L67.7476 113.248L69.1382 111.857L70.5271 113.248L69.1382 114.638ZM68.4417 115.332L67.0528 116.723L65.6622 115.332L67.0528 113.943L68.4417 115.332ZM64.9697 114.638L63.5792 113.248L64.9697 111.859L66.3571 113.248L64.9697 114.638ZM64.2748 115.332L62.8843 116.723L61.4938 115.331L62.8843 113.942L64.2748 115.332ZM62.1902 117.418L60.7997 118.807L59.4107 117.418L60.7997 116.027L62.1902 117.418ZM60.1048 119.502L58.7143 120.891L57.3237 119.502L58.7143 118.113L60.1048 119.502ZM58.0194 121.586L56.6304 122.975L55.2764 121.623L55.281 121.547L56.6304 120.197L58.0194 121.586ZM58.7143 122.282L60.1048 123.671L58.7143 125.061L57.3237 123.671L58.7143 122.282ZM60.1048 127.842L59.3711 128.575C58.7615 128.291 58.1961 127.921 57.6925 127.475L58.7143 126.453L60.1048 127.842ZM60.7997 128.537L61.4138 129.15C61.0694 129.105 60.7287 129.036 60.3944 128.942L60.7997 128.537ZM62.8478 129.196L61.4938 127.842L62.8843 126.451L64.2748 127.842L62.9254 129.191L62.8478 129.196ZM64.9697 128.536L65.1716 128.738C64.9806 128.802 64.7888 128.857 64.597 128.909L64.9697 128.536ZM65.6638 127.842L67.0528 126.453L67.9355 127.334C67.3556 127.734 66.7632 128.07 66.1646 128.343L65.6638 127.842ZM65.6638 123.671L67.0528 122.282L68.4417 123.671L67.0528 125.061L65.6638 123.671ZM67.7492 121.586L69.1382 120.197L70.5287 121.586L69.1382 122.977L67.7492 121.586ZM71.2228 122.282L71.9907 123.05C71.6413 123.603 71.2469 124.14 70.8198 124.658L69.833 123.671L71.2228 122.282ZM71.9161 121.588L73.3082 120.197L73.375 120.264C73.1366 120.905 72.847 121.546 72.5054 122.175L71.9161 121.588ZM74.0007 115.332L74.1009 115.233C74.1094 115.311 74.125 115.384 74.132 115.463L74.0007 115.332ZM73.3082 114.638L71.9177 113.248L72.9309 112.234C73.3563 112.763 73.6692 113.383 73.8711 114.075L73.3082 114.638ZM71.2228 112.553L69.8338 111.162L70.3967 110.599C71.0885 110.801 71.708 111.114 72.2368 111.539L71.2228 112.553ZM69.1382 110.468L69.0085 110.338C69.0869 110.345 69.1599 110.361 69.2368 110.37L69.1382 110.468ZM64.2748 111.162L62.8843 112.553L62.2966 111.965C62.9254 111.623 63.5667 111.334 64.208 111.095L64.2748 111.162ZM62.1902 113.248L60.7997 114.638L59.8129 113.651C60.3235 113.227 60.8608 112.836 61.4216 112.48L62.1902 113.248ZM58.0194 117.418L56.6304 118.808L56.1289 118.307C56.4021 117.708 56.7376 117.115 57.1382 116.535L58.0194 117.418ZM55.9348 119.502L55.5629 119.874C55.6133 119.682 55.6692 119.492 55.7337 119.3L55.9348 119.502ZM55.9348 123.671L55.5303 124.076C55.4367 123.742 55.3671 123.402 55.3222 123.058L55.9348 123.671ZM56.6304 124.366L58.0194 125.756L56.9976 126.78C56.5515 126.276 56.1804 125.711 55.8959 125.101L56.6304 124.366ZM68.7313 126.738L67.7484 125.756L69.1374 124.366L70.1669 125.397C70.0551 125.516 69.9503 125.64 69.833 125.756C69.4759 126.114 69.1063 126.435 68.7313 126.738ZM58.5279 137.346C57.8105 138.064 57.4074 139.038 57.4074 140.053C57.4074 141.068 57.8105 142.042 58.5279 142.76L63.9402 137.346C63.2223 136.629 62.2489 136.226 61.2341 136.226C60.2192 136.226 59.2458 136.629 58.5279 137.346ZM66.6467 140.051L65.2942 138.7L59.8804 144.113L61.2329 145.465L65.2927 154.936L66.6467 153.584L65.8354 151.691L67.1894 150.337L68.3377 151.893L69.6917 150.539L68.5427 148.984L69.8967 147.63L71.3827 148.848L72.7352 147.495L71.2492 146.278L72.8734 144.654L74.7663 145.465L76.118 144.113L66.6467 140.051ZM67.1894 142.218L66.7818 142.626L65.2927 141.405L67.1894 142.218ZM63.3998 146.009L62.5869 144.113L63.7375 145.67L63.3998 146.009ZM65.4285 143.979L65.09 144.318L63.9394 142.759L65.4285 143.979ZM65.0225 149.796L64.2127 147.904L64.8889 147.228L66.0372 148.781L65.0225 149.796ZM67.3913 147.427L66.243 145.874L66.9208 145.196L68.4053 146.412L67.3913 147.427ZM69.7585 145.06L68.274 143.844L69.0869 143.031L70.9767 143.841L69.7585 145.06Z" fill="#0BB049"/>
<path d="M8.89289 195.296C8.89289 195.851 9.3401 196.334 9.93041 196.334H12.1128C15.1001 196.334 15.923 194.545 15.923 192.542C15.923 190.968 15.2074 189.662 13.5438 189.411C14.9749 188.892 15.6367 188.016 15.6367 186.317C15.6367 184.17 14.5456 182.828 11.8444 182.828H9.93041C9.3401 182.828 8.89289 183.293 8.89289 183.866V195.296ZM12.077 190.395C13.4186 190.395 13.7943 191.093 13.7943 192.416C13.7943 193.704 13.4544 194.509 12.0054 194.509H10.95V190.395H12.077ZM11.8802 184.671C13.1682 184.671 13.5259 185.351 13.5259 186.621C13.5259 187.64 13.3113 188.66 12.0054 188.66H10.95V184.671H11.8802ZM23.7514 195.583C23.8409 196.101 24.2702 196.459 24.7889 196.459C25.4687 196.459 25.9517 195.833 25.8265 195.171L25.7549 194.885L23.3937 183.723C23.2863 183.186 22.9107 182.703 22.052 182.703C21.1934 182.703 20.7999 183.222 20.6925 183.687L18.0809 194.885L17.9914 195.225C17.8662 195.851 18.3313 196.459 18.9753 196.459C19.4583 196.459 19.8697 196.101 19.9591 195.636L20.4063 193.382H23.34L23.7514 195.583ZM21.9626 185.708L23.0001 191.504H20.782L21.9626 185.708ZM31.5321 196.334C34.43 196.334 35.5569 194.742 35.5569 191.951V187.3C35.5569 184.403 34.4121 182.828 31.5321 182.828H29.4928C28.9025 182.828 28.4553 183.293 28.4553 183.866V195.296C28.4553 195.851 28.9025 196.334 29.4928 196.334H31.5321ZM31.5321 184.725C32.981 184.725 33.4819 185.422 33.4819 186.961V192.255C33.4819 193.615 32.981 194.42 31.5321 194.42H30.5125V184.725H31.5321ZM39.7465 182.703C39.0131 182.703 38.6733 183.222 38.6733 183.741V195.457C38.6733 195.994 39.0847 196.459 39.6392 196.459C40.1759 196.459 40.6052 195.994 40.6052 195.457V191.54L40.4978 186.656L42.2688 191.075C42.394 191.433 42.7518 191.665 43.1274 191.665C43.521 191.665 43.8787 191.415 44.0039 191.075L45.8464 186.37L45.7391 191.451V195.457C45.7391 195.994 46.1505 196.459 46.7051 196.459C47.2596 196.459 47.671 195.994 47.671 195.457V183.669C47.671 183.043 47.1701 182.703 46.5619 182.703C45.8822 182.703 45.5781 183.115 45.4171 183.49L43.1632 188.803L40.9272 183.49C40.6767 182.882 40.2116 182.703 39.7465 182.703ZM53.0271 183.741C53.0271 183.168 52.5799 182.703 52.0075 182.703C51.4172 182.703 50.97 183.168 50.97 183.741V195.404C50.97 195.976 51.4172 196.459 52.0075 196.459C52.5799 196.459 53.0271 195.976 53.0271 195.404V183.741ZM61.6805 195.636C61.8594 196.084 62.2172 196.459 62.8254 196.459C63.3799 196.459 63.845 196.119 63.845 195.583V183.651C63.845 183.132 63.4515 182.703 62.9148 182.703C62.3961 182.703 62.0025 183.132 62.0025 183.651V187.998L62.0383 192.202L58.4249 183.383C58.2281 182.9 57.8167 182.703 57.3337 182.703C56.6897 182.703 56.3141 183.132 56.3141 183.669V195.493C56.3141 196.012 56.7076 196.459 57.2264 196.459C57.763 196.459 58.1566 196.012 58.1566 195.493V191.003L58.1029 187.032L61.6805 195.636ZM71.8838 184.707C72.4026 184.707 72.814 184.277 72.814 183.759C72.814 183.258 72.4026 182.828 71.8838 182.828H67.3939C66.8751 182.828 66.4637 183.258 66.4637 183.759C66.4637 184.277 66.8751 184.707 67.3939 184.707H68.6639V195.404C68.6639 195.976 69.1111 196.459 69.6836 196.459C70.2739 196.459 70.7211 195.976 70.7211 195.404V184.707H71.8838ZM74.9639 191.951C74.9639 194.599 75.7868 196.459 78.6847 196.459C81.5289 196.459 82.3339 194.652 82.3339 191.951V187.283C82.3339 184.581 81.5468 182.703 78.6847 182.703C75.8941 182.703 74.9639 184.581 74.9639 187.283V191.951ZM77.039 186.907C77.039 185.369 77.4683 184.599 78.6847 184.599C79.8832 184.599 80.2588 185.386 80.2588 186.907V192.291C80.2588 193.687 79.9547 194.545 78.6668 194.545C77.3967 194.545 77.039 193.669 77.039 192.291V186.907ZM90.8146 195.636C90.9934 196.084 91.3512 196.459 91.9594 196.459C92.5139 196.459 92.979 196.119 92.979 195.583V183.651C92.979 183.132 92.5855 182.703 92.0488 182.703C91.5301 182.703 91.1365 183.132 91.1365 183.651V187.998L91.1723 192.202L87.5589 183.383C87.3621 182.9 86.9507 182.703 86.4677 182.703C85.8237 182.703 85.4481 183.132 85.4481 183.669V195.493C85.4481 196.012 85.8416 196.459 86.3604 196.459C86.897 196.459 87.2906 196.012 87.2906 195.493V191.003L87.2369 187.032L90.8146 195.636Z" fill="#0BB049"/>
<defs>
<linearGradient id="paint0_linear_124_1565" x1="52.4948" y1="0.464355" x2="52.6284" y2="346.303" gradientUnits="userSpaceOnUse">
<stop offset="0.078125" stop-color="#08CE5B" stop-opacity="0"/>
<stop offset="1" stop-color="#08D55E"/>
</linearGradient>
<linearGradient id="paint1_linear_124_1565" x1="52.8259" y1="39.719" x2="52.8502" y2="173.835" gradientUnits="userSpaceOnUse">
<stop offset="0.46875" stop-color="#033B1C" stop-opacity="0"/>
<stop offset="1" stop-color="#055126"/>
</linearGradient>
<linearGradient id="paint2_linear_124_1565" x1="52.8259" y1="39.719" x2="52.8259" y2="223.57" gradientUnits="userSpaceOnUse">
<stop stop-color="#1B8929" stop-opacity="0"/>
<stop offset="1" stop-color="#1B8F27"/>
</linearGradient>
</defs>
</svg>
