<svg width="104" height="234" viewBox="0 0 104 234" fill="none" xmlns="http://www.w3.org/2000/svg">
<path d="M0 211.415V0.172363H103.023V211.415L54.7435 233.464L0 211.415Z" fill="url(#paint0_linear_124_1537)"/>
<path d="M3.97559 129.867V39.427H99.3793L98.3665 130.197L95.1256 129.867V153.137L99.3793 156.438V210.735L64.7423 223.278C57.6123 217.073 44.6893 220.692 42.056 223.278L3.97559 210.735V156.438L8.43181 153.137V129.867H3.97559Z" fill="url(#paint1_linear_124_1537)" stroke="url(#paint2_linear_124_1537)" stroke-width="0.993789"/>
<path d="M34.4767 154.455L61.0101 127.92L55.1095 122.02L55.7209 121.408L28.5761 148.554C28.5761 150.914 32.1184 154.455 34.4767 154.455ZM60.8451 149.987C61.0989 149.999 61.3531 149.979 61.6021 149.929C61.2236 147.867 60.2628 146.195 58.6615 144.836C58.2323 145.324 57.9668 145.934 57.9024 146.58C57.838 147.227 57.9779 147.877 58.3024 148.44C58.5629 148.89 58.9321 149.267 59.3764 149.538C59.8207 149.808 60.3257 149.962 60.8451 149.987ZM63.184 149.079C63.6675 148.596 63.9781 147.967 64.0676 147.289C64.157 146.612 64.0205 145.923 63.679 145.331C63.337 144.739 62.8092 144.277 62.1775 144.015C61.5458 143.754 60.8455 143.708 60.1852 143.885C61.6895 145.312 62.6988 147.067 63.184 149.079ZM60.6219 125.087C64.2613 119.506 70.651 114.693 74.6689 109.665C75.1367 109.093 73.9313 107.899 73.3558 108.355C68.3354 112.373 63.5237 118.769 57.9434 122.408L60.6219 125.087Z" fill="#0BB049"/>
<path d="M26.8686 194.253C25.5091 194.253 24.7041 193.681 24.7041 192.017V186.615C24.7041 184.916 25.4912 184.325 26.8328 184.325C27.3516 184.325 27.8345 184.486 28.2817 184.486C28.6932 184.486 29.033 184.111 29.033 183.663C29.033 183.109 28.7111 182.841 28.3175 182.68C27.7093 182.447 27.0832 182.411 26.6539 182.411C23.8634 182.411 22.6291 183.985 22.6291 186.883V191.767C22.6291 194.718 23.8634 196.167 26.4929 196.167C27.1011 196.167 27.8882 196.096 28.5322 195.756C28.8005 195.595 28.9973 195.309 28.9973 194.933C28.9973 194.486 28.7289 194.146 28.3354 194.092C27.8345 194.003 27.3694 194.253 26.8686 194.253ZM38.5524 186.722C38.5524 184.254 37.5506 182.536 34.456 182.536H32.6135C32.0232 182.536 31.576 183.001 31.576 183.574V195.112C31.576 195.666 32.0232 196.149 32.6135 196.149C33.1859 196.149 33.6331 195.666 33.6331 195.112V190.89H34.9032L36.4237 195.452C36.5668 195.845 36.8888 196.149 37.4254 196.149C38.2661 196.149 38.606 195.416 38.3914 194.826L36.8172 190.425C38.0515 189.763 38.5524 188.457 38.5524 186.722ZM34.3307 184.433C36.0838 184.433 36.4416 185.184 36.4416 186.794C36.4416 188.135 36.209 189.048 34.3665 189.048H33.6331V184.433H34.3307ZM43.4667 183.449C43.4667 182.876 43.0195 182.411 42.4471 182.411C41.8568 182.411 41.4096 182.876 41.4096 183.449V195.112C41.4096 195.684 41.8568 196.167 42.4471 196.167C43.0195 196.167 43.4667 195.684 43.4667 195.112V183.449ZM50.8143 194.253C49.4548 194.253 48.6498 193.681 48.6498 192.017V186.615C48.6498 184.916 49.4369 184.325 50.7785 184.325C51.2973 184.325 51.7803 184.486 52.2275 184.486C52.6389 184.486 52.9788 184.111 52.9788 183.663C52.9788 183.109 52.6568 182.841 52.2632 182.68C51.655 182.447 51.029 182.411 50.5996 182.411C47.8091 182.411 46.5748 183.985 46.5748 186.883V191.767C46.5748 194.718 47.8091 196.167 50.4386 196.167C51.0468 196.167 51.8339 196.096 52.4779 195.756C52.7462 195.595 52.943 195.309 52.943 194.933C52.943 194.486 52.6747 194.146 52.2811 194.092C51.7803 194.003 51.3152 194.253 50.8143 194.253ZM57.5788 183.449C57.5788 182.876 57.1316 182.411 56.5592 182.411C55.9689 182.411 55.5217 182.876 55.5217 183.449V195.112C55.5217 195.684 55.9689 196.167 56.5592 196.167C57.1316 196.167 57.5788 195.684 57.5788 195.112V190.121H58.6163L60.3336 195.452C60.4588 195.863 60.8166 196.167 61.3175 196.167C61.9257 196.167 62.3729 195.72 62.3729 195.148C62.3729 195.04 62.355 194.915 62.3192 194.826L60.2442 188.761L62.2298 183.735C62.2655 183.628 62.3013 183.502 62.3013 183.377C62.3013 182.841 61.872 182.411 61.2459 182.411C60.745 182.411 60.4052 182.697 60.28 183.109L58.6521 188.225H57.5788V183.449ZM70.1565 184.415C70.6752 184.415 71.0867 183.985 71.0867 183.467C71.0867 182.966 70.6752 182.536 70.1565 182.536H66.0959C65.5055 182.536 65.0583 183.001 65.0583 183.574V195.004C65.0583 195.559 65.5055 196.042 66.0959 196.042H70.1565C70.6752 196.042 71.0867 195.613 71.0867 195.094C71.0867 194.593 70.6752 194.164 70.1565 194.164H67.1155V190.103H69.6914C70.1744 190.103 70.5858 189.71 70.5858 189.209C70.5858 188.708 70.1744 188.314 69.6914 188.314H67.1155V184.415H70.1565ZM78.6715 184.415C79.1903 184.415 79.6017 183.985 79.6017 183.467C79.6017 182.966 79.1903 182.536 78.6715 182.536H74.1816C73.6628 182.536 73.2514 182.966 73.2514 183.467C73.2514 183.985 73.6628 184.415 74.1816 184.415H75.4517V195.112C75.4517 195.684 75.8989 196.167 76.4713 196.167C77.0616 196.167 77.5088 195.684 77.5088 195.112V184.415H78.6715Z" fill="#0BB049"/>
<defs>
<linearGradient id="paint0_linear_124_1537" x1="51.5114" y1="0.172363" x2="51.645" y2="346.011" gradientUnits="userSpaceOnUse">
<stop offset="0.078125" stop-color="#08CE5B" stop-opacity="0"/>
<stop offset="1" stop-color="#08D55E"/>
</linearGradient>
<linearGradient id="paint1_linear_124_1537" x1="51.6774" y1="39.427" x2="51.7017" y2="173.543" gradientUnits="userSpaceOnUse">
<stop offset="0.46875" stop-color="#033B1C" stop-opacity="0"/>
<stop offset="1" stop-color="#055126"/>
</linearGradient>
<linearGradient id="paint2_linear_124_1537" x1="51.6774" y1="39.427" x2="51.6774" y2="223.278" gradientUnits="userSpaceOnUse">
<stop stop-color="#1B8929" stop-opacity="0"/>
<stop offset="1" stop-color="#1B8F27"/>
</linearGradient>
</defs>
</svg>
