<svg width="1439" height="630" viewBox="0 0 1439 630" fill="none" xmlns="http://www.w3.org/2000/svg">
<g clip-path="url(#clip0_89_8425)">
<path fill-rule="evenodd" clip-rule="evenodd" d="M720.542 8C720.542 8 728.756 29.172 748.364 35.26C748.364 35.26 748.663 11.244 720.542 8ZM646.772 95.6067C646.772 95.6067 639.044 89.7561 630.556 91.9387C630.556 91.9387 635.829 100.729 646.772 95.6067ZM725.297 107.228C725.297 107.228 713.032 121.504 705.248 115.643C705.248 115.643 712.068 102.892 725.297 107.228ZM985.565 594.397L987.349 597.837L990.072 591.513L991.892 598.529L993.972 601.693L996.64 596.08L999.027 594.736L1001.15 597.161L1003.47 596.851L1006 593.429L1008.09 596.395L1010.27 598.255L1012.24 603.199L1013.35 601.302L1013.09 599.239L1014.08 600.058L1016.41 596.1L1015.15 599.787L1017.07 600.955L1016.35 595.683L1019.65 597.279L1021.45 595.851L1020.8 589.435L1025.97 594.827L1027.44 592.737L1031.64 596.167L1031.03 589.852L1033.06 587.709L1034.8 592.429L1037.43 592.324L1041.74 588.877L1042.75 591.999L1044.51 593.623L1046.03 595.772L1047.47 598.085L1051.08 595.947L1053.88 595.444L1053.78 600.96L1058.44 596.555L1058.21 602.392L1061.45 600.899L1062.6 603.883L1063.22 608.103L1065.33 609.119L1066.92 611.391L1071.74 605.773L1071.65 612.853L1075.25 614.777L1076.64 605.068L1078.45 603.62L1083.57 611.831L1085.29 609.596L1084.71 601.041L1087.46 601.931L1090.82 604.385L1093.89 605.975L1093.76 599.064L1098.57 605.208L1098.45 598.427L1100.73 597.895L1102.38 595.781L1106.3 599.485L1107.07 595.133L1108.1 591.429L1112.61 596.609L1112.37 589.74L1116.09 592.879L1118.78 593.427L1122.6 596.756L1120.9 586.311L1126.97 595.241L1127.07 588.652L1129.54 589.169L1131.77 588.181L1134.08 588.064L1137.04 593.873L1138.97 590.315L1140.75 585.332L1143.5 589.252L1145.33 584.825L1147.98 587.833L1149.92 584.403L1152.88 590.192L1154.48 583.661L1156.91 584.655L1159.2 584.388L1162.33 591.653L1164.37 589.188L1166.15 584.292L1168.58 585.264L1170.71 583.628L1173.06 583.883L1175.69 586.747L1177.46 581.847L1180.43 587.675L1180.69 586.668C1180.74 586.372 1180.79 586.077 1180.85 585.782C1180.8 578.344 1181.19 571.011 1181.94 563.809C1177.08 550.221 1174.76 535.536 1173.87 521.74C1172.85 505.952 1173.7 491.231 1174.8 480.461C1175.26 475.953 1175.77 472.135 1176.2 469.217C1176.31 461.597 1177.06 448.795 1180.61 443.364C1185.83 435.388 1188.07 434.956 1188.07 434.956L1186.07 443.335L1187.68 442.955C1187.68 442.955 1187.81 450.492 1184.51 454.487L1187.1 454.639C1187.1 454.639 1187.77 468.012 1177.49 474.493C1177.26 476.361 1177.02 478.427 1176.79 480.665C1175.69 491.362 1174.85 505.966 1175.86 521.611C1176.66 533.992 1178.61 546.966 1182.48 559.155C1183.73 549.314 1185.66 539.73 1188.09 530.466C1186.25 502.695 1189.32 476.148 1193.96 453.609C1198.03 433.803 1203.33 417.068 1207.61 405.282C1209.26 400.75 1210.75 396.949 1211.97 393.985C1213.1 386.563 1215.98 373 1222.37 367.697C1231.37 360.227 1234.82 360 1234.82 360L1230.63 368.164L1233.12 367.932C1233.12 367.932 1232.28 375.449 1226.73 379.128L1230.63 379.513C1230.63 379.513 1229.75 393.51 1212.2 398.776C1211.37 400.904 1210.45 403.308 1209.49 405.965C1205.24 417.68 1199.97 434.32 1195.91 454.013C1191.63 474.827 1188.71 499.025 1189.77 524.407C1193.19 512.645 1197.39 501.438 1202.03 490.923C1205.16 475.214 1208.58 461.91 1211.38 452.095C1212.98 446.503 1214.37 442.043 1215.39 438.916C1216.58 431.312 1219.01 419.572 1223.08 414.875C1229.32 407.668 1231.59 407.541 1231.59 407.541L1228.49 415.576L1230.14 415.415C1230.14 415.415 1229.25 422.901 1225.45 426.419L1227.99 426.915C1227.99 426.915 1226.84 440.574 1215.42 445.477C1214.78 447.595 1214.06 449.991 1213.31 452.644C1211.04 460.589 1208.36 470.834 1205.76 482.797C1209.95 474.028 1214.39 465.802 1218.87 458.208C1229.13 440.783 1239.55 426.659 1247.41 416.89C1250.43 413.133 1253.08 410.019 1255.19 407.609C1258.66 400.951 1265.77 389.048 1273.53 386.095C1284.46 381.935 1287.8 382.837 1287.8 382.837L1281.19 389.206L1283.63 389.794C1283.63 389.794 1280.39 396.634 1273.96 398.321L1277.53 399.947C1277.53 399.947 1272.17 412.909 1253.86 412.218C1252.38 413.962 1250.74 415.941 1248.97 418.144C1241.15 427.854 1230.79 441.898 1220.59 459.223C1214.82 469.013 1209.12 479.845 1203.95 491.529C1203.38 494.376 1202.83 497.302 1202.29 500.3C1200.19 511.989 1198.32 524.774 1197.03 538.269C1200.6 530.82 1204.22 524.222 1207.37 518.849C1209.66 514.941 1211.71 511.679 1213.31 509.204C1216.58 502.321 1222.58 490.984 1228.07 487.519C1228.46 487.273 1228.83 487.04 1229.2 486.819C1229.46 486.66 1229.72 486.507 1229.96 486.361C1232.52 474.657 1235.15 464.62 1237.38 456.8C1238.98 451.204 1240.37 446.742 1241.39 443.615C1242.58 436.01 1245.01 424.275 1249.07 419.579C1255.31 412.372 1257.59 412.246 1257.59 412.246L1254.49 420.28L1256.13 420.12C1256.13 420.12 1255.25 427.607 1251.44 431.123L1253.99 431.619C1253.99 431.619 1252.83 445.279 1241.42 450.182C1240.77 452.299 1240.06 454.696 1239.31 457.348C1237.19 464.747 1234.73 474.139 1232.3 485.056C1236.94 482.627 1238.35 482.968 1238.35 482.968L1233.04 489.759L1234.67 490.083C1234.67 490.083 1232.8 494.352 1229.74 497.278C1229.66 497.707 1229.57 498.137 1229.49 498.57C1229.43 498.88 1229.37 499.192 1229.31 499.505C1229.25 499.799 1229.2 500.095 1229.14 500.391L1229.29 500.468C1229.29 500.468 1229.26 500.549 1229.19 500.699C1229.14 500.802 1229.08 500.938 1229.01 501.102C1228.76 502.388 1228.53 503.69 1228.29 505.005C1227.23 510.912 1226.22 517.1 1225.33 523.517C1231.86 513.377 1238.51 503.976 1244.93 495.454C1250.75 487.714 1256.39 480.695 1261.59 474.504C1266.15 460.385 1270.68 448.466 1274.32 439.565C1276.52 434.18 1278.39 429.898 1279.75 426.902C1281.77 419.474 1285.47 408.075 1290.03 403.853C1297.02 397.377 1299.3 397.501 1299.3 397.501L1295.33 405.145L1296.98 405.168C1296.98 405.168 1295.28 412.51 1291.11 415.588L1293.59 416.361C1293.59 416.361 1290.94 429.811 1279.06 433.43C1278.18 435.464 1277.21 437.768 1276.17 440.322C1272.95 448.189 1269.03 458.427 1265.02 470.465C1269.2 465.6 1273.02 461.33 1276.36 457.718C1280.3 453.441 1283.56 450.084 1285.87 447.75C1290.37 441.499 1297.82 432.115 1303.56 429.753C1312.38 426.13 1314.47 427.044 1314.47 427.044L1308.08 432.817L1309.62 433.417C1309.62 433.417 1305.46 439.702 1300.48 441.128L1302.53 442.72C1302.53 442.72 1295.34 454.392 1282.94 453.627C1281.41 455.227 1279.7 457.046 1277.83 459.074C1273.68 463.565 1268.77 469.077 1263.38 475.491C1262.24 479.021 1261.1 482.688 1259.98 486.479C1256.93 496.786 1253.97 508.007 1251.38 519.885C1254.99 514.98 1258.32 510.647 1261.24 506.951C1264.84 502.39 1267.83 498.797 1269.96 496.293C1273.96 489.718 1280.68 479.786 1286.23 476.993C1294.74 472.708 1296.9 473.457 1296.9 473.457L1290.96 479.703L1292.55 480.183C1292.55 480.183 1288.88 486.768 1284.02 488.568L1286.19 489.999C1286.19 489.999 1279.91 502.186 1267.49 502.37C1266.09 504.082 1264.52 506.027 1262.81 508.192C1259.2 512.752 1254.97 518.286 1250.36 524.674C1249.23 530.142 1248.19 535.738 1247.25 541.439C1255.3 534.311 1263.25 527.787 1270.83 521.902C1271.43 521.436 1272.03 520.973 1272.63 520.515C1276.06 515.765 1279.43 511.2 1282.71 506.853C1293.6 492.418 1303.4 480.379 1310.48 471.948C1312.04 470.09 1313.47 468.407 1314.75 466.912C1314.36 457.445 1323.89 449.012 1323.89 449.012L1325.42 450.246C1326.5 445.794 1332.02 440.667 1332.02 440.667L1332.62 441.76L1337.58 434.956C1337.58 434.956 1338.5 436.41 1335.58 444.594C1333.6 450.161 1324.77 459.355 1319.33 464.664C1317.44 466.832 1314.97 469.718 1312.01 473.234C1304.95 481.644 1295.17 493.655 1284.31 508.057C1282.29 510.733 1280.24 513.492 1278.15 516.325C1290.98 506.743 1302.42 499.149 1311.06 493.728C1315.99 490.635 1320.01 488.249 1322.86 486.604C1328.83 481.75 1338.48 474.65 1344.65 473.877C1354.1 472.692 1355.88 474.122 1355.88 474.122L1348.2 478.017L1349.53 479.001C1349.53 479.001 1343.87 483.974 1338.69 484.044L1340.25 486.118C1340.25 486.118 1330.25 495.497 1318.49 491.507C1316.59 492.65 1314.46 493.956 1312.12 495.422C1302.35 501.552 1288.98 510.476 1274.08 521.923C1268 530.343 1261.76 539.338 1255.61 548.724C1259.06 545.365 1262.62 542.186 1266.19 539.197C1278.32 529.044 1290.7 521.027 1300.04 515.55C1303.95 513.257 1307.33 511.407 1309.94 510.031C1316.15 505.62 1326.92 498.658 1333.4 498.313C1342.91 497.805 1344.59 499.358 1344.59 499.358L1336.64 502.695L1337.9 503.771C1337.9 503.771 1331.9 508.329 1326.73 508.029L1328.14 510.209C1328.14 510.209 1317.74 518.652 1306.44 514.196C1304.8 515.109 1302.99 516.137 1301.05 517.275C1291.77 522.715 1279.5 530.67 1267.47 540.731C1261.46 545.764 1255.53 551.308 1250.07 557.313C1247.99 560.593 1245.94 563.911 1243.91 567.261C1243.54 571.183 1243.24 575.135 1243 579.11L1244.5 580.665L1246.67 579.353L1248.38 573.944L1250.4 571.276L1252.82 572.201L1255.95 579.613L1257.81 575.509L1260.34 577.444L1262.9 579.632L1264.76 575.485L1267.59 580.229L1269.36 575.309L1271.53 574.541L1273.94 572.452L1276.23 572.219L1278.54 571.797L1280.83 571.529L1282.86 574.159L1285.43 570.88L1287.65 571.316L1290.03 570.116L1291.48 578.783L1293.69 579.375L1295.86 580.376L1298.09 580.693L1300.32 581.043L1303.33 573.027L1305.74 571.436L1307.83 573.308L1309.28 582.063L1311.69 580.42L1314.51 574.429L1316.27 579.852L1319.11 573.625L1321.02 577.349L1323.12 579.133L1325.5 577.805L1327.47 580.939L1329.39 584.471L1332.38 581.376L1334.35 578.959L1336.61 578.365L1337.56 574.584L1338.56 570.925L1344.34 579.021L1345.43 575.591L1346.22 571.407L1349.77 574.035L1351.63 572.5L1354 572.228L1356.45 572.144L1356.66 566.552L1360.86 570.783L1359.99 562.531L1362.38 562.295L1367.41 568.565L1370.53 570.144L1368.34 558.635L1374.5 567.685L1372.64 557L1378.52 565.379L1378.75 559.839L1381.1 564.148L1384.49 557.68L1383.34 566.228L1388.31 560.497L1388.99 564.771L1392.74 561.863L1391.92 569.629L1397.62 562.176L1398.99 564.82L1399.71 568.965L1403.26 566.515L1406.8 564.113L1405.41 573.195L1408.09 572.775L1410.57 572.827L1411.82 575.772L1417.01 569.491L1415.39 579.104L1420.45 573.149L1420.34 579.24L1425.81 572.313L1427.72 573.676L1427.82 579.272L1430.38 579.137L1432.41 580.245L1436.18 577.264L1435.22 585.335L1439.99 580.024L1439.61 586.731L1443.7 583.025L1445.22 585.303L1444.71 592.319L1448.52 589.249L1453.04 584.553L1452.12 592.513L1452.82 596.72L1455.69 595.856L1461.21 588.803L1460.87 595.431L1465.59 590.243L1466.64 593.641L1465.61 601.875L1469.4 598.856L1471.53 599.721L1470.48 601.903L1473.48 602.868L1479.64 604.089L1476.51 606.377L1471.32 608.661L1479.4 610.948L1470.25 613.232L1470.41 615.515L1477.53 617.799L1469.45 620.077L1479.55 622.36L1475.97 624.645L1474.06 626.927L1476.99 629.209L1478.69 631.491L1475.76 633.775L1473.14 636.056L1479.58 638.335L1473.59 640.616L1479.35 642.897L1470.78 645.176L1475.37 647.453L1469 649.731L1469.93 652.013L1478.8 654.292L1479.31 656.568L1474.98 658.843L1477.8 661.116L1478.94 663.391L1471.16 665.668L1478.72 667.949L1480.1 670.229L1477.23 672.508L1478.09 674.787L1478.98 677.067L1468.77 679.348L1470.71 681.627L1476.19 683.905L1470.15 686.183L1469.95 688.461L1468.68 690.741L1473.81 693.021L1473.19 695.3L1472.82 697.577L1476.53 699.855L1473.2 702.131L1476.38 704.409L1471.23 706.688L1476.36 708.968L1470.62 707.708L1471.81 716.427L1469.51 717.059L1467.21 705.485L1464.91 706.22L1462.61 715.916L1460.31 714.009L1458.02 712.457L1455.72 714.735L1453.43 707.503L1451.13 706.509L1448.83 715.336L1446.54 714.707L1444.24 709.177L1442 716.542V1461H-5V686.916L-6.13866 683.177L-8.43467 688.707L-10.7307 689.336L-13.028 680.509L-15.324 681.503L-17.616 688.735L-19.9133 686.457L-22.208 688.009L-24.5053 689.916L-26.8053 680.22L-29.1027 679.485L-31.4053 691.059L-33.7107 690.427L-32.52 681.708L-38.2547 682.968L-33.1267 680.688L-38.28 678.409L-35.1 676.131L-38.4307 673.855L-34.712 671.577L-35.0827 669.3L-35.7027 667.021L-30.5733 664.741L-31.844 662.461L-32.0493 660.183L-38.084 657.905L-32.6013 655.627L-30.664 653.348L-40.8747 651.067L-39.9893 648.787L-39.1253 646.508L-42 644.229L-40.6173 641.949L-33.06 639.668L-40.84 637.391L-39.6933 635.116L-36.876 632.843L-41.2013 630.568L-40.6987 628.292L-31.8307 626.013L-30.8987 623.731L-37.2693 621.453L-32.6747 619.176L-41.2427 616.897L-35.488 614.616L-41.4773 612.335L-35.032 610.056L-37.6573 607.775L-40.5893 605.491L-38.884 603.209L-35.956 600.927L-37.868 598.645L-41.4413 596.36L-31.344 594.077L-39.4267 591.799L-32.3107 589.515L-32.1427 587.232L-41.2987 584.948L-33.212 582.661L-38.4067 580.377L-41.5347 578.089L-35.3733 576.868L-32.3787 575.903L-33.4253 573.721L-31.2987 572.856L-27.504 575.875L-28.5347 567.641L-27.4907 564.243L-22.7667 569.431L-23.1107 562.803L-17.5867 569.856L-14.7147 570.72L-14.0173 566.513L-14.932 558.553L-10.4173 563.249L-6.60667 566.319L-7.11733 559.303L-5.592 557.025L-1.504 560.731L-1.884 554.024L2.888 559.335L1.92134 551.264L5.696 554.245L7.72134 553.137L10.284 553.272L10.3827 547.676L12.2947 546.313L17.7653 553.24L17.656 547.149L22.7147 553.104L21.092 543.491L26.288 549.772L27.5293 546.827L30.0107 546.775L32.6947 547.195L31.304 538.113L34.84 540.515L38.3907 542.965L39.112 538.82L40.4853 536.176L46.1853 543.629L45.3613 535.863L49.1187 538.771L49.7907 534.497L54.7613 540.228L53.6107 531.68L57.008 538.148L59.356 533.839L59.584 539.379L65.468 531L63.6027 541.685L69.7667 532.635L67.5693 544.144L70.692 542.565L75.724 536.295L78.1133 536.531L77.24 544.783L81.4453 540.552L81.656 546.144L84.108 546.228L86.4773 546.5L88.332 548.035L91.888 545.407L92.6707 549.591L93.7614 553.021L99.544 544.925L100.543 548.584L101.497 552.365L103.751 552.959L105.727 555.376L108.711 558.471L110.639 554.939L112.604 551.805L114.988 553.133L117.085 551.349L118.999 547.625L121.836 553.852L123.591 548.429L126.411 554.42L128.825 556.063L130.272 547.308L132.361 545.436L134.773 547.027L137.78 555.043L140.012 554.693L142.245 554.376L144.419 553.375L146.623 552.783L148.076 544.116L150.455 545.316L152.677 544.88L155.248 548.159L157.272 545.529L159.563 545.797L161.872 546.219L164.168 546.452L166.575 548.541L168.74 549.309L170.511 554.229L173.347 549.485L175.203 553.632L177.76 551.444L180.289 549.509L182.153 553.613L185.287 546.201L187.703 545.276L189.723 547.944L191.439 553.353L193.608 554.665L196.221 551.944L199.216 545.784L200.256 557.357L203.028 553.233L204.952 556.8L208.336 547.104L209.491 557.624L212.415 552.103L214.359 555.468L216.759 554.713L219.337 552.337L221.163 556.808L223.733 554.499L226.541 550.028L227.713 560.404L231.024 551.395L232.661 557.565L235.372 554.007L237.007 560.192L239.483 558.743L241.424 562.156L244.307 557.041L247.023 553.408L248.285 562.931L250.707 561.927L254.004 552.992L256.049 555.419L257.677 561.675L260.64 555.847L262.415 560.747L265.045 557.883L267.389 557.628L269.528 559.264L271.955 558.292L273.732 563.188L275.779 565.653L278.901 558.388L281.191 558.655L283.621 557.661L285.221 564.192L288.181 558.403L290.124 561.833L292.772 558.825L294.607 563.252L297.357 559.332L299.131 564.315L301.063 567.873L304.025 562.064L306.339 562.181L308.561 563.169L311.037 562.652L311.131 569.241L317.203 560.311L315.505 570.756L319.32 567.427L322.013 566.879L325.731 563.74L325.495 570.609L330.008 565.429L331.029 569.133L331.808 573.485L335.721 569.781L337.377 571.895L339.652 572.427L339.539 579.208L344.341 573.064L344.215 579.975L347.283 578.385L350.641 575.931L353.397 575.041L352.815 583.596L354.539 585.831L359.655 577.62L361.461 579.068L362.852 588.777L366.459 586.853L366.365 579.773L371.188 585.391L372.777 583.119L374.88 582.103L375.504 577.883L376.653 574.899L379.893 576.392L379.668 570.555L384.325 574.96L384.221 569.444L387.023 569.947L390.639 572.085L392.077 569.772L393.591 567.623L395.353 565.999L396.368 562.877L400.669 566.324L403.3 566.429L405.041 561.709L407.071 563.852L406.465 570.167L410.664 566.737L412.139 568.827L416.281 564.502L426.421 535.927C416.624 520.769 442.907 489.468 442.907 489.468L458.076 463.665C444.809 462.24 434.444 455.703 434.444 455.703L498.601 419.984C493.685 419.941 488.532 419.78 483.103 419.467C478.988 419.256 476.591 419.037 476.591 419.037H476.584C476.92 417.04 477.257 415.101 477.595 413.204C475.229 412.241 473.447 410.576 472.595 407.931C468.592 395.499 469.033 388.596 469.033 388.596L473.663 346.501L471.519 332.968C470.015 333.001 468.603 332.569 467.416 331.801L465.707 332.096L462.301 332.683L462.436 333.464L458.36 334.167C455.629 334.636 453.047 332.804 452.579 330.084C452.109 327.355 453.932 324.773 456.661 324.304L460.737 323.603L460.872 324.379L464.036 323.833L463.968 320.315C463.968 320.315 467.152 317.013 475.657 316.981C475.919 316.98 476.165 316.993 476.401 317.019C476.488 316.065 476.591 315.471 476.591 315.471L486.765 313.972C490.385 313.44 493.841 315.297 495.484 318.42L496.512 318.243L496.035 315.471C495.827 314.265 496.636 313.121 497.84 312.913C499.045 312.705 500.191 313.515 500.397 314.719L500.875 317.492L505.224 316.743L505.228 316.747L541.883 310.429C539.265 308.247 538.676 304.675 538.676 304.675L557.82 293.824C556.269 291.849 555.099 289.563 554.425 287.071C556.54 290.379 559.737 292.907 563.504 294.225L571.347 295.025C571.438 295.022 571.525 295.031 571.613 295.039C571.641 295.042 571.669 295.045 571.698 295.047C571.711 295.048 571.724 295.049 571.737 295.05L571.756 295.051L571.773 295.052C571.784 295.053 571.796 295.053 571.807 295.053C580.415 293.849 587.037 286.484 587.037 277.541C587.037 273.123 585.415 269.096 582.74 266C588.12 269.336 591.712 275.303 591.712 282.111C591.712 290.161 586.679 297.023 579.597 299.776C580.536 301.076 581.271 302.453 581.824 303.681L581.828 303.68L581.84 303.696C606.752 299.863 631.885 297.403 657.171 296.405C673.803 295.624 693.448 295.912 707.415 304.504C704.373 304.405 701.335 304.333 698.297 304.277C697.787 304.269 697.276 304.262 696.766 304.256C696.201 304.25 695.636 304.244 695.071 304.236C692.727 304.205 690.384 304.177 688.044 304.172C654.367 304.053 620.947 306.459 587.896 311.313L590.119 321.927C590.119 321.927 591.755 323.493 586.803 322.692L590.417 337.995C586.507 338.989 583.545 338.367 581.304 337.001L581.279 337.138L581.278 337.143C581.157 337.792 581.036 338.443 580.877 339.075C580.877 339.075 583.488 340.556 587.124 343.353L611.196 353.675C611.196 353.675 606.652 356.651 601.195 357.769C604.369 362.273 607.052 367.509 608.407 373.403C608.407 373.403 606.504 375.861 601.836 376.684C601.532 383.356 599.523 390.011 595.709 395.952L588.021 407.931L599.391 425.2C599.391 425.2 599.283 425.384 599.083 425.7C598.832 426.108 598.411 426.749 597.804 427.584C596.532 429.356 594.489 431.945 591.689 434.736L620.059 476.528C620.059 476.528 615.555 482.084 607.727 486.215C629.421 505.796 654.988 530.204 659.001 539.901C660.976 544.676 660.153 548.733 657.539 552.096L676.449 575.393L688.861 588.983L689.757 585.101L692.379 585.717L693.923 583.169L696.287 583.041L698.315 581.916L700.912 582.464L705.583 589.119L705.58 582.008L706.689 578.171L710.889 583.432L712.135 579.992L713.144 575.849L716.083 577.4L717.461 574.345L721.417 578.904L722.751 575.732L727.001 581.139L729.496 581.379L730.392 576.899L732.705 576.589L735.493 577.689L736.592 573.792L736.755 567.124L740.187 573.084L737.637 576.861L741.781 576.343L744.797 576.763L742.479 581.623L751.456 577.093L753.176 578.597L751.468 582.955L756.005 582.119L756.292 584.819L758.04 586.312L755.929 592.243L759.076 591.496L761.411 591.395L764.331 593.928L764.313 583.209L767.083 585.084L767.095 585.087C766.747 584.832 766.422 584.575 766.119 584.317C764.976 583.4 764.12 582.453 763.518 581.537C761.114 577.931 762.286 574.759 762.286 574.759L800.684 500.456V500.487L800.7 500.456L820.147 488.208C818.959 488.283 817.758 488.359 816.57 488.419C815.623 488.463 814.691 488.508 813.76 488.553C811.64 488.66 809.522 488.749 807.387 488.824C806.291 488.869 805.194 488.915 804.096 488.944C802.112 489.02 800.128 489.08 798.144 489.124C797.596 489.139 797.051 489.151 796.506 489.162C796.29 489.166 796.074 489.171 795.858 489.176C795.529 489.183 795.199 489.191 794.868 489.2H794.583C793.271 489.231 791.96 489.247 790.648 489.264L790.612 489.264L790.006 489.272C789.593 489.277 789.18 489.283 788.767 489.289C788.194 489.298 787.62 489.302 787.047 489.306C786.523 489.309 785.999 489.313 785.475 489.32C784.838 489.32 784.201 489.324 783.566 489.327L783.555 489.327H783.55H783.544H783.538H783.533H783.527C782.901 489.331 782.278 489.335 781.658 489.335C781.355 489.335 781.057 489.331 780.76 489.327L780.544 489.325L780.33 489.322C780.181 489.321 780.033 489.32 779.884 489.32H776.759L776.774 490.041C775.091 490.163 770.598 490.132 766.103 490.056L765.923 490.087C764.526 490.341 763.112 488.855 762.752 486.765L762.362 484.525C762.18 483.489 762.3 482.483 762.631 481.716C762.978 480.935 763.518 480.392 764.224 480.257C769.17 480.348 774.099 480.379 776.563 480.243L776.578 481.16C777.63 481.175 778.682 481.175 779.735 481.175L779.882 481.175L780.032 481.175C780.217 481.176 780.403 481.177 780.589 481.178H780.591H780.593C781.169 481.181 781.748 481.184 782.319 481.175C783.431 481.175 784.528 481.16 785.64 481.144C786.222 481.139 786.803 481.136 787.385 481.133H787.393C787.812 481.13 788.232 481.128 788.652 481.125C788.942 481.123 789.232 481.12 789.523 481.118C789.741 481.115 789.959 481.113 790.177 481.11C790.408 481.107 790.64 481.104 790.871 481.1C791.502 481.084 792.134 481.069 792.764 481.053C794.974 481.009 797.198 480.964 799.407 480.904C799.587 480.896 799.771 480.889 799.956 480.881L800.157 480.873C800.274 480.868 800.39 480.864 800.504 480.859L801.063 480.841L801.071 480.841C803.347 480.771 805.622 480.701 807.899 480.604L808.16 480.59L808.188 480.589L808.413 480.577C808.532 480.57 808.651 480.564 808.77 480.557C811.31 480.453 813.85 480.332 816.39 480.197C816.486 480.191 816.58 480.184 816.672 480.178L816.699 480.176L816.872 480.164L816.989 480.156L817.036 480.153L817.462 480.129L817.473 480.128L817.479 480.128C819.945 479.984 822.398 479.842 824.851 479.671C824.91 479.671 824.968 479.668 825.025 479.665C825.071 479.662 825.116 479.659 825.161 479.656H825.162H825.162C825.26 479.648 825.356 479.641 825.452 479.641C828.067 479.461 830.682 479.267 833.298 479.055C833.838 479.011 834.379 478.965 834.92 478.92L855.27 466.101C855.005 465.968 854.788 465.857 854.625 465.772C854.534 465.725 854.461 465.686 854.405 465.657C854.321 465.613 854.278 465.589 854.278 465.589L860.65 456.452C857.463 455.084 855.555 454.123 855.555 454.123L857.959 448.939C857.836 448.765 857.712 448.593 857.589 448.422C857.517 448.322 857.445 448.222 857.373 448.122C857.196 447.874 857.02 447.626 856.847 447.375C856.832 447.344 856.818 447.331 856.787 447.3C854.038 443.317 851.932 439.455 850.686 435.848C847.108 425.373 846.658 416.807 847.559 410.073C847.562 410.024 847.566 409.979 847.57 409.939C847.574 409.898 847.578 409.861 847.582 409.829C847.594 409.736 847.604 409.683 847.604 409.683C849.347 397.509 855.555 391.512 855.555 391.512C855.555 391.512 861.446 389.408 870.419 387.665C870.388 387.395 870.374 387.124 870.358 386.869L861.807 385.109L870.328 385.712C870.298 382.811 870.674 379.835 871.335 376.799C866.406 374.019 862.318 371.117 858.936 368.337L860.92 365.273L857.614 367.212C856.532 366.279 855.524 365.363 854.608 364.476L864.527 359.937L852.714 362.583C847.484 357.141 845.38 353.144 845.38 353.144L908.832 342.564L941.504 391.903C935.764 392.008 930.383 391.859 925.259 391.528C928.054 392.716 930.714 394.112 932.458 395.631L942.256 437.681L949.544 435.501C952.731 434.509 955.752 433.549 955.752 433.549L955.992 433.668L956.248 432.151L953.047 431.609C951.859 431.415 951.063 430.287 951.259 429.1C951.454 427.912 952.58 427.116 953.768 427.327L956.97 427.868L968.512 359.607C974.883 321.884 977.95 283.62 977.694 245.056C977.679 242.757 977.65 240.443 977.619 238.128C977.603 237.591 977.596 237.053 977.588 236.516V236.516V236.515V236.514V236.514V236.513V236.513V236.512V236.511L977.584 236.269C977.583 236.169 977.582 236.069 977.58 235.969C977.578 235.846 977.576 235.724 977.573 235.601C977.57 235.392 977.565 235.182 977.559 234.972C977.499 231.981 977.424 228.991 977.319 226C985.81 239.721 986.155 259.049 985.434 275.415C984.382 304.18 981.466 332.765 976.687 361.035L965.867 424.951L965.882 424.967L965.146 429.251L967.88 429.701C969.068 429.911 969.864 431.023 969.668 432.211C969.459 433.397 968.347 434.195 967.159 433.999L964.424 433.533L963.703 437.831L964.604 438.312C967.744 440.011 969.127 443.783 967.835 447.105L964.288 456.152C964.288 456.152 963.898 456 963.251 455.731C963.522 456.557 963.747 457.549 963.867 458.616L966.948 458.06L966.362 454.859C966.152 453.672 966.934 452.545 968.12 452.32C969.294 452.109 970.435 452.889 970.646 454.077L973.215 468.16C973.44 469.331 972.644 470.475 971.472 470.684C970.284 470.909 969.143 470.113 968.932 468.941L968.436 466.207L958.592 468.009L958.502 468.625L959.254 468.745L958.578 472.759C958.127 475.448 955.587 477.252 952.911 476.801C950.222 476.351 948.418 473.811 948.868 471.12L949.11 469.737L943.699 470.729L978.746 501.463L988.831 557.34L993.399 582.739C993.234 584.047 992.903 585.264 992.452 586.407C991.124 589.733 988.705 592.349 985.565 594.397ZM1011.88 604.274L1013.66 603.724L1013.87 605.359L1012.49 604.805L1011.88 604.274ZM1017.31 602.713L1017.21 602.63L1017.3 602.603L1017.31 602.713ZM1189.82 588.931L1190.71 582.21C1188.9 579.31 1187.28 576.294 1185.81 573.187C1185.24 575.227 1184.72 577.283 1184.23 579.35L1187.4 587.927L1189.82 588.931ZM1192.53 581.351L1193.19 582.227C1193.1 576.788 1193.14 571.394 1193.29 566.064C1192.55 562.89 1191.89 559.718 1191.31 556.55L1191.25 556.723C1189.58 561.098 1188.03 565.618 1186.66 570.234C1188.37 574.091 1190.32 577.814 1192.53 581.351ZM1196.95 587.677L1198.59 584.792C1198.07 583.239 1197.57 581.683 1197.08 580.127C1196.46 581.58 1195.84 583.041 1195.23 584.508C1195.24 584.808 1195.25 585.107 1195.26 585.406C1195.81 586.174 1196.37 586.931 1196.95 587.677ZM1207.08 577.395L1208.33 580.808C1209.36 579.609 1210.39 578.419 1211.43 577.239L1211.56 576.028L1211.95 576.644C1214.39 573.873 1216.86 571.158 1219.35 568.497C1219.77 555.963 1220.79 543.802 1222.17 532.274C1213.62 546.164 1205.4 561.283 1198.32 577.302C1199.18 580.221 1200.12 583.135 1201.14 586.043L1202.73 580.007L1205.44 583.565L1207.08 577.395ZM1209.13 582.963L1210.29 586.13L1210.46 585.799L1211.03 580.739C1210.76 581.049 1210.49 581.36 1210.23 581.672C1209.86 582.101 1209.49 582.531 1209.13 582.963ZM1216.94 582.808L1215.12 581.171C1216.47 578.609 1217.84 576.086 1219.22 573.606C1219.18 575.294 1219.16 576.989 1219.15 578.689L1218.77 578.337L1216.94 582.808ZM1229.77 573.104L1231.85 579.062C1234.84 573.582 1238.37 568.357 1242.28 563.407C1242.87 557.756 1243.58 552.172 1244.41 546.677C1236.94 553.458 1229.43 560.749 1222.08 568.522C1221.82 568.969 1221.57 569.418 1221.31 569.868C1221.21 573.394 1221.15 576.948 1221.14 580.525L1221.35 580.713L1223.75 581.468L1225.69 578.103L1228.61 583.624L1229.77 573.104ZM1232.74 581.633L1232.92 582.148C1235.33 577.836 1237.81 573.557 1240.33 569.324C1237.51 573.276 1234.95 577.382 1232.74 581.633ZM1237.85 583.357L1236.05 580.676C1236.85 579.261 1237.65 577.849 1238.47 576.442L1237.85 583.357ZM1241.16 576.465L1239.93 573.931C1240.47 573.013 1241.01 572.096 1241.56 571.181C1241.41 572.937 1241.28 574.699 1241.16 576.465ZM1213.06 578.41L1213.74 579.498C1214.58 577.916 1215.43 576.349 1216.28 574.798C1215.2 575.991 1214.13 577.196 1213.06 578.41ZM931.025 594.165L926.671 532.617L907.344 511.548L903.678 507.551L899.034 502.485L864.182 531.627L845.185 590.555L847.093 589.145L847.519 594.323L851.617 589.94L851.9 590.615L851.905 590.583L853.155 592.696L856.607 589.541L855.882 597.308L855.98 597.475L857.053 592.444L858.815 594.159L860.44 592.153L860.866 594.737L862.017 593.568L862.655 594.201L863.833 592.325L864.953 593.539L866.611 595.453L867.079 595.067L869.053 593.619L869.152 584.715L871.445 584.539L873.671 584.091L877.408 589.652L879.773 589.755L880.983 585.264L885.047 592.108L885.852 589.264L888.18 585.795L889.227 591.696L891.927 590.148L892.817 590.027L893.777 588.563L895.959 587.891L898.282 593.461L902.443 585.167L903.817 589.555L905.521 592.431L907.668 593.323L910.72 590.176L910.956 592.774L912.427 594.513L913.044 594.24L915.787 588.529L916.008 588.689L917.233 584.999L918.685 596.037L918.735 596.381L918.788 596.373L921.519 589.301L924.071 585.455L925.469 593.03L927.097 590.451L927.487 591.789L928.311 590.488L930.393 593.52L931.025 594.165ZM775.567 589.054C775.421 589.01 775.277 588.965 775.134 588.92C774.903 588.846 774.676 588.772 774.453 588.698L775.396 590.672L775.567 589.054ZM661.049 590.588C661.095 590.551 661.142 590.513 661.188 590.473C661.246 590.425 661.203 590.284 661.065 590.057L661.049 590.588ZM658.838 587.366C657.774 586.195 656.374 584.721 654.687 582.987L655.753 585.944L656.68 591.588L658.838 587.366ZM654.173 582.46C649.421 577.594 642.564 570.828 634.552 563.039C628.753 564.133 622.769 564.572 617.547 564.355C598.376 563.564 542.373 475.34 542.373 475.34L497.533 508.947C497.533 508.947 476.051 551.797 453.561 550.08L434.696 583.155L434.492 584.556L440.511 577.439L440.177 583.221L443.891 580.803L445.376 580.185L447.773 585.857L449.776 584.32L452.267 584.979L453.333 579.245L455.116 576.728L457.539 577.081L461.263 583.269L463.613 583.292L464.448 576.501L467.904 581.491L468.42 573.279L471.059 574.601L474.307 578.653L476.873 579.636L477.365 571.312L480.603 575.316L483.201 576.453L484.317 570.931L486.587 570.573L489.483 573.052L492.184 574.672L495.393 578.567L495.075 566.635L497.939 568.975L499.735 566.507L504.243 576.201L505.669 572.079L507.728 570.801L509.676 569.02L511.007 564.451L514.635 570.197L516.941 570.023L519.369 570.381L520.293 563.984L522.317 562.529L526.703 571.661L527.384 564.176L530.436 567.323L532.583 566.431L534.287 563.555L535.661 559.167L539.887 567.591L541.707 565.207L543.752 563.819L546.177 564.148L548.877 565.696L549.924 559.795L552.252 563.264L553.057 566.108L557.121 559.264L558.331 563.755L560.696 563.652L564.433 558.091L566.659 558.539L568.952 558.715L569.051 567.619L571.025 569.067L572.964 570.667L576.087 567.568L577.952 569.461L581.051 566.444L582.124 571.475L586.199 564.583L587.171 570.016L589.401 570.451L591.557 571.195L594.711 567.972L595.357 574.703L597.36 576.044L601.576 568.591L602.005 576.192L604.609 575.156L606.857 575.528L608.428 578.595L612.784 570.587L615.076 570.781L615.913 576.769L618.08 577.461L619.5 581.105L623.123 575.988L625.469 575.949L627.791 576.016L627.897 584.901L632.377 576.413L634.425 577.579L635.275 583.499L637.579 583.643L641.404 577.756L641.744 585.717L645.661 579.456L647.167 582.789L649.587 582.495L650.192 589.404L654.173 582.46ZM520.005 329.992C519.84 330.041 519.725 330.076 519.725 330.076L504.26 342.971L495.157 333.464L496.035 329.068L496.068 326.869L497.941 326.547L498.503 329.808C498.711 331.013 499.855 331.821 501.06 331.615C502.265 331.407 503.073 330.261 502.867 329.057L502.305 325.796L502.307 325.797L535.027 320.167C535.027 320.167 535.264 323.72 538.473 326.091L516.472 323.457C516.472 323.457 514.012 326.249 520.005 329.992ZM1246.75 544.562C1254.14 537.946 1261.47 531.835 1268.52 526.254C1261.86 535.648 1255.07 545.676 1248.47 556.102C1247.15 557.556 1245.86 559.038 1244.6 560.547C1245.21 555.147 1245.93 549.812 1246.75 544.562ZM1227.21 499.142C1227.25 499.125 1227.28 499.107 1227.31 499.09L1227.36 499.065L1227.29 499.414L1226.99 499.255C1227.07 499.218 1227.14 499.181 1227.21 499.142ZM1212.3 514.539C1218.93 513.642 1223.41 509.464 1226.1 505.892C1224.88 512.761 1223.75 520.002 1222.76 527.537C1213.74 541.869 1205 557.588 1197.46 574.32C1196.67 571.503 1195.95 568.682 1195.29 565.861C1195.5 558.474 1195.92 551.208 1196.51 544.119C1200.78 534.679 1205.28 526.369 1209.1 519.86C1210.23 517.92 1211.31 516.14 1212.3 514.539ZM1224.69 528.232C1223.16 540.06 1222 552.605 1221.46 565.572C1225.24 559.027 1229.04 552.813 1232.78 546.977C1238.25 538.412 1243.58 530.655 1248.49 523.85C1251.3 510.282 1254.62 497.514 1258.06 485.91C1258.7 483.751 1259.35 481.632 1259.99 479.556C1255.71 484.758 1251.18 490.476 1246.52 496.657C1239.37 506.159 1231.94 516.749 1224.69 528.232ZM1190.11 530.659C1192.91 520.069 1196.38 509.897 1200.27 500.24C1197.9 513.476 1195.83 528.117 1194.54 543.61C1193.72 545.429 1192.91 547.289 1192.11 549.186C1191.18 542.973 1190.52 536.787 1190.11 530.659ZM1192.71 552.977C1193.16 551.86 1193.62 550.755 1194.08 549.663C1193.89 552.382 1193.73 555.124 1193.6 557.887C1193.28 556.249 1192.99 554.612 1192.71 552.977ZM1195.15 573.483C1195.14 575.498 1195.14 577.52 1195.16 579.549C1195.5 578.752 1195.84 577.957 1196.19 577.165C1195.83 575.938 1195.49 574.711 1195.15 573.483ZM1244.89 543.548C1238.7 549.102 1232.47 555.01 1226.31 561.255C1229.04 556.671 1231.77 552.265 1234.46 548.055C1238.97 541.008 1243.37 534.511 1247.52 528.644C1246.57 533.522 1245.69 538.495 1244.89 543.548ZM1189.38 556.011C1187.97 559.693 1186.65 563.488 1185.44 567.367C1184.93 566.111 1184.44 564.843 1183.98 563.565C1184.96 554.393 1186.54 545.433 1188.59 536.735C1189.08 542.044 1189.76 547.389 1190.65 552.753C1190.22 553.828 1189.79 554.915 1189.38 556.011ZM1184.53 570.37C1184.2 569.595 1183.87 568.815 1183.55 568.03C1183.33 570.604 1183.16 573.193 1183.04 575.796C1183.51 573.974 1184.01 572.164 1184.53 570.37ZM809.616 109.501C809.616 109.501 807.385 100.068 799.453 96.3425C799.453 96.3425 797.917 106.479 809.616 109.501ZM657.96 179.124L631 173C631 173 642.332 192.092 657.96 179.124ZM657.937 255.626L654.59 229.909C654.59 229.909 631.456 236.413 657.937 255.626ZM788.285 159.072C788.285 159.072 785.005 173.367 793.281 183.724C793.281 183.724 802.142 170.995 788.285 159.072ZM516.936 139.068C516.936 139.068 539.898 153.428 539.313 130.244C539.313 130.244 536.066 120.346 516.936 139.068ZM840.354 277.21C840.354 277.21 817.744 275.068 803.518 289.871C803.518 289.871 824.854 300.898 840.354 277.21ZM917.836 143.108C917.836 143.108 895.227 140.966 881 155.769C881 155.769 902.336 166.796 917.836 143.108ZM439.942 30.7018C439.942 30.7018 433.622 52.5151 445.513 69.2538C445.513 69.2538 460.325 50.3458 439.942 30.7018ZM550.666 204.03C550.666 204.03 536.139 206.039 529.394 217.453C529.394 217.453 544.44 221.218 550.666 204.03ZM772.559 219.74L751.325 237.435C751.325 237.435 768.135 239.204 772.559 219.74Z" fill="url(#paint0_linear_89_8425)"/>
</g>
<defs>
<linearGradient id="paint0_linear_89_8425" x1="718" y1="573.565" x2="718.868" y2="1461" gradientUnits="userSpaceOnUse">
<stop stop-color="#000F06"/>
<stop offset="1" stop-color="#010605"/>
</linearGradient>
<clipPath id="clip0_89_8425">
<rect width="1440" height="1453" fill="white" transform="translate(-1)"/>
</clipPath>
</defs>
</svg>
