<svg width="1440" height="462" viewBox="0 0 1440 462" fill="none" xmlns="http://www.w3.org/2000/svg">
<path fill-rule="evenodd" clip-rule="evenodd" d="M-51.3787 40.5294L-52.4253 38.5605L-50.2987 37.7795L-46.504 40.5041L-47.5347 33.0727L-46.4907 30.005L-41.7667 34.6878L-42.1107 28.7053L-36.5867 35.0717L-33.7147 35.8515L-33.0173 32.0546L-33.932 24.8698L-29.4173 29.1084L-25.6067 31.8788L-26.1173 25.5462L-24.592 23.4906L-20.504 26.8351L-20.884 20.7816L-16.112 25.575L-17.0787 18.2904L-13.304 20.9814L-11.2787 19.9813L-8.716 20.1028L-8.61733 15.0519L-6.70533 13.8219L-1.23466 20.074L-1.344 14.5765L3.71467 19.9512L2.092 11.2741L7.288 16.9437L8.52934 14.2852L11.0107 14.2383L13.6947 14.6174L12.304 6.42053L15.84 8.58799L19.3907 10.8L20.112 7.05837L21.4853 4.67189L27.1853 11.3993L26.3613 4.38907L30.1187 7.01385L30.7907 3.15671L35.7613 8.32924L34.6107 0.613766L38.008 6.45182L40.356 2.5622L40.584 7.56263L46.468 0L44.6027 9.64464L50.7667 1.47546L48.5693 11.8638L51.692 10.4389L56.724 4.77899L59.1133 4.99201L58.24 12.4403L62.4453 8.62169L62.656 13.6691L65.108 13.7449L67.4773 13.9904L69.332 15.3756L72.888 13.0035L73.6707 16.78L74.7614 19.8766L80.544 12.5691L81.5427 15.8714L82.4973 19.2845L84.7507 19.82L86.7267 22.0019L89.7107 24.7952L91.6387 21.6072L93.604 18.779L95.988 19.9777L98.0853 18.3674L99.9987 15.0061L102.836 20.6264L104.591 15.7318L107.411 21.139L109.825 22.6217L111.272 14.7197L113.361 13.03L115.773 14.4658L118.78 21.7011L121.012 21.3857L123.245 21.0993L125.419 20.1955L127.623 19.6612L129.076 11.8386L131.455 12.9217L133.677 12.5282L136.248 15.4875L138.272 13.1143L140.563 13.3562L142.872 13.7365L145.168 13.9471L147.575 15.8329L149.74 16.5261L151.511 20.9669L154.347 16.685L156.203 20.4278L158.76 18.4529L161.289 16.7066L163.153 20.4109L166.287 13.7208L168.703 12.8856L170.723 15.2938L172.439 20.1762L174.608 21.3605L177.221 18.9042L180.216 13.3441L181.256 23.7903L184.028 20.0679L185.952 23.2872L189.336 14.5356L190.491 24.031L193.415 19.0474L195.359 22.085L197.759 21.4038L200.337 19.2592L202.163 23.2945L204.733 21.21L207.541 17.1748L208.713 26.5402L212.024 18.4083L213.661 23.978L216.372 20.7659L218.007 26.3489L220.483 25.0407L222.424 28.1216L225.307 23.5051L228.023 20.2256L229.285 28.8208L231.707 27.9146L235.004 19.8501L237.049 22.0404L238.677 27.6871L241.64 22.4268L243.415 26.8495L246.045 24.2645L248.389 24.0346L250.528 25.5113L252.955 24.6339L254.732 29.0531L256.779 31.2783L259.901 24.7206L262.191 24.9613L264.621 24.0647L266.221 29.9593L269.181 24.7338L271.124 27.8304L273.772 25.1153L275.607 29.1109L278.357 25.5726L280.131 30.07L282.063 33.2821L285.025 28.0386L287.339 28.1445L289.561 29.0362L292.037 28.5693L292.131 34.5169L298.203 26.456L296.505 35.884L300.32 32.8789L303.013 32.3843L306.731 29.5513L306.495 35.7516L311.008 31.0761L312.029 34.4194L312.808 38.3475L316.721 35.0043L318.377 36.9118L320.652 37.392L320.539 43.5128L325.341 37.9672L325.215 44.2048L328.283 42.7703L331.641 40.5547L334.397 39.752L333.815 47.4735L335.539 49.4905L340.655 42.0795L342.461 43.3865L343.852 52.1502L347.459 50.4136L347.365 44.0231L352.188 49.0933L353.777 47.0426L355.88 46.1256L356.504 42.3166L357.653 39.6232L360.893 40.9711L360.668 35.7023L365.325 39.6786L365.221 34.6998L368.023 35.1535L371.639 37.0839L373.077 34.9958L374.591 33.0558L376.353 31.59L377.368 28.7727L381.669 31.8837L384.3 31.9787L386.041 27.7184L388.071 29.6524L387.465 35.3521L391.664 32.2567L393.139 34.1426L398.304 29.2757L397.651 35.0668L399.455 36.3558L402.751 34.9152L401.793 41.2611L406.017 38.1249L405.135 44.3252L409.553 40.8195L412.765 39.5366L412.005 45.5238L416.547 41.8051L415.492 48.34L421.511 41.9158L421.177 47.1353L424.891 44.9522L426.376 44.395L428.773 49.5146L430.776 48.127L433.267 48.7215L434.333 43.5465L436.116 41.2744L438.539 41.5933L442.263 47.1786L444.613 47.1991L445.448 41.0698L448.904 45.5732L449.42 38.161L452.059 39.3548L455.307 43.0122L457.873 43.8992L458.365 36.3859L461.603 39.9999L464.201 41.0265L465.317 36.0417L467.587 35.7191L470.483 37.9564L473.184 39.4186L476.393 42.934L476.075 32.1641L478.939 34.2762L480.735 32.0485L485.243 40.799L486.669 37.0779L488.728 35.9249L490.676 34.3171L492.007 30.1928L495.635 35.3798L497.941 35.2221L500.369 35.5458L501.293 29.7716L503.317 28.4586L507.703 36.7012L508.384 29.9449L511.436 32.7851L513.583 31.9799L515.287 29.384L516.661 25.4234L520.887 33.027L522.707 30.8751L524.752 29.6223L527.177 29.9196L529.877 31.3168L530.924 25.9902L533.252 29.1217L534.057 31.6887L538.121 25.5113L539.331 29.5646L541.696 29.4719L545.433 24.4522L547.659 24.8566L549.952 25.0154L550.051 33.0522L552.025 34.3592L553.964 35.8034L557.087 33.0065L558.952 34.7154L562.051 31.992L563.124 36.5327L567.199 30.3119L568.171 35.2161L570.401 35.6084L572.557 36.28L575.711 33.3712L576.357 39.4463L578.36 40.657L582.576 33.9296L583.005 40.7906L585.609 39.8555L587.857 40.1912L589.428 42.9592L593.784 35.7312L596.076 35.9069L596.913 41.3117L599.08 41.9363L600.5 45.2254L604.123 40.6064L605.776 40.5819L606.012 38.226L606.318 40.5738L606.469 40.5715L608.791 40.6317L608.886 47.7668L609.517 47.5925L613.377 40.9904L615.425 42.0422L616.069 46.0907L617.803 44.0303L619.912 45.0641L619.991 45.5532L622.404 42.2023L622.657 47.5506L625.137 43.0182L627.873 41.4681L629.144 45.8909L631.383 46.394L632.19 51.1453L635.372 46.1352L635.558 46.6013L636.411 45.1472L637.605 49.8937L639.022 52.3184L642.288 46.5516L642.226 48.4169L642.945 47.3664L643.617 53.0885L646.733 47.4241L646.702 48.2033L648.109 45.5455L649.54 49.3292L652.021 48.8166L654.791 47.1245L654.779 53.3805L657.885 49.5398L659.808 51.0947L660.865 54.7833L663.175 55.278L661.064 49.9249L662.812 48.5771L663.099 46.14L667.636 46.8946L665.928 42.9617L667.648 41.6041L676.625 45.6923L674.307 41.3057L677.323 40.9266L681.467 41.3947L678.917 37.9853L682.349 32.6057L682.512 38.6243L683.611 42.1421L686.399 41.1492L688.712 41.4284L689.393 44.5031L690.204 45.4203L692.103 45.2555L693.193 44.0033L694.144 40.4813L695.64 41.1939L696.353 40.3754L697.046 41.8636L697.083 41.8809L698.461 39.1238L700.052 40.7782L701.643 39.1238L703.021 41.8809L703.058 41.8636L703.751 40.3754L704.464 41.1939L705.96 40.4813L706.911 44.0033L708.001 45.2555L709.9 45.4203L710.711 44.5031L711.392 41.4284L713.705 41.1492L716.493 42.1421L717.592 38.6243L717.755 32.6057L721.187 37.9853L718.637 41.3947L722.781 40.9266L725.797 41.3057L723.479 45.6923L732.456 41.6041L734.176 42.9617L732.468 46.8946L737.005 46.14L737.292 48.5771L739.04 49.9249L736.929 55.278L739.239 54.7833L740.296 51.0947L742.219 49.5398L745.325 53.3805L745.313 47.1245L748.083 48.8166L750.564 49.3292L751.995 45.5455L753.402 48.2033L753.371 47.4241L756.487 53.0885L757.159 47.3664L757.878 48.4169L757.816 46.5516L761.082 52.3184L762.499 49.8937L763.693 45.1472L764.546 46.6013L764.732 46.1352L767.914 51.1453L768.721 46.394L770.96 45.8909L772.231 41.4681L774.967 43.0182L777.447 47.5506L777.7 42.2023L780.113 45.5532L780.192 45.0641L782.301 44.0303L784.035 46.0907L784.679 42.0422L786.727 40.9904L790.587 47.5925L791.218 47.7668L791.313 40.6317L793.635 40.5715L793.786 40.5738L794.092 38.226L794.328 40.5819L795.981 40.6064L799.604 45.2254L801.024 41.9363L803.191 41.3117L804.028 35.9069L806.32 35.7312L810.676 42.9592L812.247 40.1912L814.495 39.8555L817.099 40.7906L817.528 33.9296L821.744 40.657L823.747 39.4463L824.393 33.3712L827.547 36.28L829.703 35.6084L831.933 35.2161L832.905 30.3119L836.98 36.5327L838.053 31.992L841.152 34.7154L843.017 33.0065L846.14 35.8034L848.079 34.3592L850.053 33.0522L850.152 25.0154L852.445 24.8566L854.671 24.4522L858.408 29.4719L860.773 29.5646L861.983 25.5113L866.047 31.6887L866.852 29.1217L869.18 25.9902L870.227 31.3168L872.927 29.9196L875.352 29.6223L877.397 30.8751L879.217 33.027L883.443 25.4234L884.817 29.384L886.521 31.9799L888.668 32.7851L891.72 29.9449L892.401 36.7012L896.787 28.4586L898.811 29.7716L899.735 35.5458L902.163 35.2221L904.469 35.3798L908.097 30.1928L909.428 34.3171L911.376 35.9249L913.435 37.0779L914.861 40.799L919.369 32.0485L921.165 34.2762L924.029 32.1641L923.711 42.934L926.92 39.4186L929.621 37.9564L932.517 35.7191L934.787 36.0417L935.903 41.0265L938.501 39.9999L941.739 36.3859L942.231 43.8992L944.797 43.0122L948.045 39.3548L950.684 38.161L951.2 45.5732L954.656 41.0698L955.491 47.1991L957.841 47.1786L961.565 41.5933L963.988 41.2744L965.771 43.5465L966.837 48.7215L969.328 48.127L971.331 49.5146L973.728 44.395L975.213 44.9522L978.927 47.1353L978.593 41.9158L984.612 48.34L983.557 41.8051L988.099 45.5238L987.339 39.5366L990.551 40.8195L994.969 44.3252L994.087 38.1249L998.311 41.2611L997.353 34.9152L1000.65 36.3558L1002.45 35.0668L1001.8 29.2757L1006.97 34.1426L1008.44 32.2567L1012.64 35.3521L1012.03 29.6524L1014.06 27.7184L1015.8 31.9787L1018.43 31.8837L1022.74 28.7727L1023.75 31.59L1025.51 33.0558L1027.03 34.9958L1028.47 37.0839L1032.08 35.1535L1034.88 34.6998L1034.78 39.6786L1039.44 35.7023L1039.21 40.9711L1042.45 39.6232L1043.6 42.3166L1044.22 46.1256L1046.33 47.0426L1047.92 49.0933L1052.74 44.0231L1052.65 50.4136L1056.25 52.1502L1057.64 43.3865L1059.45 42.0795L1064.57 49.4905L1066.29 47.4735L1065.71 39.752L1068.46 40.5547L1071.82 42.7703L1074.89 44.2048L1074.76 37.9672L1079.57 43.5128L1079.45 37.392L1081.73 36.9118L1083.38 35.0043L1087.3 38.3475L1088.07 34.4194L1089.1 31.0761L1093.61 35.7516L1093.37 29.5513L1097.09 32.3843L1099.78 32.8789L1103.6 35.884L1101.9 26.456L1107.97 34.5169L1108.07 28.5693L1110.54 29.0362L1112.77 28.1445L1115.08 28.0386L1118.04 33.2821L1119.97 30.07L1121.75 25.5726L1124.5 29.1109L1126.33 25.1153L1128.98 27.8304L1130.92 24.7338L1133.88 29.9593L1135.48 24.0647L1137.91 24.9613L1140.2 24.7206L1143.33 31.2783L1145.37 29.0531L1147.15 24.6339L1149.58 25.5113L1151.71 24.0346L1154.06 24.2645L1156.69 26.8495L1158.46 22.4268L1161.43 27.6871L1163.05 22.0404L1165.1 19.8501L1168.4 27.9146L1170.82 28.8208L1172.08 20.2256L1174.8 23.5051L1177.68 28.1216L1179.62 25.0407L1182.1 26.3489L1183.73 20.7659L1186.44 23.978L1188.08 18.4083L1191.39 26.5402L1192.56 17.1748L1195.37 21.21L1197.94 23.2945L1199.77 19.2592L1202.35 21.4038L1204.75 22.085L1206.69 19.0474L1209.61 24.031L1210.77 14.5356L1214.15 23.2872L1216.08 20.0679L1218.85 23.7903L1219.89 13.3441L1222.88 18.9042L1225.5 21.3605L1227.67 20.1762L1229.38 15.2938L1231.4 12.8856L1233.82 13.7208L1236.95 20.4109L1238.81 16.7066L1241.34 18.4529L1243.9 20.4278L1245.76 16.685L1248.59 20.9669L1250.36 16.5261L1252.53 15.8329L1254.94 13.9471L1257.23 13.7365L1259.54 13.3562L1261.83 13.1143L1263.86 15.4875L1266.43 12.5282L1268.65 12.9217L1271.03 11.8386L1272.48 19.6612L1274.69 20.1955L1276.86 21.0993L1279.09 21.3857L1281.32 21.7011L1284.33 14.4658L1286.74 13.03L1288.83 14.7197L1290.28 22.6217L1292.69 21.139L1295.51 15.7318L1297.27 20.6264L1300.11 15.0061L1302.02 18.3674L1304.12 19.9777L1306.5 18.779L1308.47 21.6072L1310.39 24.7952L1313.38 22.0019L1315.35 19.82L1317.61 19.2845L1318.56 15.8714L1319.56 12.5691L1325.34 19.8766L1326.43 16.78L1327.22 13.0035L1330.77 15.3756L1332.63 13.9904L1335 13.7449L1337.45 13.6691L1337.66 8.62169L1341.86 12.4403L1340.99 4.99201L1343.38 4.77899L1348.41 10.4389L1351.53 11.8638L1349.34 1.47546L1355.5 9.64464L1353.64 0L1359.52 7.56263L1359.75 2.5622L1362.1 6.45182L1365.49 0.613766L1364.34 8.32924L1369.31 3.15671L1369.99 7.01385L1373.74 4.38907L1372.92 11.3993L1378.62 4.67189L1379.99 7.05837L1380.71 10.8L1384.26 8.58799L1387.8 6.42053L1386.41 14.6174L1389.09 14.2383L1391.57 14.2852L1392.82 16.9437L1398.01 11.2741L1396.39 19.9512L1401.45 14.5765L1401.34 20.074L1406.81 13.8219L1408.72 15.0519L1408.82 20.1028L1411.38 19.9813L1413.41 20.9814L1417.18 18.2904L1416.22 25.575L1420.99 20.7816L1420.61 26.8351L1424.7 23.4906L1426.22 25.5462L1425.71 31.8788L1429.52 29.1084L1434.04 24.8698L1433.12 32.0546L1433.82 35.8515L1436.69 35.0717L1442.21 28.7053L1441.87 34.6878L1446.59 30.005L1447.64 33.0727L1446.61 40.5041L1450.4 37.7795L1452.53 38.5605L1451.48 40.5294L1454.48 41.4007L1460.64 42.5031L1457.51 44.5683L1452.32 46.6298L1460.4 48.6938L1451.25 50.7554L1451.41 52.8157L1458.53 54.8772L1450.45 56.934L1460.55 58.9943L1456.97 61.0571L1455.06 63.1162L1457.99 65.1766L1459.69 67.2357L1456.76 69.2973L1454.14 71.3564L1460.58 73.4132L1454.59 75.4723L1460.35 77.5315L1451.78 79.5882L1456.37 81.6437L1450 83.6993L1450.93 85.7596L1459.8 87.8164L1460.31 89.8707L1455.98 91.9238L1458.8 93.9757L1459.94 96.0289L1452.16 98.0844L1459.72 100.144L1461.1 102.201L1458.23 104.258L1459.09 106.315L1459.98 108.373L1449.77 110.432L1451.71 112.489L1457.19 114.546L1451.15 116.601L1450.95 118.658L1449.68 120.716L1454.81 122.774L1454.19 124.83L1453.82 126.886L1457.53 128.942L1454.2 130.996L1457.38 133.053L1452.23 135.109L1457.36 137.167L1451.62 136.03L1452.81 143.9L1450.51 144.47L1448.21 134.024L1445.91 134.687L1444 141.952V518H1V138.996L0.0879974 137.38L-2.20533 141.313L-4.5 140.76L-6.79066 141.532L-9.08133 144.005L-11.372 137.635L-13.6667 143.649L-15.9613 140.565L-18.2547 136.35L-20.548 138.108L-22.8453 144.153L-25.1387 137.356L-27.4347 142.347L-29.7307 142.915L-32.028 134.948L-34.324 135.845L-36.616 142.372L-38.9133 140.317L-41.208 141.718L-43.5053 143.439L-45.8053 134.687L-48.1027 134.024L-50.4053 144.47L-52.7107 143.9L-51.52 136.03L-57.2547 137.167L-52.1267 135.109L-57.28 133.053L-54.1 130.996L-57.4307 128.942L-53.712 126.886L-54.0827 124.83L-54.7027 122.774L-49.5733 120.716L-50.844 118.658L-51.0493 116.601L-57.084 114.546L-51.6013 112.489L-49.664 110.432L-59.8747 108.373L-58.9893 106.315L-58.1253 104.258L-61 102.201L-59.6173 100.144L-52.06 98.0844L-59.84 96.0289L-58.6933 93.9757L-55.876 91.9238L-60.2013 89.8707L-59.6987 87.8164L-50.8307 85.7596L-49.8987 83.6993L-56.2693 81.6437L-51.6747 79.5882L-60.2427 77.5315L-54.488 75.4723L-60.4773 73.4132L-54.032 71.3564L-56.6573 69.2973L-59.5893 67.2357L-57.884 65.1766L-54.956 63.1162L-56.868 61.0571L-60.4413 58.9943L-50.344 56.934L-58.4267 54.8772L-51.3107 52.8157L-51.1427 50.7554L-60.2987 48.6938L-52.212 46.6298L-57.4067 44.5683L-60.5347 42.5031L-54.3733 41.4007L-51.3787 40.5294Z" fill="#020C07"/>
</svg>
