<svg width="104" height="235" viewBox="0 0 104 235" fill="none" xmlns="http://www.w3.org/2000/svg">
<path d="M0.488281 211.999V0.756348H103.511V211.999L55.2318 234.048L0.488281 211.999Z" fill="url(#paint0_linear_124_1595)"/>
<path d="M4.46387 130.451V40.0112H99.8676L98.8548 130.781L95.6139 130.451V153.722L99.8676 157.022V211.319L65.2306 223.862C58.1006 217.657 45.1776 221.277 42.5443 223.862L4.46387 211.319V157.022L8.92009 153.722V130.451H4.46387Z" fill="url(#paint1_linear_124_1595)" stroke="url(#paint2_linear_124_1595)" stroke-width="0.993789"/>
<path d="M26.2975 195.588C26.2975 196.161 26.7268 196.626 27.3171 196.626H31.163C31.6818 196.626 32.1111 196.197 32.1111 195.696C32.1111 195.177 31.6818 194.748 31.163 194.748H28.3546V184.033C28.3546 183.478 27.9074 182.995 27.335 182.995C26.7447 182.995 26.2975 183.478 26.2975 184.033V195.588ZM39.4964 195.875C39.5859 196.393 40.0152 196.751 40.5339 196.751C41.2137 196.751 41.6967 196.125 41.5715 195.463L41.4999 195.177L39.1387 184.015C39.0313 183.478 38.6557 182.995 37.7971 182.995C36.9384 182.995 36.5449 183.514 36.4375 183.979L33.8259 195.177L33.7364 195.517C33.6112 196.143 34.0763 196.751 34.7203 196.751C35.2033 196.751 35.6147 196.393 35.7041 195.928L36.1513 193.674H39.085L39.4964 195.875ZM37.7076 186L38.7451 191.796H36.527L37.7076 186ZM49.5668 195.928C49.7457 196.376 50.1034 196.751 50.7116 196.751C51.2662 196.751 51.7313 196.411 51.7313 195.875V183.943C51.7313 183.424 51.3377 182.995 50.8011 182.995C50.2823 182.995 49.8888 183.424 49.8888 183.943V188.29L49.9246 192.494L46.3111 183.675C46.1144 183.192 45.7029 182.995 45.22 182.995C44.576 182.995 44.2003 183.424 44.2003 183.961V195.785C44.2003 196.304 44.5939 196.751 45.1126 196.751C45.6493 196.751 46.0428 196.304 46.0428 195.785V191.295L45.9891 187.324L49.5668 195.928ZM61.3084 188.97H59.4123C58.9114 188.97 58.5 189.381 58.5 189.882C58.5 190.383 58.9114 190.794 59.4123 190.794H60.1994V194.891C59.8058 194.98 59.466 195.016 59.0724 195.016C57.7308 195.016 56.9079 194.014 56.9079 192.547V187.163C56.9079 185.482 58.0349 184.909 59.4123 184.909C59.8774 184.909 60.3425 184.981 60.7718 185.106C60.8791 185.142 60.9864 185.16 61.1117 185.16C61.6304 185.16 62.0419 184.766 62.0419 184.229C62.0419 183.872 61.863 183.603 61.5946 183.442C60.9328 183.085 60.1457 182.995 59.3228 182.995C56.1745 182.995 54.8329 184.891 54.8329 187.539V192.261C54.8329 195.213 56.2997 196.751 59.0009 196.751C59.9847 196.751 60.7718 196.608 61.5589 196.322C61.9166 196.215 62.2207 195.839 62.2207 195.32V189.882C62.2207 189.381 61.8093 188.97 61.3084 188.97ZM68.3419 196.626C71.2397 196.626 72.3667 195.034 72.3667 192.243V187.592C72.3667 184.695 71.2219 183.12 68.3419 183.12H66.3026C65.7123 183.12 65.2651 183.585 65.2651 184.158V195.588C65.2651 196.143 65.7123 196.626 66.3026 196.626H68.3419ZM68.3419 185.017C69.7908 185.017 70.2917 185.714 70.2917 187.253V192.547C70.2917 193.907 69.7908 194.712 68.3419 194.712H67.3222V185.017H68.3419ZM77.5402 184.033C77.5402 183.46 77.093 182.995 76.5205 182.995C75.9302 182.995 75.483 183.46 75.483 184.033V195.696C75.483 196.268 75.9302 196.751 76.5205 196.751C77.093 196.751 77.5402 196.268 77.5402 195.696V184.033Z" fill="#0BB049"/>
<path fill-rule="evenodd" clip-rule="evenodd" d="M44.5708 113.537C43.2759 114.268 43.1615 114.668 43.1907 118.371C43.2187 121.917 43.9843 125.629 45.0268 127.273C45.3705 127.816 45.6446 129.528 45.7047 131.511L45.8056 134.839L44.1818 136.199C42.7845 137.37 42.6339 137.649 43.1006 138.209C43.4249 138.598 44.2831 138.859 45.2384 138.859C46.1163 138.859 46.8337 138.998 46.8325 139.166C46.8312 139.335 46.0274 141.41 45.0466 143.776C44.0654 146.142 43.1319 148.604 42.9718 149.248C42.5911 150.78 43.6106 152.379 44.9676 152.379C45.515 152.379 46.0463 152.518 46.1488 152.687C46.2513 152.855 46.4674 155.307 46.6296 158.134L46.9238 163.274L45.3199 164.33C44.4379 164.911 43.1212 165.517 42.3943 165.676C39.7836 166.247 41.1513 166.719 45.4146 166.719H49.7564L49.479 164.276C49.3143 162.827 49.4185 160.501 49.735 158.559C50.1684 155.904 50.1704 154.958 49.7465 153.549C49.1011 151.405 49.3925 151.127 53.2956 150.151C56.7896 149.277 59.7201 149.846 60.4038 151.531C61.0681 153.169 62.2551 154.97 62.786 155.146C63.0511 155.234 63.3943 154.804 63.5487 154.19C63.801 153.191 63.4898 151.744 62.4987 149.307C62.3156 148.856 61.9616 147.98 61.7118 147.36C61.1961 146.081 60.6046 145.972 58.9204 146.846C57.1905 147.744 52.5968 147.526 52.5968 146.547C52.5968 146.072 55.5433 142.414 57.2037 140.828C59.1694 138.951 58.7508 135.28 56.1759 131.813C55.4717 130.865 55.3919 130.315 55.6137 127.95C55.7557 126.433 56.0158 125.049 56.1907 124.875C56.3661 124.701 57.5568 124.665 58.8368 124.797L61.1648 125.036L63.5503 128.532C65.007 130.667 65.905 132.401 65.8565 132.986C65.8071 133.576 66.0005 133.943 66.3611 133.943C66.6821 133.943 67.0044 134.358 67.0764 134.864C67.1797 135.587 67.4971 135.801 68.5458 135.853C70.288 135.94 70.3329 134.923 68.6894 132.575C68.033 131.638 67.0842 129.603 66.5813 128.054C65.3379 124.225 63.5849 122.499 60.0049 121.577C56.5295 120.682 52.251 119.297 50.9504 118.645C50.0618 118.2 49.94 117.899 50.0564 116.44C50.1593 115.156 49.9869 114.547 49.3362 113.899C48.38 112.947 45.9439 112.762 44.5708 113.537Z" fill="#0BB049"/>
<defs>
<linearGradient id="paint0_linear_124_1595" x1="51.9997" y1="0.756348" x2="52.1332" y2="346.595" gradientUnits="userSpaceOnUse">
<stop offset="0.078125" stop-color="#08CE5B" stop-opacity="0"/>
<stop offset="1" stop-color="#08D55E"/>
</linearGradient>
<linearGradient id="paint1_linear_124_1595" x1="52.1657" y1="40.0112" x2="52.19" y2="174.128" gradientUnits="userSpaceOnUse">
<stop stop-color="#065227" stop-opacity="0"/>
<stop offset="1" stop-color="#065227"/>
</linearGradient>
<linearGradient id="paint2_linear_124_1595" x1="52.1657" y1="40.0112" x2="52.1657" y2="223.862" gradientUnits="userSpaceOnUse">
<stop stop-color="#1B8929" stop-opacity="0"/>
<stop offset="1" stop-color="#1B8F27"/>
</linearGradient>
</defs>
</svg>
