<svg width="32" height="32" viewBox="0 0 32 32" fill="none" xmlns="http://www.w3.org/2000/svg">
<path d="M0.390889 0.573028C0.154685 0.810297 0 1.22902 0 1.66405C0 1.95854 0.0750374 2.24096 0.194108 2.46924L1.75833 1.9458L2.27965 0.375471C2.05227 0.25593 1.77103 0.180664 1.47763 0.180664C1.04431 0.180664 0.627227 0.335892 0.390956 0.573095L0.390889 0.573028ZM1.53569 3.29287L4.38732 6.01607C4.58376 5.71534 4.78555 5.45815 5.02116 5.22162C5.25676 4.98515 5.51294 4.7825 5.81249 4.58528L3.10012 1.72241L2.70896 2.90024L1.53569 3.29287ZM5.87169 6.07544C5.66676 6.28118 5.48294 6.52912 5.27888 6.86741L10.4537 11.8092C10.6305 11.5873 10.8021 11.3922 10.9848 11.2088C11.1675 11.0253 11.3619 10.853 11.5829 10.6755L6.66055 5.48029C6.32359 5.68516 6.07663 5.8697 5.87169 6.07544V6.07544ZM11.8146 12.0417C11.2056 12.6532 10.6734 13.5475 9.43119 15.436L10.1723 16.18C12.4549 12.7172 12.4874 12.6846 15.9366 10.393L15.1954 9.64897C13.3145 10.896 12.4236 11.4304 11.8146 12.0418V12.0417ZM13.4211 13.6546C13.1539 13.9227 12.9148 14.2275 12.6287 14.6381L28.8567 30.5757L31.6947 32.0003L30.2758 29.151L14.4007 12.8591C13.9918 13.1463 13.6881 13.3864 13.4211 13.6546V13.6546Z" fill="white"/>
<path d="M31.6092 0.392431C31.3728 0.155295 30.9558 0 30.5224 0C30.2291 0 29.9478 0.0753333 29.7204 0.194874L30.2418 1.76527L31.806 2.28864C31.925 2.06036 32 1.77801 32 1.48345C32 1.04843 31.8454 0.6297 31.6091 0.392498L31.6092 0.392431ZM28.9 1.54175L26.1875 4.40461C26.4871 4.60184 26.7432 4.80442 26.9788 5.04096C27.2144 5.27749 27.4162 5.53468 27.6127 5.83541L30.4643 3.11234L29.2911 2.71964L28.9 1.54175ZM26.1284 5.89484C25.9234 5.6891 25.6765 5.50456 25.3395 5.29969L20.4172 10.4949C20.6381 10.6724 20.8325 10.8447 21.0152 11.0281C21.198 11.2116 21.3696 11.4067 21.5463 11.6286L26.7212 6.68682C26.5171 6.34852 26.3333 6.10059 26.1284 5.89484V5.89484ZM20.1855 11.8612C19.5765 11.2498 18.6856 10.7154 16.8046 9.46838L16.0635 10.2125C19.5127 12.504 19.5451 12.5366 21.8277 15.9994L22.5689 15.2554C21.3267 13.367 20.7944 12.4726 20.1855 11.8612H20.1855ZM18.579 13.474C18.3119 13.2058 18.0084 12.9657 17.5994 12.6785L1.72431 28.9704L0.305351 31.8197L3.14341 30.3951L19.3713 14.4575C19.0853 14.0469 18.8461 13.7421 18.579 13.474V13.474Z" fill="white"/>
</svg>
